<?xml version="1.0" encoding="UTF-8"?>
<svg width="226px" height="55px" viewBox="0 0 226 55" version="1.1" xmlns="http://www.w3.org/2000/svg" xmlns:xlink="http://www.w3.org/1999/xlink">
    <!-- Generator: Sketch 51.2 (57519) - http://www.bohemiancoding.com/sketch -->
    <title>Trender Logo - Login</title>
    <desc>Created with Sketch.</desc>
    <defs>
        <path d="M0.0631803268,0.0160005425 L0.0631803268,9.55204707 C0.0631803268,16.2855844 -0.728433838,22.575472 3.29248326,28.4265584 C4.85816441,30.7052941 6.93632271,32.6508076 9.33070355,34.0036971 C11.3654295,35.1516107 13.6280198,35.8704203 16,36 L16,28.3247371 C12.6148881,27.9488469 10.5678418,26.3875875 9.33070355,24.1937029 C6.62532699,19.398406 7.78518299,11.5798661 7.26611009,6.51195495 C7.2138419,6.00515172 6.91018862,3.52507657 4.8656313,1.68623297 C3.20101393,0.190914934 1.36341375,-0.000121158181 0.490286098,5.76130045e-08 C0.296022663,5.76130045e-08 0.149422838,0.00945488956 0.0631803268,0.0160005425" id="path-1"></path>
        <path d="M6.94472257e-13,6.98873294 C0.394600333,7.02844849 0.78425459,7.09584457 1.16787705,7.19080084 C1.63220498,7.30405032 2.08579632,7.45797816 2.52623833,7.65174189 C3.03037614,7.87438966 3.51533283,8.14770484 3.97628296,8.47385374 C4.23203127,8.65558246 4.48174777,8.85295669 4.7204864,9.06597645 C4.88937679,9.21641413 5.05476874,9.37527633 5.21388762,9.54135953 C5.75928294,10.1092919 6.21396,10.7087559 6.59155066,11.3332528 C9.58694236,16.2772368 7.77498975,22.8062322 8.18394576,28.3472732 C8.22013656,28.8285535 8.45537675,31.4390685 10.5110141,33.3345833 C12.3906435,35.067505 14.5065988,35.0181615 15,34.9928879 L15,20.6760346 C15,16.953725 14.9757522,13.4574329 13.4822786,9.98665506 C12.8887495,8.6086459 12.1228316,7.31235448 11.2120298,6.14026442 C10.6955871,5.47220076 10.132217,4.84650035 9.52795136,4.26869931 C9.26737761,4.015964 8.99823871,3.77406021 8.72330929,3.54178443 L8.72077593,3.53949778 C8.34318527,3.22177339 7.95365165,2.92089803 7.55072744,2.64048219 C7.06565011,2.30097443 6.56271865,1.99047105 6.04506961,1.71005522 C4.22841219,0.726914878 2.22102927,0.117943142 0.113518469,-2.32071307e-13 L6.94472257e-13,6.98873294 Z" id="path-3"></path>
        <polygon id="path-5" points="-3.61710661e-13 2.53241872e-13 44 2.53241872e-13 44 41 -3.61710661e-13 41"></polygon>
    </defs>
    <g id="Page-1" stroke="none" stroke-width="1" fill="none" fill-rule="evenodd">
        <g id="Trender-Logo---Login">
            <g id="Group-2-Copy" fill="#345A7E">
                <g id="Group-18-Copy" fill-rule="nonzero">
                    <path d="M-3.03201908e-13,-1.04590395e-12 L226,-1.04590395e-12 L226,22 L220,22 L220,6 L99,6 L99,49 L220,49 L220,44 L226,44 L226,55 L-3.03201908e-13,55 L-3.03201908e-13,-1.04590395e-12 Z M220,38 L220,27 L226,27 L226,38 L220,38 Z" id="Combined-Shape"></path>
                </g>
                <path d="M110.234375,21.4101562 L110.234375,20.3085938 C110.234375,19.9882796 110.339843,19.7226573 110.550781,19.5117188 C110.76172,19.3007802 111.027342,19.1953125 111.347656,19.1953125 L126.21875,19.1953125 C126.539064,19.1953125 126.804686,19.3007802 127.015625,19.5117188 C127.226564,19.7226573 127.332031,19.9882796 127.332031,20.3085938 L127.332031,21.4101562 C127.332031,21.7304704 127.226564,21.9941396 127.015625,22.2011719 C126.804686,22.4082042 126.539064,22.5117188 126.21875,22.5117188 L120.992188,22.5117188 L120.992188,34.921875 C120.992188,35.226564 120.884767,35.4824208 120.669922,35.6894531 C120.455077,35.8964854 120.195314,36 119.890625,36 L117.675781,36 C117.371092,36 117.111329,35.8964854 116.896484,35.6894531 C116.68164,35.4824208 116.574219,35.226564 116.574219,34.921875 L116.574219,22.5117188 L111.347656,22.5117188 C111.027342,22.5117188 110.76172,22.4082042 110.550781,22.2011719 C110.339843,21.9941396 110.234375,21.7304704 110.234375,21.4101562 Z M127.085938,35.2851562 L127.085938,23.8828125 C127.085938,23.6718739 127.154296,23.4980476 127.291016,23.3613281 C127.427735,23.2246087 127.597655,23.15625 127.800781,23.15625 L130.425781,23.15625 C130.63672,23.15625 130.808593,23.2246087 130.941406,23.3613281 C131.074219,23.4980476 131.140625,23.6718739 131.140625,23.8828125 L131.140625,24.6210938 C131.937504,24.0429659 132.705074,23.6152358 133.443359,23.3378906 C134.181644,23.0605455 135.148432,22.921875 136.34375,22.921875 C136.554689,22.921875 136.728515,22.9902337 136.865234,23.1269531 C137.001954,23.2636726 137.070312,23.4335927 137.070312,23.6367188 L137.070312,25.4179688 C137.070312,25.6289073 137.001954,25.8007806 136.865234,25.9335938 C136.728515,26.0664069 136.554689,26.1328125 136.34375,26.1328125 L135.96875,26.1328125 C135.789062,26.1328125 135.496096,26.1210939 135.089844,26.0976562 C134.683592,26.0742186 134.375001,26.0625 134.164062,26.0625 C133.10937,26.0625 132.101567,26.6406192 131.140625,27.796875 L131.140625,35.2851562 C131.140625,35.4960948 131.072266,35.6679681 130.935547,35.8007812 C130.798827,35.9335944 130.628907,36 130.425781,36 L127.800781,36 C127.589843,36 127.417969,35.9335944 127.285156,35.8007812 C127.152343,35.6679681 127.085938,35.4960948 127.085938,35.2851562 Z M139.589844,34.5234375 C138.386713,33.3828068 137.785156,31.7402451 137.785156,29.5957031 C137.785156,27.4511612 138.390619,25.8027401 139.601562,24.6503906 C140.812506,23.4980411 142.488271,22.921875 144.628906,22.921875 C146.785167,22.921875 148.464838,23.4824163 149.667969,24.6035156 C150.8711,25.724615 151.472656,27.3320208 151.472656,29.4257812 L151.472656,30.09375 C151.472656,30.3046886 151.404298,30.4785149 151.267578,30.6152344 C151.130859,30.7519538 150.957032,30.8203125 150.746094,30.8203125 L141.921875,30.8203125 C142,31.7812548 142.275388,32.4804666 142.748047,32.9179688 C143.220705,33.3554709 143.945308,33.5742188 144.921875,33.5742188 C146.023443,33.5742188 146.78906,33.3125026 147.21875,32.7890625 C147.554689,32.3749979 148.003903,32.1640625 148.566406,32.15625 L150.3125,32.15625 C150.523439,32.15625 150.697265,32.2246087 150.833984,32.3613281 C150.970704,32.4980476 151.039062,32.6718739 151.039062,32.8828125 C151.039062,35.1250112 148.902365,36.2421875 144.628906,36.234375 C142.472645,36.234375 140.792975,35.6640682 139.589844,34.5234375 Z M141.898438,28.3476562 L147.347656,28.3476562 C147.269531,26.503897 146.365243,25.5820312 144.634766,25.5820312 C142.904288,25.5820312 141.992188,26.503897 141.898438,28.3476562 Z M153.628906,35.2851562 L153.628906,23.8828125 C153.628906,23.6718739 153.697265,23.4980476 153.833984,23.3613281 C153.970704,23.2246087 154.140624,23.15625 154.34375,23.15625 L156.96875,23.15625 C157.179689,23.15625 157.351562,23.2246087 157.484375,23.3613281 C157.617188,23.4980476 157.683594,23.6718739 157.683594,23.8828125 L157.683594,24.6210938 C159.02735,23.4882756 160.394524,22.921875 161.785156,22.921875 C163.433602,22.921875 164.73437,23.384761 165.6875,24.3105469 C166.64063,25.2363328 167.117188,26.6523342 167.117188,28.5585938 L167.117188,35.2851562 C167.117188,35.4960948 167.048829,35.6679681 166.912109,35.8007812 C166.77539,35.9335944 166.601564,36 166.390625,36 L163.777344,36 C163.566405,36 163.394532,35.9316413 163.261719,35.7949219 C163.128906,35.6582024 163.0625,35.4882823 163.0625,35.2851562 L163.0625,28.5585938 C163.0625,26.6835844 162.316414,25.75 160.824219,25.7578125 C159.847651,25.7578125 158.800787,26.3164007 157.683594,27.4335938 L157.683594,35.2851562 C157.683594,35.4960948 157.615235,35.6679681 157.478516,35.8007812 C157.341796,35.9335944 157.171876,36 156.96875,36 L154.34375,36 C154.132811,36 153.960938,35.9335944 153.828125,35.8007812 C153.695312,35.6679681 153.628906,35.4960948 153.628906,35.2851562 Z M169.261719,29.5898437 C169.261719,27.433583 169.830072,25.7832088 170.966797,24.6386719 C172.103521,23.4941349 173.632803,22.921875 175.554688,22.921875 C176.54688,22.921875 177.675775,23.1210918 178.941406,23.5195312 L178.941406,19.921875 C178.941406,19.7109364 179.009765,19.5371101 179.146484,19.4003906 C179.283204,19.2636712 179.453124,19.1953125 179.65625,19.1953125 L182.269531,19.1953125 C182.48047,19.1953125 182.654296,19.2636712 182.791016,19.4003906 C182.927735,19.5371101 182.996094,19.7109364 182.996094,19.921875 L182.996094,35.2851562 C182.996094,35.4960948 182.927735,35.6679681 182.791016,35.8007812 C182.654296,35.9335944 182.48047,36 182.269531,36 L180.019531,36 C179.808593,36 179.636719,35.9316413 179.503906,35.7949219 C179.371093,35.6582024 179.304688,35.4882823 179.304688,35.2851562 L179.304688,34.921875 C178.070306,35.8046919 176.699226,36.2421875 175.191406,36.234375 C173.433585,36.234375 172.005865,35.6582089 170.908203,34.5058594 C169.810541,33.3535099 169.261719,31.7148544 169.261719,29.5898437 Z M173.445312,29.5898438 C173.445312,30.9179754 173.656248,31.8867157 174.078125,32.4960938 C174.500002,33.1054718 175.191401,33.4101562 176.152344,33.4101562 C176.886722,33.4101562 177.816401,33.0585973 178.941406,32.3554688 L178.941406,26.2265625 C177.933589,25.9062484 177.085941,25.75 176.398438,25.7578125 C175.32812,25.7578125 174.568362,26.0605438 174.119141,26.6660156 C173.66992,27.2714874 173.445312,28.246087 173.445312,29.5898438 Z M186.945312,34.5234375 C185.742181,33.3828068 185.140625,31.7402451 185.140625,29.5957031 C185.140625,27.4511612 185.746088,25.8027401 186.957031,24.6503906 C188.167975,23.4980411 189.843739,22.921875 191.984375,22.921875 C194.140636,22.921875 195.820306,23.4824163 197.023438,24.6035156 C198.226569,25.724615 198.828125,27.3320208 198.828125,29.4257812 L198.828125,30.09375 C198.828125,30.3046886 198.759766,30.4785149 198.623047,30.6152344 C198.486327,30.7519538 198.312501,30.8203125 198.101562,30.8203125 L189.277344,30.8203125 C189.355469,31.7812548 189.630857,32.4804666 190.103516,32.9179688 C190.576174,33.3554709 191.300776,33.5742188 192.277344,33.5742188 C193.378912,33.5742188 194.144529,33.3125026 194.574219,32.7890625 C194.910158,32.3749979 195.359372,32.1640625 195.921875,32.15625 L197.667969,32.15625 C197.878907,32.15625 198.052734,32.2246087 198.189453,32.3613281 C198.326173,32.4980476 198.394531,32.6718739 198.394531,32.8828125 C198.394531,35.1250112 196.257834,36.2421875 191.984375,36.234375 C189.828114,36.234375 188.148444,35.6640682 186.945312,34.5234375 Z M189.253906,28.3476562 L194.703125,28.3476562 C194.625,26.503897 193.720712,25.5820312 191.990234,25.5820312 C190.259757,25.5820312 189.347657,26.503897 189.253906,28.3476562 Z M200.984375,35.2851562 L200.984375,23.8828125 C200.984375,23.6718739 201.052734,23.4980476 201.189453,23.3613281 C201.326173,23.2246087 201.496093,23.15625 201.699219,23.15625 L204.324219,23.15625 C204.535157,23.15625 204.707031,23.2246087 204.839844,23.3613281 C204.972657,23.4980476 205.039062,23.6718739 205.039062,23.8828125 L205.039062,24.6210938 C205.835941,24.0429659 206.603512,23.6152358 207.341797,23.3378906 C208.080082,23.0605455 209.046869,22.921875 210.242188,22.921875 C210.453126,22.921875 210.626952,22.9902337 210.763672,23.1269531 C210.900391,23.2636726 210.96875,23.4335927 210.96875,23.6367188 L210.96875,25.4179688 C210.96875,25.6289073 210.900391,25.8007806 210.763672,25.9335938 C210.626952,26.0664069 210.453126,26.1328125 210.242188,26.1328125 L209.867188,26.1328125 C209.687499,26.1328125 209.394533,26.1210939 208.988281,26.0976562 C208.582029,26.0742186 208.273439,26.0625 208.0625,26.0625 C207.007807,26.0625 206.000005,26.6406192 205.039062,27.796875 L205.039062,35.2851562 C205.039062,35.4960948 204.970704,35.6679681 204.833984,35.8007812 C204.697265,35.9335944 204.527345,36 204.324219,36 L201.699219,36 C201.48828,36 201.316407,35.9335944 201.183594,35.8007812 C201.050781,35.6679681 200.984375,35.4960948 200.984375,35.2851562 Z" id="Trender"></path>
            </g>
            <g id="Group-5" transform="translate(20.000000, 6.000000)">
                <g id="Logo">
                    <g id="Group-3" transform="translate(0.000000, 5.000000)">
                        <g id="Fill-1-Clipped">
                            <mask id="mask-2" fill="white">
                                <use xlink:href="#path-1"></use>
                            </mask>
                            <g id="path-1"></g>
                            <path d="M0.0631803268,0.0160005425 L0.0631803268,9.55204707 C0.0631803268,16.2855844 -0.728433838,22.575472 3.29248326,28.4265584 C4.85816441,30.7052941 6.93632271,32.6508076 9.33070355,34.0036971 C11.3654295,35.1516107 13.6280198,35.8704203 16,36 L16,28.3247371 C12.6148881,27.9488469 10.5678418,26.3875875 9.33070355,24.1937029 C6.62532699,19.398406 7.78518299,11.5798661 7.26611009,6.51195495 C7.2138419,6.00515172 6.91018862,3.52507657 4.8656313,1.68623297 C3.20101393,0.190914934 1.36341375,-0.000121158181 0.490286098,5.76130045e-08 C0.296022663,5.76130045e-08 0.149422838,0.00945488956 0.0631803268,0.0160005425" id="Fill-1" fill="#FFFFFF" fill-rule="nonzero" mask="url(#mask-2)"></path>
                        </g>
                    </g>
                    <g id="Group-6" transform="translate(43.000000, 5.000000)">
                        <g id="Fill-4-Clipped">
                            <mask id="mask-4" fill="white">
                                <use xlink:href="#path-3"></use>
                            </mask>
                            <g id="path-3"></g>
                            <path d="M6.94472257e-13,6.98873294 C0.394600333,7.02844849 0.78425459,7.09584457 1.16787705,7.19080084 C1.63220498,7.30405032 2.08579632,7.45797816 2.52623833,7.65174189 C3.03037614,7.87438966 3.51533283,8.14770484 3.97628296,8.47385374 C4.23203127,8.65558246 4.48174777,8.85295669 4.7204864,9.06597645 C4.88937679,9.21641413 5.05476874,9.37527633 5.21388762,9.54135953 C5.75928294,10.1092919 6.21396,10.7087559 6.59155066,11.3332528 C9.58694236,16.2772368 7.77498975,22.8062322 8.18394576,28.3472732 C8.22013656,28.8285535 8.45537675,31.4390685 10.5110141,33.3345833 C12.3906435,35.067505 14.5065988,35.0181615 15,34.9928879 L15,20.6760346 C15,16.953725 14.9757522,13.4574329 13.4822786,9.98665506 C12.8887495,8.6086459 12.1228316,7.31235448 11.2120298,6.14026442 C10.6955871,5.47220076 10.132217,4.84650035 9.52795136,4.26869931 C9.26737761,4.015964 8.99823871,3.77406021 8.72330929,3.54178443 L8.72077593,3.53949778 C8.34318527,3.22177339 7.95365165,2.92089803 7.55072744,2.64048219 C7.06565011,2.30097443 6.56271865,1.99047105 6.04506961,1.71005522 C4.22841219,0.726914878 2.22102927,0.117943142 0.113518469,-2.32071307e-13 L6.94472257e-13,6.98873294 Z" id="Fill-4" fill="#FFFFFF" fill-rule="nonzero" mask="url(#mask-4)"></path>
                        </g>
                    </g>
                    <g id="Group-14" transform="translate(8.000000, 0.000000)">
                        <path d="M45,9.52042556 L40.1938318,14 C39.955031,13.801195 39.7053756,13.616775 39.4496899,13.4470771 C38.9889731,13.14252 38.5041351,12.8874113 38,12.6795033 L43.0232598,8 C43.4260855,8.26185169 43.8156444,8.54280844 44.1931427,8.83938639 L44.1955548,8.84163404 C44.4705376,9.05864504 44.73949,9.28442188 45,9.52042556" id="Fill-7" fill-opacity="0.432914402" fill="#A1A1A1" fill-rule="nonzero"></path>
                        <path d="M8,32.6268828 C7.49566616,32.6221806 6.8310845,32.5556617 6.10216543,32.3066748 C5.82980371,32.2135484 5.5860364,32.1079211 5.37098263,32 C4.80814941,32.0713357 3.34030322,32.3307592 2.00148929,33.4814206 C0.4610848,34.8057191 0.0928126769,36.4497668 5.60690383e-13,36.9587507 C0.53840884,37.3059102 1.07681768,37.6528404 1.61510738,38 L8,32.6268828 Z" id="Fill-9" fill-opacity="0.142153533" fill="#000000" fill-rule="nonzero" opacity="0.260379464"></path>
                        <g id="Group-13" transform="translate(1.000000, 0.000000)">
                            <g id="Fill-11-Clipped">
                                <mask id="mask-6" fill="white">
                                    <use xlink:href="#path-5"></use>
                                </mask>
                                <g id="path-5"></g>
                                <path d="M43.8835261,8.59182666 L43.880924,8.58941221 L35.1244407,2.66217604e-13 L35.0401829,5.03896087 L35.0382004,5.155096 C34.7149234,5.13988495 34.389416,5.13409027 34.0625456,5.14169579 C27.2066933,5.30092889 21.0013602,10.6864843 19.0188256,17.7957169 C17.9804732,21.5224232 18.4674332,25.525705 16.2581463,28.8828794 C14.3961746,31.7085124 11.2114807,33.5645014 7.781572,33.3935583 C7.57241461,33.3695345 7.36424848,33.3529955 7.15756925,33.3429755 C7.13006159,33.3400781 7.10119093,33.3382673 7.07405499,33.3352492 L7.07405499,33.3391124 C4.65722147,33.2445866 2.44297819,34.1072702 1.15755236,35.7681716 C0.33492443,36.8308925 0.0814078248,37.9763085 -3.61710661e-13,38.7372229 C0.763523617,39.2339964 1.82975548,39.820346 3.18531347,40.271607 C4.72276902,40.7835915 6.08762014,40.9405309 7.07405499,40.9792829 C7.30452463,40.9914758 7.53623335,40.9985985 7.76918116,40.9998057 C14.5667965,41.0360225 21.1748319,36.0055122 23.3804016,29.0351106 C24.3022802,26.1232818 24.4844256,22.996446 25.2538968,20.0339137 C26.067975,16.9036976 27.7407386,13.8963772 30.8917294,12.7230744 C32.2085041,12.2324578 33.5833918,12.0460621 34.9218504,12.1595413 L34.8307777,17.5821586 L39.0077302,13.5390384 L44,8.70651312 L43.8835261,8.59182666 Z" id="Fill-11" fill="#67C0ED" fill-rule="nonzero" mask="url(#mask-6)"></path>
                            </g>
                        </g>
                    </g>
                </g>
            </g>
        </g>
    </g>
</svg>