<?xml version="1.0" encoding="UTF-8"?>
<svg width="257px" height="64px" viewBox="0 0 257 64" version="1.1" xmlns="http://www.w3.org/2000/svg" xmlns:xlink="http://www.w3.org/1999/xlink">
    <!-- Generator: Sketch 51.2 (57519) - http://www.bohemiancoding.com/sketch -->
    <title>Trender Logo - Tablet</title>
    <desc>Created with Sketch.</desc>
    <defs>
        <path d="M0.0716171115,0.0183557993 L0.0716171115,10.9580947 C0.0716171115,18.6827991 -0.825705248,25.8985491 3.732145,32.610907 C5.50689938,35.2250693 7.86256454,37.4569596 10.576679,39.0089925 C12.8831121,40.3258773 15.4478374,41.1504947 18.1365599,41.2991483 L18.1365599,32.4940978 C14.2994171,32.0628771 11.9790185,30.2718025 10.576679,27.7549812 C7.51004001,22.2538236 8.82477737,13.2844058 8.23639008,7.47050538 C8.17714226,6.88910143 7.83294063,4.04396278 5.51536336,1.93444404 C3.62846131,0.219017338 1.5454772,-0.000138992492 0.555756451,6.60935804e-08 C0.335552049,6.60935804e-08 0.169376017,0.0108466357 0.0716171115,0.0183557993" id="path-1"></path>
        <path d="M6.94472257e-13,8.04037144 C0.463481044,8.08606324 0.921152635,8.16360083 1.37173953,8.27284576 C1.9171197,8.40313661 2.4498891,8.58022693 2.96721386,8.80314751 C3.55935305,9.05929848 4.12896289,9.37374112 4.67037563,9.74896768 C4.97076689,9.95804226 5.26407346,10.1851166 5.54448586,10.4301908 C5.74285745,10.6032658 5.93711991,10.786033 6.12401429,10.9771078 C6.76461282,11.6305004 7.29865747,12.3201696 7.74215966,13.0386385 C11.2604215,18.7265748 9.13217771,26.2380291 9.61252034,32.6128653 C9.65502854,33.1665668 9.93133182,36.1699024 12.3457974,38.3506472 C14.5535315,40.3443325 17.0388441,40.2875639 17.6183725,40.2584873 L17.6183725,23.7872873 C17.6183725,19.5048584 17.589892,15.4824573 15.8357204,11.4894097 C15.138586,9.90404287 14.2389708,8.41269035 13.1691812,7.06422853 C12.5625892,6.29563715 11.9008783,5.57578367 11.1911331,4.91103728 C10.8850741,4.6202713 10.5689548,4.34196673 10.2460342,4.07473896 L10.2430586,4.07210822 C9.79955641,3.70657385 9.34202651,3.36042388 8.86876858,3.03781211 C8.29901705,2.64721649 7.7082948,2.28998972 7.10028588,1.96737795 C4.96651607,0.836298321 2.60872807,0.135690787 0.133334045,-2.32071307e-13 L6.94472257e-13,8.04037144 Z" id="path-3"></path>
        <polygon id="path-5" points="-3.61710661e-13 2.53241872e-13 50.2641804 2.53241872e-13 50.2641804 46.9777812 -3.61710661e-13 46.9777812"></polygon>
    </defs>
    <g id="Page-1" stroke="none" stroke-width="1" fill="none" fill-rule="evenodd">
        <g id="Trender-Logo---Tablet" transform="translate(-0.000000, 0.000000)">
            <g id="Group-2-Copy" fill="#FFFFFF">
                <g id="Group-18-Copy" fill-rule="nonzero">
                    <path d="M0,-9.09494702e-13 L256.361237,-9.09494702e-13 L256.361237,24.9333283 L249.122528,24.9333283 L249.122528,6.43440731 L102.739762,6.43440731 L102.739762,57.1053649 L249.122528,57.1053649 L249.122528,50.6709576 L256.361237,50.6709576 L256.361237,63.5397722 L0,63.5397722 L0,-9.09494702e-13 Z M249.122528,44.2365502 L249.122528,31.3677356 L256.361237,31.3677356 L256.361237,44.2365502 L249.122528,44.2365502 Z" id="Combined-Shape"></path>
                </g>
                <path d="M112.291667,24.64375 L112.291667,23.2729166 C112.291667,22.8743035 112.422915,22.5437513 112.685417,22.28125 C112.947918,22.0187487 113.27847,21.8875 113.677083,21.8875 L132.183333,21.8875 C132.581946,21.8875 132.912499,22.0187487 133.175,22.28125 C133.437501,22.5437513 133.56875,22.8743035 133.56875,23.2729166 L133.56875,24.64375 C133.56875,25.0423631 133.437501,25.3704848 133.175,25.628125 C132.912499,25.8857652 132.581946,26.0145833 132.183333,26.0145833 L125.679167,26.0145833 L125.679167,41.4583333 C125.679167,41.8375019 125.545487,42.1559015 125.278125,42.4135417 C125.010763,42.6711818 124.687502,42.8 124.308333,42.8 L121.552083,42.8 C121.172915,42.8 120.849654,42.6711818 120.582292,42.4135417 C120.314929,42.1559015 120.18125,41.8375019 120.18125,41.4583333 L120.18125,26.0145833 L113.677083,26.0145833 C113.27847,26.0145833 112.947918,25.8857652 112.685417,25.628125 C112.422915,25.3704848 112.291667,25.0423631 112.291667,24.64375 Z M133.2625,41.9104167 L133.2625,27.7208333 C133.2625,27.458332 133.347569,27.2420147 133.517708,27.071875 C133.687848,26.9017352 133.899304,26.8166666 134.152083,26.8166666 L137.41875,26.8166666 C137.681251,26.8166666 137.895138,26.9017352 138.060417,27.071875 C138.225695,27.2420147 138.308333,27.458332 138.308333,27.7208333 L138.308333,28.6395833 C139.300005,27.9201353 140.255204,27.3878489 141.173958,27.0427083 C142.092713,26.6975677 143.295826,26.525 144.783333,26.525 C145.045835,26.525 145.262152,26.6100686 145.432292,26.7802083 C145.602431,26.9503481 145.6875,27.1618043 145.6875,27.4145833 L145.6875,29.63125 C145.6875,29.8937513 145.602431,30.107638 145.432292,30.2729167 C145.262152,30.4381953 145.045835,30.5208333 144.783333,30.5208333 L144.316667,30.5208333 C144.093054,30.5208333 143.728475,30.5062501 143.222917,30.4770833 C142.717359,30.4479165 142.333335,30.4333333 142.070833,30.4333333 C140.758327,30.4333333 139.504173,31.1527706 138.308333,32.5916667 L138.308333,41.9104167 C138.308333,42.172918 138.223265,42.3868047 138.053125,42.5520833 C137.882985,42.7173619 137.671529,42.8 137.41875,42.8 L134.152083,42.8 C133.889582,42.8 133.675695,42.7173619 133.510417,42.5520833 C133.345138,42.3868047 133.2625,42.172918 133.2625,41.9104167 Z M148.822917,40.9625 C147.325687,39.5430485 146.577083,37.4989717 146.577083,34.8302083 C146.577083,32.161445 147.330548,30.1100766 148.8375,28.6760417 C150.344452,27.2420067 152.429848,26.525 155.09375,26.525 C157.777097,26.525 159.867354,27.2225625 161.364583,28.6177083 C162.861813,30.0128542 163.610417,32.0131814 163.610417,34.61875 L163.610417,35.45 C163.610417,35.7125013 163.525348,35.9288186 163.355208,36.0989583 C163.185069,36.2690981 162.968751,36.3541667 162.70625,36.3541667 L151.725,36.3541667 C151.822223,37.550006 152.164928,38.4201362 152.753125,38.9645833 C153.341322,39.5090305 154.24305,39.78125 155.458333,39.78125 C156.829174,39.78125 157.781942,39.4555588 158.316667,38.8041667 C158.734724,38.2888863 159.293747,38.0263889 159.99375,38.0166667 L162.166667,38.0166667 C162.429168,38.0166667 162.645485,38.1017353 162.815625,38.271875 C162.985765,38.4420147 163.070833,38.658332 163.070833,38.9208333 C163.070833,41.7111251 160.411832,43.1013889 155.09375,43.0916667 C152.410403,43.0916667 150.320146,42.3819515 148.822917,40.9625 Z M151.695833,33.2770833 L158.477083,33.2770833 C158.379861,30.9826274 157.254525,29.8354167 155.101042,29.8354167 C152.947559,29.8354167 151.812501,30.9826274 151.695833,33.2770833 Z M166.29375,41.9104167 L166.29375,27.7208333 C166.29375,27.458332 166.378819,27.2420147 166.548958,27.071875 C166.719098,26.9017352 166.930554,26.8166666 167.183333,26.8166666 L170.45,26.8166666 C170.712501,26.8166666 170.926388,26.9017352 171.091667,27.071875 C171.256945,27.2420147 171.339583,27.458332 171.339583,27.7208333 L171.339583,28.6395833 C173.011814,27.229854 174.713186,26.525 176.44375,26.525 C178.495149,26.525 180.113883,27.1010359 181.3,28.253125 C182.486117,29.4052141 183.079167,31.1673492 183.079167,33.5395833 L183.079167,41.9104167 C183.079167,42.172918 182.994098,42.3868047 182.823958,42.5520833 C182.653819,42.7173619 182.437501,42.8 182.175,42.8 L178.922917,42.8 C178.660415,42.8 178.446529,42.7149314 178.28125,42.5447917 C178.115971,42.3746519 178.033333,42.1631957 178.033333,41.9104167 L178.033333,33.5395833 C178.033333,31.2062383 177.10487,30.0444444 175.247917,30.0541667 C174.032633,30.0541667 172.729868,30.7492986 171.339583,32.1395833 L171.339583,41.9104167 C171.339583,42.172918 171.254515,42.3868047 171.084375,42.5520833 C170.914235,42.7173619 170.702779,42.8 170.45,42.8 L167.183333,42.8 C166.920832,42.8 166.706945,42.7173619 166.541667,42.5520833 C166.376388,42.3868047 166.29375,42.172918 166.29375,41.9104167 Z M185.747917,34.8229167 C185.747917,32.1395699 186.455201,30.085771 187.869792,28.6614583 C189.284382,27.2371456 191.187488,26.525 193.579167,26.525 C194.813895,26.525 196.218742,26.7729142 197.79375,27.26875 L197.79375,22.7916666 C197.79375,22.5291653 197.878819,22.3128481 198.048958,22.1427083 C198.219098,21.9725686 198.430554,21.8875 198.683333,21.8875 L201.935417,21.8875 C202.197918,21.8875 202.414235,21.9725686 202.584375,22.1427083 C202.754515,22.3128481 202.839583,22.5291653 202.839583,22.7916666 L202.839583,41.9104167 C202.839583,42.172918 202.754515,42.3868047 202.584375,42.5520833 C202.414235,42.7173619 202.197918,42.8 201.935417,42.8 L199.135417,42.8 C198.872915,42.8 198.659029,42.7149314 198.49375,42.5447917 C198.328471,42.3746519 198.245833,42.1631957 198.245833,41.9104167 L198.245833,41.4583333 C196.709715,42.5569499 195.003482,43.1013889 193.127083,43.0916667 C190.939572,43.0916667 189.162854,42.3746599 187.796875,40.940625 C186.430896,39.50659 185.747917,37.4673743 185.747917,34.8229167 Z M190.954167,34.8229167 C190.954167,36.4757027 191.216664,37.6812462 191.741667,38.4395833 C192.266669,39.1979205 193.127077,39.5770833 194.322917,39.5770833 C195.23681,39.5770833 196.393743,39.1395877 197.79375,38.2645833 L197.79375,30.6375 C196.539577,30.2388869 195.484727,30.0444444 194.629167,30.0541667 C193.297216,30.0541667 192.351739,30.430899 191.792708,31.184375 C191.233678,31.937851 190.954167,33.1506861 190.954167,34.8229167 Z M207.754167,40.9625 C206.256937,39.5430485 205.508333,37.4989717 205.508333,34.8302083 C205.508333,32.161445 206.261798,30.1100766 207.76875,28.6760417 C209.275702,27.2420067 211.361098,26.525 214.025,26.525 C216.708347,26.525 218.798604,27.2225625 220.295833,28.6177083 C221.793063,30.0128542 222.541667,32.0131814 222.541667,34.61875 L222.541667,35.45 C222.541667,35.7125013 222.456598,35.9288186 222.286458,36.0989583 C222.116319,36.2690981 221.900001,36.3541667 221.6375,36.3541667 L210.65625,36.3541667 C210.753473,37.550006 211.096178,38.4201362 211.684375,38.9645833 C212.272572,39.5090305 213.1743,39.78125 214.389583,39.78125 C215.760424,39.78125 216.713192,39.4555588 217.247917,38.8041667 C217.665974,38.2888863 218.224997,38.0263889 218.925,38.0166667 L221.097917,38.0166667 C221.360418,38.0166667 221.576735,38.1017353 221.746875,38.271875 C221.917015,38.4420147 222.002083,38.658332 222.002083,38.9208333 C222.002083,41.7111251 219.343082,43.1013889 214.025,43.0916667 C211.341653,43.0916667 209.251396,42.3819515 207.754167,40.9625 Z M210.627083,33.2770833 L217.408333,33.2770833 C217.311111,30.9826274 216.185775,29.8354167 214.032292,29.8354167 C211.878809,29.8354167 210.743751,30.9826274 210.627083,33.2770833 Z M225.225,41.9104167 L225.225,27.7208333 C225.225,27.458332 225.310069,27.2420147 225.480208,27.071875 C225.650348,26.9017352 225.861804,26.8166666 226.114583,26.8166666 L229.38125,26.8166666 C229.643751,26.8166666 229.857638,26.9017352 230.022917,27.071875 C230.188195,27.2420147 230.270833,27.458332 230.270833,27.7208333 L230.270833,28.6395833 C231.262505,27.9201353 232.217704,27.3878489 233.136458,27.0427083 C234.055213,26.6975677 235.258326,26.525 236.745833,26.525 C237.008335,26.525 237.224652,26.6100686 237.394792,26.7802083 C237.564932,26.9503481 237.65,27.1618043 237.65,27.4145833 L237.65,29.63125 C237.65,29.8937513 237.564932,30.107638 237.394792,30.2729167 C237.224652,30.4381953 237.008335,30.5208333 236.745833,30.5208333 L236.279167,30.5208333 C236.055555,30.5208333 235.690975,30.5062501 235.185417,30.4770833 C234.679859,30.4479165 234.295835,30.4333333 234.033333,30.4333333 C232.720827,30.4333333 231.466673,31.1527706 230.270833,32.5916667 L230.270833,41.9104167 C230.270833,42.172918 230.185765,42.3868047 230.015625,42.5520833 C229.845485,42.7173619 229.634029,42.8 229.38125,42.8 L226.114583,42.8 C225.852082,42.8 225.638195,42.7173619 225.472917,42.5520833 C225.307638,42.3868047 225.225,42.172918 225.225,41.9104167 Z" id="Trender"></path>
            </g>
            <g id="Group-5" transform="translate(17.187092, 7.434407)">
                <g id="Logo">
                    <g id="Group-3" transform="translate(0.000000, 5.678633)">
                        <g id="Fill-1-Clipped">
                            <mask id="mask-2" fill="white">
                                <use xlink:href="#path-1"></use>
                            </mask>
                            <g id="path-1"></g>
                            <path d="M0.0716171115,0.0183557993 L0.0716171115,10.9580947 C0.0716171115,18.6827991 -0.825705248,25.8985491 3.732145,32.610907 C5.50689938,35.2250693 7.86256454,37.4569596 10.576679,39.0089925 C12.8831121,40.3258773 15.4478374,41.1504947 18.1365599,41.2991483 L18.1365599,32.4940978 C14.2994171,32.0628771 11.9790185,30.2718025 10.576679,27.7549812 C7.51004001,22.2538236 8.82477737,13.2844058 8.23639008,7.47050538 C8.17714226,6.88910143 7.83294063,4.04396278 5.51536336,1.93444404 C3.62846131,0.219017338 1.5454772,-0.000138992492 0.555756451,6.60935804e-08 C0.335552049,6.60935804e-08 0.169376017,0.0108466357 0.0716171115,0.0183557993" id="Fill-1" fill="#345A7E" fill-rule="nonzero" mask="url(#mask-2)"></path>
                        </g>
                    </g>
                    <g id="Group-6" transform="translate(49.745993, 6.194872)">
                        <g id="Fill-4-Clipped">
                            <mask id="mask-4" fill="white">
                                <use xlink:href="#path-3"></use>
                            </mask>
                            <g id="path-3"></g>
                            <path d="M6.94472257e-13,8.04037144 C0.463481044,8.08606324 0.921152635,8.16360083 1.37173953,8.27284576 C1.9171197,8.40313661 2.4498891,8.58022693 2.96721386,8.80314751 C3.55935305,9.05929848 4.12896289,9.37374112 4.67037563,9.74896768 C4.97076689,9.95804226 5.26407346,10.1851166 5.54448586,10.4301908 C5.74285745,10.6032658 5.93711991,10.786033 6.12401429,10.9771078 C6.76461282,11.6305004 7.29865747,12.3201696 7.74215966,13.0386385 C11.2604215,18.7265748 9.13217771,26.2380291 9.61252034,32.6128653 C9.65502854,33.1665668 9.93133182,36.1699024 12.3457974,38.3506472 C14.5535315,40.3443325 17.0388441,40.2875639 17.6183725,40.2584873 L17.6183725,23.7872873 C17.6183725,19.5048584 17.589892,15.4824573 15.8357204,11.4894097 C15.138586,9.90404287 14.2389708,8.41269035 13.1691812,7.06422853 C12.5625892,6.29563715 11.9008783,5.57578367 11.1911331,4.91103728 C10.8850741,4.6202713 10.5689548,4.34196673 10.2460342,4.07473896 L10.2430586,4.07210822 C9.79955641,3.70657385 9.34202651,3.36042388 8.86876858,3.03781211 C8.29901705,2.64721649 7.7082948,2.28998972 7.10028588,1.96737795 C4.96651607,0.836298321 2.60872807,0.135690787 0.133334045,-2.32071307e-13 L6.94472257e-13,8.04037144 Z" id="Fill-4" fill="#345A7E" fill-rule="nonzero" mask="url(#mask-4)"></path>
                        </g>
                    </g>
                    <g id="Group-14" transform="translate(8.809186, 0.000000)">
                        <path d="M52.3369301,10.6075105 L46.644368,16.00342 C46.3615256,15.7639477 46.0658266,15.541803 45.7629852,15.337392 C45.2172992,14.9705352 44.6430432,14.6632418 44.0459313,14.4128044 L49.9956229,8.77606902 C50.472741,9.0914847 50.9341457,9.42991354 51.3812654,9.78715902 L51.3841224,9.78986645 C51.7098198,10.0512689 52.0283747,10.3232303 52.3369301,10.6075105" id="Fill-7" fill-opacity="0.432914402" fill="#A1A1A1" fill-rule="nonzero"></path>
                        <path d="M9.32737369,37.9243505 C8.73935991,37.9186864 7.96450973,37.8385606 7.11464716,37.5386413 C6.79709472,37.4264651 6.51288111,37.2992308 6.26214526,37.1692335 C5.60592578,37.2551615 3.89453205,37.5676523 2.33357982,38.9536913 C0.537588779,40.5488863 0.108212315,42.5292379 5.60690383e-13,43.1423387 C0.627742556,43.5605127 1.25548511,43.9784104 1.88308876,44.3965844 L9.32737369,37.9243505 Z" id="Fill-9" fill-opacity="0.142153533" fill="#000000" fill-rule="nonzero" opacity="0.260379464"></path>
                        <g id="Group-13" transform="translate(1.554562, 0.000000)">
                            <g id="Fill-11-Clipped">
                                <mask id="mask-6" fill="white">
                                    <use xlink:href="#path-5"></use>
                                </mask>
                                <g id="path-5"></g>
                                <path d="M50.1311244,9.84451106 L50.1281519,9.84174458 L40.1250278,2.66217604e-13 L40.0287745,5.77363905 L40.0265097,5.90670663 C39.6572084,5.88927782 39.2853593,5.88263828 38.9119531,5.89135268 C31.0800487,6.07380189 23.9912763,12.2445688 21.7264928,20.3903242 C20.5403124,24.6603826 21.0965999,29.247341 18.5727818,33.09399 C16.4457254,36.3315989 12.8076338,38.4581904 8.8894168,38.2623237 C8.65048214,38.2347973 8.41267987,38.2158469 8.17657619,38.204366 C8.14515232,38.2010463 8.11217141,38.1989714 8.08117219,38.1955133 L8.08117219,38.1999397 C5.32025955,38.0916321 2.79077947,39.0800946 1.32235047,40.9831546 C0.382606863,42.2008198 0.0929976726,43.5132368 -3.61710661e-13,44.3850923 C0.872224747,44.9542951 2.09025362,45.6261342 3.63879935,46.1431889 C5.39513895,46.7298205 6.95430084,46.9096416 8.08117219,46.9540435 C8.34445327,46.9680142 8.60914984,46.9761753 8.8752619,46.9775586 C16.6406383,47.0190558 24.1894449,41.2550994 26.7090165,33.2684164 C27.7621408,29.9320443 27.9702178,26.3493173 28.8492369,22.9548491 C29.7792136,19.368249 31.6901247,15.9224627 35.289715,14.5780928 C36.7939559,14.0159445 38.3645833,13.8023724 39.8935952,13.9323969 L39.7895567,20.1456293 L44.5611725,15.513024 L50.2641804,9.97591875 L50.1311244,9.84451106 Z" id="Fill-11" fill="#67C0ED" fill-rule="nonzero" mask="url(#mask-6)"></path>
                            </g>
                        </g>
                    </g>
                </g>
            </g>
        </g>
    </g>
</svg>