<?xml version="1.0" encoding="UTF-8"?>
<svg width="95px" height="32px" viewBox="0 0 95 32" version="1.1" xmlns="http://www.w3.org/2000/svg" xmlns:xlink="http://www.w3.org/1999/xlink">
    <!-- Generator: Sketch 51.2 (57519) - http://www.bohemiancoding.com/sketch -->
    <title>Trender Logo Text</title>
    <desc>Created with Sketch.</desc>
    <defs></defs>
    <g id="Page-1" stroke="none" stroke-width="1" fill="none" fill-rule="evenodd">
        <g id="Trender-Logo-Text" fill="#FFFFFF">
            <g id="Group-18-Copy-2" fill-rule="nonzero">
                <path d="M0,0 L94.844878,0 L94.844878,12.4504976 L91.5252449,12.4504976 L91.5252449,3.31953951 L3.31963317,3.31953951 L3.31963317,28.0522302 L91.5252449,28.0522302 L91.5252449,25.0655532 L94.844878,25.0655532 L94.844878,31.3719571 L0,31.3719571 L0,0 Z M91.5252449,21.9101128 L91.5252449,15.6038025 L94.8449717,15.6038025 L94.8449717,21.9101128 L91.5252449,21.9101128 Z" id="Combined-Shape"></path>
            </g>
            <g id="Trender" transform="translate(9.000000, 9.000000)">
                <path d="M0.17195122,2.29603657 L0.17195122,1.48786584 C0.17195122,1.25286466 0.249328495,1.05798856 0.404085366,0.903231692 C0.558842238,0.748474821 0.753718338,0.671097546 0.988719513,0.671097546 L11.8990244,0.671097546 C12.1340256,0.671097546 12.3289017,0.748474821 12.4836586,0.903231692 C12.6384154,1.05798856 12.7157927,1.25286466 12.7157927,1.48786584 L12.7157927,2.29603657 C12.7157927,2.53103775 12.6384154,2.72448094 12.4836586,2.87637194 C12.3289017,3.02826294 12.1340256,3.1042073 11.8990244,3.1042073 L8.06451221,3.1042073 L8.06451221,12.2090244 C8.06451221,12.4325621 7.98570202,12.6202736 7.82807928,12.7721646 C7.67045654,12.9240556 7.47987918,13 7.25634147,13 L5.63140245,13 C5.40786474,13 5.21728738,12.9240556 5.05966464,12.7721646 C4.9020419,12.6202736 4.82323171,12.4325621 4.82323171,12.2090244 L4.82323171,3.1042073 L0.988719513,3.1042073 C0.753718338,3.1042073 0.558842238,3.02826294 0.404085366,2.87637194 C0.249328495,2.72448094 0.17195122,2.53103775 0.17195122,2.29603657 Z M12.5352439,12.4755488 L12.5352439,4.11012194 C12.5352439,3.95536507 12.5853959,3.82783586 12.6857012,3.72753048 C12.7860066,3.6272251 12.91067,3.57707316 13.0596951,3.57707316 L14.9855488,3.57707316 C15.1403057,3.57707316 15.266402,3.6272251 15.3638415,3.72753048 C15.461281,3.82783586 15.51,3.95536507 15.51,4.11012194 L15.51,4.65176828 C16.0946371,4.22761982 16.6577717,3.91381198 17.1994208,3.71033535 C17.7410698,3.50685873 18.4503615,3.40512194 19.3273171,3.40512194 C19.482074,3.40512194 19.6096032,3.45527388 19.7099086,3.55557926 C19.8102139,3.65588464 19.8603659,3.78054802 19.8603659,3.92957316 L19.8603659,5.23640243 C19.8603659,5.3911593 19.8102139,5.5172556 19.7099086,5.61469511 C19.6096032,5.71213462 19.482074,5.76085365 19.3273171,5.76085365 L19.0521951,5.76085365 C18.9203652,5.76085365 18.7054283,5.75225617 18.4073781,5.73506097 C18.1093278,5.71786576 17.8829276,5.70926828 17.7281708,5.70926828 C16.9543864,5.70926828 16.2150035,6.13341038 15.51,6.98170731 L15.51,12.4755488 C15.51,12.6303057 15.4598481,12.756402 15.3595427,12.8538415 C15.2592373,12.951281 15.1345739,13 14.9855488,13 L13.0596951,13 C12.9049383,13 12.778842,12.951281 12.6814025,12.8538415 C12.5839629,12.756402 12.5352439,12.6303057 12.5352439,12.4755488 Z M21.7088415,11.9167073 C20.8261541,11.0798739 20.3848171,9.87479445 20.3848171,8.30143292 C20.3848171,6.72807139 20.82902,5.51869324 21.7174391,4.67326218 C22.6058581,3.82783113 23.8352971,3.40512194 25.4057927,3.40512194 C26.9877518,3.40512194 28.2200566,3.81636783 29.1027439,4.63887194 C29.9854313,5.46137605 30.4267683,6.64066304 30.4267683,8.17676829 L30.4267683,8.66682926 C30.4267683,8.82158613 30.3766164,8.94911535 30.276311,9.04942073 C30.1760056,9.14972611 30.0484764,9.19987804 29.8937195,9.19987804 L23.4197561,9.19987804 C23.4770735,9.90488157 23.6791141,10.4178642 24.0258842,10.7388415 C24.3726542,11.0598187 24.9042647,11.2203049 25.6207317,11.2203049 C26.4289065,11.2203049 26.9906082,11.0282946 27.3058537,10.6442683 C27.5523183,10.3404863 27.8818882,10.1857317 28.2945732,10.18 L29.5756098,10.18 C29.7303667,10.18 29.8578959,10.2301519 29.9582013,10.3304573 C30.0585066,10.4307627 30.1086586,10.5582919 30.1086586,10.7130488 C30.1086586,12.358057 28.5410523,13.177683 25.4057927,13.1719512 C23.8238336,13.1719512 22.5915288,12.7535408 21.7088415,11.9167073 Z M23.402561,7.38579268 L27.4004269,7.38579268 C27.3431095,6.03310298 26.679671,5.35676828 25.4100915,5.35676828 C24.140512,5.35676828 23.4713418,6.03310298 23.402561,7.38579268 Z M32.0087196,12.4755488 L32.0087196,4.11012194 C32.0087196,3.95536507 32.0588715,3.82783586 32.1591769,3.72753048 C32.2594822,3.6272251 32.3841456,3.57707316 32.5331708,3.57707316 L34.4590244,3.57707316 C34.6137813,3.57707316 34.7398776,3.6272251 34.8373171,3.72753048 C34.9347566,3.82783586 34.9834757,3.95536507 34.9834757,4.11012194 L34.9834757,4.65176828 C35.9693342,3.82066656 36.972373,3.40512194 37.992622,3.40512194 C39.2020183,3.40512194 40.156338,3.7447222 40.8556098,4.42393292 C41.5548816,5.10314363 41.9045122,6.14200519 41.9045122,7.54054877 L41.9045122,12.4755488 C41.9045122,12.6303057 41.8543603,12.756402 41.7540549,12.8538415 C41.6537496,12.951281 41.5262203,13 41.3714635,13 L39.4542074,13 C39.2994505,13 39.1733542,12.9498481 39.0759147,12.8495427 C38.9784752,12.7492373 38.9297561,12.6245739 38.9297561,12.4755488 L38.9297561,7.54054877 C38.9297561,6.16493214 38.3823836,5.47999996 37.287622,5.4857317 C36.571155,5.4857317 35.8031139,5.89554467 34.9834757,6.71518292 L34.9834757,12.4755488 C34.9834757,12.6303057 34.9333237,12.756402 34.8330183,12.8538415 C34.732713,12.951281 34.6080496,13 34.4590244,13 L32.5331708,13 C32.3784139,13 32.2523176,12.951281 32.1548781,12.8538415 C32.0574386,12.756402 32.0087196,12.6303057 32.0087196,12.4755488 Z M43.4778659,8.29713414 C43.4778659,6.71517501 43.8948434,5.50436395 44.728811,4.66466462 C45.5627786,3.8249653 46.6847491,3.40512194 48.0947562,3.40512194 C48.8226866,3.40512194 49.6509101,3.55127901 50.5794513,3.84359755 L50.5794513,1.20414633 C50.5794513,1.04938946 50.6296032,0.921860243 50.7299086,0.821554863 C50.830214,0.721249483 50.9548774,0.671097546 51.1039025,0.671097546 L53.0211586,0.671097546 C53.1759155,0.671097546 53.3034447,0.721249483 53.4037501,0.821554863 C53.5040554,0.921860243 53.5542074,1.04938946 53.5542074,1.20414633 L53.5542074,12.4755488 C53.5542074,12.6303057 53.5040554,12.756402 53.4037501,12.8538415 C53.3034447,12.951281 53.1759155,13 53.0211586,13 L51.3704269,13 C51.21567,13 51.0895737,12.9498481 50.9921342,12.8495427 C50.8946947,12.7492373 50.8459757,12.6245739 50.8459757,12.4755488 L50.8459757,12.2090244 C49.9403614,12.8567106 48.9344568,13.177683 47.8282318,13.1719512 C46.5385912,13.1719512 45.4911321,12.749242 44.6858232,11.903811 C43.8805143,11.0583799 43.4778659,9.85616633 43.4778659,8.29713414 Z M46.5471952,8.29713414 C46.5471952,9.27152926 46.7019497,9.98225386 47.0114635,10.4293293 C47.3209772,10.8764047 47.8282282,11.099939 48.5332318,11.099939 C49.072015,11.099939 49.7540813,10.8420148 50.5794513,10.3261585 L50.5794513,5.82963414 C49.8400573,5.59463296 49.2181733,5.47999996 48.7137805,5.4857317 C47.9285327,5.4857317 47.3711298,5.70783314 47.0415549,6.15204267 C46.7119801,6.59625221 46.5471952,7.31127555 46.5471952,8.29713414 Z M56.4515854,11.9167073 C55.5688981,11.0798739 55.127561,9.87479445 55.127561,8.30143292 C55.127561,6.72807139 55.5717639,5.51869324 56.460183,4.67326218 C57.3486021,3.82783113 58.578041,3.40512194 60.1485367,3.40512194 C61.7304958,3.40512194 62.9628005,3.81636783 63.8454879,4.63887194 C64.7281752,5.46137605 65.1695123,6.64066304 65.1695123,8.17676829 L65.1695123,8.66682926 C65.1695123,8.82158613 65.1193603,8.94911535 65.019055,9.04942073 C64.9187496,9.14972611 64.7912204,9.19987804 64.6364635,9.19987804 L58.1625001,9.19987804 C58.2198174,9.90488157 58.4218581,10.4178642 58.7686281,10.7388415 C59.1153981,11.0598187 59.6470087,11.2203049 60.3634757,11.2203049 C61.1716505,11.2203049 61.7333522,11.0282946 62.0485976,10.6442683 C62.2950623,10.3404863 62.6246322,10.1857317 63.0373172,10.18 L64.3183537,10.18 C64.4731106,10.18 64.6006398,10.2301519 64.7009452,10.3304573 C64.8012506,10.4307627 64.8514025,10.5582919 64.8514025,10.7130488 C64.8514025,12.358057 63.2837962,13.177683 60.1485367,13.1719512 C58.5665775,13.1719512 57.3342728,12.7535408 56.4515854,11.9167073 Z M58.145305,7.38579268 L62.1431708,7.38579268 C62.0858534,6.03310298 61.422415,5.35676828 60.1528354,5.35676828 C58.8832559,5.35676828 58.2140858,6.03310298 58.145305,7.38579268 Z M66.7514635,12.4755488 L66.7514635,4.11012194 C66.7514635,3.95536507 66.8016154,3.82783586 66.9019208,3.72753048 C67.0022262,3.6272251 67.1268896,3.57707316 67.2759147,3.57707316 L69.2017684,3.57707316 C69.3565253,3.57707316 69.4826216,3.6272251 69.5800611,3.72753048 C69.6775006,3.82783586 69.7262196,3.95536507 69.7262196,4.11012194 L69.7262196,4.65176828 C70.3108567,4.22761982 70.8739913,3.91381198 71.4156403,3.71033535 C71.9572894,3.50685873 72.6665811,3.40512194 73.5435367,3.40512194 C73.6982935,3.40512194 73.8258228,3.45527388 73.9261281,3.55557926 C74.0264335,3.65588464 74.0765855,3.78054802 74.0765855,3.92957316 L74.0765855,5.23640243 C74.0765855,5.3911593 74.0264335,5.5172556 73.9261281,5.61469511 C73.8258228,5.71213462 73.6982935,5.76085365 73.5435367,5.76085365 L73.2684147,5.76085365 C73.1365848,5.76085365 72.9216479,5.75225617 72.6235977,5.73506097 C72.3255474,5.71786576 72.0991472,5.70926828 71.9443903,5.70926828 C71.170606,5.70926828 70.4312231,6.13341038 69.7262196,6.98170731 L69.7262196,12.4755488 C69.7262196,12.6303057 69.6760677,12.756402 69.5757623,12.8538415 C69.4754569,12.951281 69.3507935,13 69.2017684,13 L67.2759147,13 C67.1211578,13 66.9950615,12.951281 66.897622,12.8538415 C66.8001825,12.756402 66.7514635,12.6303057 66.7514635,12.4755488 Z"></path>
            </g>
        </g>
    </g>
</svg>