<?xml version="1.0" encoding="UTF-8"?>
<svg width="130px" height="102px" viewBox="0 0 130 102" version="1.1" xmlns="http://www.w3.org/2000/svg" xmlns:xlink="http://www.w3.org/1999/xlink">
    <!-- Generator: Sketch 52.2 (67145) - http://www.bohemiancoding.com/sketch -->
    <title>if_84_2497118</title>
    <desc>Created with Sketch.</desc>
    <g id="Page-1" stroke="none" stroke-width="1" fill="none" fill-rule="evenodd">
        <g id="Unleash-Trender---Home-3" transform="translate(-1145.000000, -374.000000)" fill-rule="nonzero">
            <g id="Chart" transform="translate(528.000000, 62.000000)">
                <g id="New-Trend" transform="translate(2.000000, 0.000000)">
                    <g id="Group-8" transform="translate(550.000000, 312.000000)">
                        <g id="if_84_2497118" transform="translate(65.000000, 0.000000)">
                            <g id="Group" fill="#345A7E">
                                <path d="M128.8,101.8 L112.8,101.8 C112.4,101.8 112,101.5 112,101 C112,100.5 112.3,100.2 112.8,100.2 L128.8,100.2 C129.2,100.2 129.6,100.5 129.6,101 C129.6,101.5 129.2,101.8 128.8,101.8 Z M100.7,101.8 L32.5,101.8 C32.1,101.8 31.7,101.5 31.7,101 C31.7,100.5 32,100.2 32.5,100.2 L100.7,100.2 C101.1,100.2 101.5,100.5 101.5,101 C101.5,101.5 101.2,101.8 100.7,101.8 Z M21.1,101.8 L0.8,101.8 C0.4,101.8 1.42108547e-14,101.5 1.42108547e-14,101 C1.42108547e-14,100.5 0.3,100.2 0.8,100.2 L21.2,100.2 C21.6,100.2 22,100.5 22,101 C22,101.5 21.5,101.8 21.1,101.8 Z" id="Combined-Shape"></path>
                                <path d="M120.7,65.8 C118.2,65.8 116.2,63.8 116.2,61.3 C116.2,58.8 118.2,56.8 120.7,56.8 C123.2,56.8 125.2,58.8 125.2,61.3 C125.2,63.7 123.2,65.8 120.7,65.8 Z M120.7,58.3 C119,58.3 117.7,59.6 117.7,61.3 C117.7,63 119,64.3 120.7,64.3 C122.4,64.3 123.7,63 123.7,61.3 C123.7,59.6 122.4,58.3 120.7,58.3 Z" id="Shape"></path>
                                <path d="M13.3,21.7 C13,21.7 12.7,21.5 12.6,21.2 C12.5,20.8 12.7,20.4 13.1,20.3 L15.7,19.5 C16.1,19.4 16.5,19.6 16.6,20 C16.7,20.4 16.5,20.8 16.1,20.9 L13.5,21.7 C13.5,21.7 13.4,21.7 13.3,21.7 Z M19.9,19.6 C19.6,19.6 19.3,19.4 19.2,19.1 C19.1,18.7 19.3,18.3 19.7,18.2 L22.3,17.4 C22.7,17.3 23.1,17.5 23.2,17.9 C23.3,18.3 23.1,18.7 22.7,18.8 L20.1,19.6 C20,19.6 20,19.6 19.9,19.6 Z M17.2,18.2 C16.9,18.2 16.6,18 16.5,17.7 L15.7,15.1 C15.6,14.7 15.8,14.3 16.2,14.2 C16.6,14.1 17,14.3 17.1,14.7 L17.9,17.3 C18,17.7 17.8,18.1 17.4,18.2 C17.4,18.2 17.3,18.2 17.2,18.2 Z M19.4,24.8 C19.1,24.8 18.8,24.6 18.7,24.3 L17.9,21.7 C17.8,21.3 18,20.9 18.4,20.8 C18.8,20.7 19.2,20.9 19.3,21.3 L20.1,23.9 C20.2,24.3 20,24.7 19.6,24.8 C19.5,24.8 19.4,24.8 19.4,24.8 Z" id="Combined-Shape"></path>
                                <path d="M102.9,17.1 C102.6,17.1 102.3,16.9 102.2,16.6 C102.1,16.2 102.3,15.8 102.7,15.7 L105.3,14.9 C105.7,14.8 106.1,15 106.2,15.4 C106.3,15.8 106.1,16.2 105.7,16.3 L103.1,17.1 C103.1,17.1 103,17.1 102.9,17.1 Z M109.5,15 C109.2,15 108.9,14.8 108.8,14.5 C108.7,14.1 108.9,13.7 109.3,13.6 L111.9,12.8 C112.3,12.7 112.7,12.9 112.8,13.3 C112.9,13.7 112.7,14.1 112.3,14.2 L109.7,15 C109.7,15 109.6,15 109.5,15 Z M106.9,13.7 C106.6,13.7 106.3,13.5 106.2,13.2 L105.4,10.6 C105.3,10.2 105.5,9.8 105.9,9.7 C106.3,9.6 106.7,9.8 106.8,10.2 L107.6,12.8 C107.7,13.2 107.5,13.6 107.1,13.7 C107,13.6 106.9,13.7 106.9,13.7 Z M109,20.3 C108.7,20.3 108.4,20.1 108.3,19.8 L107.5,17.2 C107.4,16.8 107.6,16.4 108,16.3 C108.4,16.2 108.8,16.4 108.9,16.8 L109.7,19.4 C109.8,19.8 109.6,20.2 109.2,20.3 C109.1,20.2 109.1,20.3 109,20.3 Z" id="Combined-Shape"></path>
                                <path d="M64.8,9.7 C62.3,9.7 60.3,7.7 60.3,5.2 C60.3,2.7 62.3,0.7 64.8,0.7 C67.3,0.7 69.3,2.7 69.3,5.2 C69.3,7.7 67.2,9.7 64.8,9.7 Z M64.8,2.2 C63.1,2.2 61.8,3.5 61.8,5.2 C61.8,6.9 63.1,8.2 64.8,8.2 C66.5,8.2 67.8,6.9 67.8,5.2 C67.8,3.5 66.4,2.2 64.8,2.2 Z" id="Shape"></path>
                            </g>
                            <path d="M63.9,84.9021277 L51.3,99.2 C51,99.7 50.4,99.7 50,99.3 C49.6,99 49.6,98.4 49.9,98 L63.9224835,82.087962 C63.9566732,82.0363395 63.9974983,81.9883665 64.0451876,81.9451876 C64.2133021,81.7595119 64.4540899,81.6778908 64.7,81.6868141 C64.7934921,81.6834215 64.8862437,81.6931166 64.9745428,81.7166416 C65.2801477,81.7758205 65.5287458,81.9877788 65.6388044,82.2709838 L79.5,98 C79.8,98.4 79.8,99 79.4,99.3 C79.1,99.7 78.5,99.7 78.2,99.3 L65.7,85.1274648 L65.7,96.3 C65.7,96.8 65.3,97.3 64.8,97.3 C64.3,97.3 63.9,96.9 63.9,96.4 L63.9,84.9021277 Z" id="Combined-Shape" fill="#F26A64"></path>
                            <g id="Group" transform="translate(25.000000, 28.000000)">
                                <path d="M59.1,0.8 L77,0.8 C77.5,0.8 77.9,1.2 77.9,1.7 L77.9,52.5 C77.9,53 77.5,53.4 77,53.4 L2.5,53.4 C2,53.4 1.6,53 1.6,52.5 L1.6,1.8 C1.6,1.3 2,0.9 2.5,0.9 L53.5,0.9" id="Shape"></path>
                                <path d="M77,54.3 L2.5,54.3 C1.6,54.3 0.8,53.6 0.8,52.6 L0.8,1.8 C0.8,0.9 1.6,0.1 2.5,0.1 L53.5,0.1 C53.9,0.1 54.3,0.4 54.3,0.9 C54.3,1.4 54,1.7 53.5,1.7 L2.5,1.7 C2.4,1.7 2.3,1.8 2.3,1.9 L2.3,52.8 C2.3,52.9 2.4,53 2.5,53 L77,53 C77.1,53 77.2,52.9 77.2,52.8 L77.2,1.8 C77.2,1.7 77.1,1.6 77,1.6 L59.1,1.6 C58.7,1.6 58.3,1.3 58.3,0.8 C58.3,0.3 58.6,0 59.1,0 L77,0 C77.9,0 78.7,0.8 78.7,1.7 L78.7,52.6 C78.7,53.5 78,54.3 77,54.3 Z" id="Shape" fill="#345A7E"></path>
                            </g>
                            <path d="M59.5,61.8 L53,53.7 C52.7,53.3 52.7,52.7 53.1,52.4 C53.5,52.1 54.1,52.1 54.4,52.5 L60.9,60.6 C61.2,61 61.2,61.6 60.8,61.9 C60.4,62.3 59.8,62.2 59.5,61.8 Z" id="Shape" fill="#E3E3E5"></path>
                            <path d="M75.1,60.3 L68.3,50.3 C68,49.9 68.1,49.3 68.5,49 C68.9,48.7 69.5,48.8 69.8,49.2 L76.6,59.2 C76.9,59.6 76.8,60.2 76.4,60.5 C76,60.8 75.4,60.7 75.1,60.3 Z" id="Shape" fill="#E3E3E5"></path>
                            <path d="M78.1,60.2 C77.6,60 77.4,59.4 77.6,59 L83,46.3 C83.2,45.8 83.8,45.6 84.2,45.8 C84.7,46 84.9,46.6 84.7,47 L79.3,59.7 C79.1,60.2 78.5,60.4 78.1,60.2 Z" id="Shape" fill="#E3E3E5"></path>
                            <path d="M62.5,61.7 C62,61.5 61.8,61 61.9,60.5 L65.8,49.8 C66,49.3 66.5,49.1 67,49.2 C67.5,49.4 67.7,49.9 67.6,50.4 L63.7,61.1 C63.5,61.6 63,61.8 62.5,61.7 Z" id="Shape" fill="#E3E3E5"></path>
                            <path d="M45.4,65.2 C45,65 44.8,64.4 45,63.9 L50.3,53 C50.5,52.5 51.1,52.3 51.6,52.6 C52.1,52.8 52.3,53.4 52,53.9 L46.7,64.8 C46.5,65.2 45.9,65.4 45.4,65.2 Z" id="Shape" fill="#E3E3E5"></path>
                            <path d="M52.4,54.6 C50.6,54.8 48.8,53.4 48.6,51.4 C48.4,49.5 49.8,47.8 51.8,47.6 C53.8,47.4 55.4,48.9 55.6,50.8 C55.8,52.8 54.3,54.5 52.4,54.6 Z" id="Shape" fill="#B9B9B9"></path>
                            <path d="M65.3,62.8 C65.5,64.8 63.9,66.6 61.8,66.6 C60,66.6 58.5,65.2 58.3,63.4 C58.1,61.5 59.5,59.8 61.5,59.6 C63.5,59.5 65.2,60.9 65.3,62.8 Z" id="Shape" fill="#89C7ED"></path>
                            <path d="M67.5,51.2 C65.7,51.2 64.2,49.8 64,48 C63.8,46.1 65.2,44.4 67.2,44.2 C69.1,44 70.8,45.5 71,47.4 C71.2,49.3 69.6,51.2 67.5,51.2 Z" id="Shape" fill="#6DC392"></path>
                            <path d="M80.9,61.4 C81.1,63.4 79.5,65.2 77.4,65.2 C75.6,65.2 74.1,63.8 73.9,62 C73.7,60.1 75.1,58.4 77.1,58.2 C79.1,58.1 80.8,59.5 80.9,61.4 Z" id="Shape" fill="#F1DF6F"></path>
                            <path d="M88.3,44 C88.5,46.1 86.8,47.8 84.8,47.8 C83,47.8 81.5,46.4 81.3,44.6 C81.1,42.6 82.6,41 84.5,40.8 C86.4,40.7 88.1,42.1 88.3,44 Z" id="Shape" fill="#F26A64"></path>
                            <path d="M48.2,66.3 C48.4,68.3 46.8,70.1 44.7,70.1 C42.9,70.1 41.4,68.7 41.2,66.9 C41,65 42.4,63.3 44.4,63.1 C46.3,63 48,64.4 48.2,66.3 Z" id="Shape" fill="#535C7B"></path>
                            <path d="M50,36.7 L33.7,36.7 C33.2,36.7 32.8,36.3 32.8,35.8 C32.8,35.3 33.2,34.9 33.7,34.9 L50,34.9 C50.5,34.9 50.9,35.3 50.9,35.8 C50.9,36.3 50.6,36.7 50,36.7 Z" id="Shape" fill="#E3E3E5"></path>
                            <path d="M50,42.7 L33.7,42.7 C33.2,42.7 32.8,42.3 32.8,41.8 C32.8,41.3 33.2,40.9 33.7,40.9 L50,40.9 C50.5,40.9 50.9,41.3 50.9,41.8 C51,42.3 50.6,42.7 50,42.7 Z" id="Shape" fill="#E3E3E5"></path>
                            <path d="M95.9,76.8 L74.1,76.8 C73.6,76.8 73.2,76.4 73.2,75.9 C73.2,75.4 73.6,75 74.1,75 L96,75 C96.5,75 96.9,75.4 96.9,75.9 C96.9,76.4 96.5,76.8 95.9,76.8 Z" id="Shape" fill="#E3E3E5"></path>
                        </g>
                    </g>
                </g>
            </g>
        </g>
    </g>
</svg>