<svg xmlns="http://www.w3.org/2000/svg" width="32" height="32" viewBox="0 0 32 32">
    <g fill="none" fill-rule="evenodd" transform="translate(1 1)">
        <path fill="#4A4A70" fill-rule="nonzero" d="M15.274 10.655a5.581 5.581 0 0 0 3.58-1.286c-.368-1.412-1.83-1.957-3.58-1.957s-3.212.545-3.58 1.957a5.581 5.581 0 0 0 3.58 1.286z"/>
        <path stroke="#3BAFDA" stroke-width="1.137" d="M15.274 4.735c5.386 0 9.957 3.376 11.584 8.063"/>
        <path fill="#E3F0F5" fill-rule="nonzero" d="M23.91 12.554l3.583 4.02 1.803-5.017z"/>
        <path stroke="#3BAFDA" stroke-width="1.137" d="M8.096 26.156c-3.055-2.152-5.041-5.642-5.041-9.582 0-2.707.938-5.201 2.515-7.195"/>
        <path fill="#E3F0F5" fill-rule="nonzero" d="M7.006 11.884l1.436-5.126-5.3 1.357z"/>
        <path stroke="#3BAFDA" stroke-width="1.137" d="M27.124 19.472c-1.334 5.138-6.133 8.94-11.85 8.94-.139 0-.277-.001-.415-.006"/>
        <path fill="#E3F0F5" fill-rule="nonzero" d="M16.129 25.82l-5.143 1.843 4.219 3.394z"/>
        <ellipse cx="15.274" cy="4.632" fill="#FFF" fill-rule="nonzero" rx="2.152" ry="2.085"/>
        <path fill="#6BD1F6" fill-rule="nonzero" d="M15.274 0c-3.037 0-5.499 2.385-5.499 5.327 0 2.943 2.462 5.328 5.499 5.328 3.037 0 5.499-2.385 5.499-5.328C20.773 2.385 18.31 0 15.274 0z"/>
        <path fill="#3BAFDA" fill-rule="nonzero" d="M15.274 10.655a5.581 5.581 0 0 0 3.58-1.286c-.368-1.412-1.83-1.957-3.58-1.957s-3.212.545-3.58 1.957a5.581 5.581 0 0 0 3.58 1.286z"/>
        <ellipse cx="15.274" cy="4.632" fill="#FFF" fill-rule="nonzero" rx="2.152" ry="2.085"/>
        <path fill="#4A4A70" fill-rule="nonzero" d="M5.499 28.413a5.581 5.581 0 0 0 3.58-1.286C8.71 25.715 7.25 25.17 5.5 25.17s-3.212.545-3.581 1.957a5.581 5.581 0 0 0 3.58 1.286z"/>
        <ellipse cx="5.499" cy="22.391" fill="#FFF" fill-rule="nonzero" rx="2.152" ry="2.085"/>
        <path fill="#6BD1F6" fill-rule="nonzero" d="M5.499 17.758C2.462 17.758 0 20.143 0 23.085c0 2.943 2.462 5.328 5.499 5.328 3.037 0 5.498-2.385 5.498-5.328 0-2.942-2.461-5.327-5.498-5.327z"/>
        <path fill="#3BAFDA" fill-rule="nonzero" d="M5.499 28.413a5.581 5.581 0 0 0 3.58-1.286C8.71 25.715 7.25 25.17 5.5 25.17s-3.212.545-3.581 1.957a5.581 5.581 0 0 0 3.58 1.286z"/>
        <ellipse cx="5.499" cy="22.391" fill="#FFF" fill-rule="nonzero" rx="2.152" ry="2.085"/>
        <path fill="#4A4A70" fill-rule="nonzero" d="M25.05 28.413a5.581 5.581 0 0 0 3.58-1.286c-.369-1.412-1.83-1.957-3.58-1.957-1.751 0-3.212.545-3.581 1.957a5.581 5.581 0 0 0 3.58 1.286z"/>
        <ellipse cx="25.049" cy="22.391" fill="#FFF" fill-rule="nonzero" rx="2.152" ry="2.085"/>
        <path fill="#6BD1F6" fill-rule="nonzero" d="M25.05 17.758c-3.038 0-5.5 2.385-5.5 5.327 0 2.943 2.462 5.328 5.5 5.328 3.037 0 5.498-2.385 5.498-5.328 0-2.942-2.461-5.327-5.499-5.327z"/>
        <path fill="#3BAFDA" fill-rule="nonzero" d="M25.05 28.413a5.581 5.581 0 0 0 3.58-1.286c-.369-1.412-1.83-1.957-3.58-1.957-1.751 0-3.212.545-3.581 1.957a5.581 5.581 0 0 0 3.58 1.286z"/>
        <ellipse cx="25.049" cy="22.391" fill="#FFF" fill-rule="nonzero" rx="2.152" ry="2.085"/>
    </g>
</svg>
