<?xml version="1.0" encoding="UTF-8"?>
<svg width="60px" height="60px" viewBox="0 0 60 60" version="1.1" xmlns="http://www.w3.org/2000/svg" xmlns:xlink="http://www.w3.org/1999/xlink">
    <!-- Generator: Sketch 51.1 (57501) - http://www.bohemiancoding.com/sketch -->
    <title>Icons/Trender/LineGraph3/Active</title>
    <desc>Created with Sketch.</desc>
    <defs></defs>
    <g id="Icons/Trender/LineGraph3/Active" stroke="none" stroke-width="1" fill="none" fill-rule="evenodd">
        <g id="Icons/LineGraph-Copy-3">
            <g id="Line-Graph">
                <rect id="Rectangle-6-Copy-6" x="0" y="0" width="60" height="60"></rect>
                <g transform="translate(0.937500, 0.937500)" fill-rule="nonzero">
                    <polygon id="Shape" fill="#788D9A" points="51.820497 56.019685 51.820497 54.3033957 50.1957431 54.3033957 50.1957431 56.019685 41.3740157 56.019685 41.3740157 54.3033957 39.7492618 54.3033957 39.7492618 56.019685 30.9275344 56.019685 30.9275344 54.3033957 29.3027805 54.3033957 29.3027805 56.019685 20.4810531 56.019685 20.4810531 54.3033957 18.8562992 54.3033957 18.8562992 56.019685 10.0345719 56.019685 10.0345719 54.3033957 8.40981791 54.3033957 8.40981791 56.019685 2.10531496 56.019685 2.10531496 49.7151821 4.40514272 49.7151821 4.40514272 48.0904281 2.10531496 48.0904281 2.10531496 39.2687008 4.40514272 39.2687008 4.40514272 37.6439469 2.10531496 37.6439469 2.10531496 28.8222195 4.40514272 28.8222195 4.40514272 27.1974656 2.10531496 27.1974656 2.10531496 18.3757382 4.40514272 18.3757382 4.40514272 16.7509843 2.10531496 16.7509843 2.10531496 7.92925689 4.40514272 7.92925689 4.40514272 6.30450295 2.10531496 6.30450295 2.10531496 0 0 0 0 58.125 58.125 58.125 58.125 56.019685"></polygon>
                    <g id="Group-2" transform="translate(29.100000, 28.800000) rotate(90.000000) translate(-29.100000, -28.800000) translate(2.100000, 6.300000)" fill="#DBDFE0">
                        <g id="Group" transform="translate(0.064222, 0.150738)">
                            <rect id="Rectangle-path" x="0.0572096457" y="0.102977362" width="1" height="1"></rect>
                            <path d="M50.4932333,0.629306102 L49.4520177,0.629306102 L49.4520177,0.102977362 L50.4932333,0.102977362 L50.4932333,0.629306102 Z M48.4108022,0.629306102 L47.3695866,0.629306102 L47.3695866,0.102977362 L48.4108022,0.102977362 L48.4108022,0.629306102 Z M46.339813,0.629306102 L45.2985974,0.629306102 L45.2985974,0.102977362 L46.339813,0.102977362 L46.339813,0.629306102 Z M44.2573819,0.629306102 L43.2161663,0.629306102 L43.2161663,0.102977362 L44.2573819,0.102977362 L44.2573819,0.629306102 Z M42.1749508,0.629306102 L41.1337352,0.629306102 L41.1337352,0.102977362 L42.1749508,0.102977362 L42.1749508,0.629306102 Z M40.0925197,0.629306102 L39.0513041,0.629306102 L39.0513041,0.102977362 L40.0925197,0.102977362 L40.0925197,0.629306102 Z M38.0215305,0.629306102 L36.980315,0.629306102 L36.980315,0.102977362 L38.0215305,0.102977362 L38.0215305,0.629306102 Z M35.9390994,0.629306102 L34.8978839,0.629306102 L34.8978839,0.102977362 L35.9390994,0.102977362 L35.9390994,0.629306102 Z M33.8566683,0.629306102 L32.8154528,0.629306102 L32.8154528,0.102977362 L33.8566683,0.102977362 L33.8566683,0.629306102 Z M31.7742372,0.629306102 L30.7330217,0.629306102 L30.7330217,0.102977362 L31.7742372,0.102977362 L31.7742372,0.629306102 Z M29.703248,0.629306102 L28.6620325,0.629306102 L28.6620325,0.102977362 L29.703248,0.102977362 L29.703248,0.629306102 Z M27.6208169,0.629306102 L26.5796014,0.629306102 L26.5796014,0.102977362 L27.6208169,0.102977362 L27.6208169,0.629306102 Z M25.5383858,0.629306102 L24.4971703,0.629306102 L24.4971703,0.102977362 L25.5383858,0.102977362 L25.5383858,0.629306102 Z M23.4559547,0.629306102 L22.4147392,0.629306102 L22.4147392,0.102977362 L23.4559547,0.102977362 L23.4559547,0.629306102 Z M21.3735236,0.629306102 L20.3323081,0.629306102 L20.3323081,0.102977362 L21.3735236,0.102977362 L21.3735236,0.629306102 Z M19.3025344,0.629306102 L18.2613189,0.629306102 L18.2613189,0.102977362 L19.3025344,0.102977362 L19.3025344,0.629306102 Z M17.2201033,0.629306102 L16.1788878,0.629306102 L16.1788878,0.102977362 L17.2201033,0.102977362 L17.2201033,0.629306102 Z M15.1376722,0.629306102 L14.0964567,0.629306102 L14.0964567,0.102977362 L15.1376722,0.102977362 L15.1376722,0.629306102 Z M13.0552411,0.629306102 L12.0140256,0.629306102 L12.0140256,0.102977362 L13.0552411,0.102977362 L13.0552411,0.629306102 Z M10.984252,0.629306102 L9.94303642,0.629306102 L9.94303642,0.102977362 L10.984252,0.102977362 L10.984252,0.629306102 Z M8.90182087,0.629306102 L7.86060531,0.629306102 L7.86060531,0.102977362 L8.90182087,0.102977362 L8.90182087,0.629306102 Z M6.81938976,0.629306102 L5.77817421,0.629306102 L5.77817421,0.102977362 L6.81938976,0.102977362 L6.81938976,0.629306102 Z M4.73695866,0.629306102 L3.69574311,0.629306102 L3.69574311,0.102977362 L4.73695866,0.102977362 L4.73695866,0.629306102 Z M2.66596949,0.629306102 L1.62475394,0.629306102 L1.62475394,0.102977362 L2.66596949,0.102977362 L2.66596949,0.629306102 Z" id="Shape"></path>
                            <rect id="Rectangle-path" x="51.5344488" y="0.102977362" width="1" height="1"></rect>
                        </g>
                        <g id="Group" transform="translate(0.064222, 10.677313)">
                            <rect id="Rectangle-path" x="0.0572096457" y="0.0228838583" width="1" height="1"></rect>
                            <path d="M50.4932333,0.549212598 L49.4520177,0.549212598 L49.4520177,0.0228838583 L50.4932333,0.0228838583 L50.4932333,0.549212598 Z M48.4108022,0.549212598 L47.3695866,0.549212598 L47.3695866,0.0228838583 L48.4108022,0.0228838583 L48.4108022,0.549212598 Z M46.339813,0.549212598 L45.2985974,0.549212598 L45.2985974,0.0228838583 L46.339813,0.0228838583 L46.339813,0.549212598 Z M44.2573819,0.549212598 L43.2161663,0.549212598 L43.2161663,0.0228838583 L44.2573819,0.0228838583 L44.2573819,0.549212598 Z M42.1749508,0.549212598 L41.1337352,0.549212598 L41.1337352,0.0228838583 L42.1749508,0.0228838583 L42.1749508,0.549212598 Z M40.0925197,0.549212598 L39.0513041,0.549212598 L39.0513041,0.0228838583 L40.0925197,0.0228838583 L40.0925197,0.549212598 Z M38.0215305,0.549212598 L36.980315,0.549212598 L36.980315,0.0228838583 L38.0215305,0.0228838583 L38.0215305,0.549212598 Z M35.9390994,0.549212598 L34.8978839,0.549212598 L34.8978839,0.0228838583 L35.9390994,0.0228838583 L35.9390994,0.549212598 Z M33.8566683,0.549212598 L32.8154528,0.549212598 L32.8154528,0.0228838583 L33.8566683,0.0228838583 L33.8566683,0.549212598 Z M31.7742372,0.549212598 L30.7330217,0.549212598 L30.7330217,0.0228838583 L31.7742372,0.0228838583 L31.7742372,0.549212598 Z M29.703248,0.549212598 L28.6620325,0.549212598 L28.6620325,0.0228838583 L29.703248,0.0228838583 L29.703248,0.549212598 Z M27.6208169,0.549212598 L26.5796014,0.549212598 L26.5796014,0.0228838583 L27.6208169,0.0228838583 L27.6208169,0.549212598 Z M25.5383858,0.549212598 L24.4971703,0.549212598 L24.4971703,0.0228838583 L25.5383858,0.0228838583 L25.5383858,0.549212598 Z M23.4559547,0.549212598 L22.4147392,0.549212598 L22.4147392,0.0228838583 L23.4559547,0.0228838583 L23.4559547,0.549212598 Z M21.3735236,0.549212598 L20.3323081,0.549212598 L20.3323081,0.0228838583 L21.3735236,0.0228838583 L21.3735236,0.549212598 Z M19.3025344,0.549212598 L18.2613189,0.549212598 L18.2613189,0.0228838583 L19.3025344,0.0228838583 L19.3025344,0.549212598 Z M17.2201033,0.549212598 L16.1788878,0.549212598 L16.1788878,0.0228838583 L17.2201033,0.0228838583 L17.2201033,0.549212598 Z M15.1376722,0.549212598 L14.0964567,0.549212598 L14.0964567,0.0228838583 L15.1376722,0.0228838583 L15.1376722,0.549212598 Z M13.0552411,0.549212598 L12.0140256,0.549212598 L12.0140256,0.0228838583 L13.0552411,0.0228838583 L13.0552411,0.549212598 Z M10.984252,0.549212598 L9.94303642,0.549212598 L9.94303642,0.0228838583 L10.984252,0.0228838583 L10.984252,0.549212598 Z M8.90182087,0.549212598 L7.86060531,0.549212598 L7.86060531,0.0228838583 L8.90182087,0.0228838583 L8.90182087,0.549212598 Z M6.81938976,0.549212598 L5.77817421,0.549212598 L5.77817421,0.0228838583 L6.81938976,0.0228838583 L6.81938976,0.549212598 Z M4.73695866,0.549212598 L3.69574311,0.549212598 L3.69574311,0.0228838583 L4.73695866,0.0228838583 L4.73695866,0.549212598 Z M2.66596949,0.549212598 L1.62475394,0.549212598 L1.62475394,0.0228838583 L2.66596949,0.0228838583 L2.66596949,0.549212598 Z" id="Shape"></path>
                            <rect id="Rectangle-path" x="51.5344488" y="0.0228838583" width="1" height="1"></rect>
                        </g>
                        <g id="Group" transform="translate(0.064222, 31.501624)">
                            <rect id="Rectangle-path" x="0.0572096457" y="0.0915354331" width="1" height="1"></rect>
                            <path d="M50.4932333,0.617864173 L49.4520177,0.617864173 L49.4520177,0.0915354331 L50.4932333,0.0915354331 L50.4932333,0.617864173 Z M48.4108022,0.617864173 L47.3695866,0.617864173 L47.3695866,0.0915354331 L48.4108022,0.0915354331 L48.4108022,0.617864173 Z M46.339813,0.617864173 L45.2985974,0.617864173 L45.2985974,0.0915354331 L46.339813,0.0915354331 L46.339813,0.617864173 Z M44.2573819,0.617864173 L43.2161663,0.617864173 L43.2161663,0.0915354331 L44.2573819,0.0915354331 L44.2573819,0.617864173 Z M42.1749508,0.617864173 L41.1337352,0.617864173 L41.1337352,0.0915354331 L42.1749508,0.0915354331 L42.1749508,0.617864173 Z M40.0925197,0.617864173 L39.0513041,0.617864173 L39.0513041,0.0915354331 L40.0925197,0.0915354331 L40.0925197,0.617864173 Z M38.0215305,0.617864173 L36.980315,0.617864173 L36.980315,0.0915354331 L38.0215305,0.0915354331 L38.0215305,0.617864173 Z M35.9390994,0.617864173 L34.8978839,0.617864173 L34.8978839,0.0915354331 L35.9390994,0.0915354331 L35.9390994,0.617864173 Z M33.8566683,0.617864173 L32.8154528,0.617864173 L32.8154528,0.0915354331 L33.8566683,0.0915354331 L33.8566683,0.617864173 Z M31.7742372,0.617864173 L30.7330217,0.617864173 L30.7330217,0.0915354331 L31.7742372,0.0915354331 L31.7742372,0.617864173 Z M29.703248,0.617864173 L28.6620325,0.617864173 L28.6620325,0.0915354331 L29.703248,0.0915354331 L29.703248,0.617864173 Z M27.6208169,0.617864173 L26.5796014,0.617864173 L26.5796014,0.0915354331 L27.6208169,0.0915354331 L27.6208169,0.617864173 Z M25.5383858,0.617864173 L24.4971703,0.617864173 L24.4971703,0.0915354331 L25.5383858,0.0915354331 L25.5383858,0.617864173 Z M23.4559547,0.617864173 L22.4147392,0.617864173 L22.4147392,0.0915354331 L23.4559547,0.0915354331 L23.4559547,0.617864173 Z M21.3735236,0.617864173 L20.3323081,0.617864173 L20.3323081,0.0915354331 L21.3735236,0.0915354331 L21.3735236,0.617864173 Z M19.3025344,0.617864173 L18.2613189,0.617864173 L18.2613189,0.0915354331 L19.3025344,0.0915354331 L19.3025344,0.617864173 Z M17.2201033,0.617864173 L16.1788878,0.617864173 L16.1788878,0.0915354331 L17.2201033,0.0915354331 L17.2201033,0.617864173 Z M15.1376722,0.617864173 L14.0964567,0.617864173 L14.0964567,0.0915354331 L15.1376722,0.0915354331 L15.1376722,0.617864173 Z M13.0552411,0.617864173 L12.0140256,0.617864173 L12.0140256,0.0915354331 L13.0552411,0.0915354331 L13.0552411,0.617864173 Z M10.984252,0.617864173 L9.94303642,0.617864173 L9.94303642,0.0915354331 L10.984252,0.0915354331 L10.984252,0.617864173 Z M8.90182087,0.617864173 L7.86060531,0.617864173 L7.86060531,0.0915354331 L8.90182087,0.0915354331 L8.90182087,0.617864173 Z M6.81938976,0.617864173 L5.77817421,0.617864173 L5.77817421,0.0915354331 L6.81938976,0.0915354331 L6.81938976,0.617864173 Z M4.73695866,0.617864173 L3.69574311,0.617864173 L3.69574311,0.0915354331 L4.73695866,0.0915354331 L4.73695866,0.617864173 Z M2.66596949,0.617864173 L1.62475394,0.617864173 L1.62475394,0.0915354331 L2.66596949,0.0915354331 L2.66596949,0.617864173 Z" id="Shape"></path>
                            <rect id="Rectangle-path" x="51.5344488" y="0.0915354331" width="1" height="1"></rect>
                        </g>
                        <g id="Group" transform="translate(0.064222, 21.089469)">
                            <rect id="Rectangle-path" x="0.0572096457" y="0.0572096457" width="1" height="1"></rect>
                            <path d="M50.4932333,0.583538386 L49.4520177,0.583538386 L49.4520177,0.0572096457 L50.4932333,0.0572096457 L50.4932333,0.583538386 Z M48.4108022,0.583538386 L47.3695866,0.583538386 L47.3695866,0.0572096457 L48.4108022,0.0572096457 L48.4108022,0.583538386 Z M46.339813,0.583538386 L45.2985974,0.583538386 L45.2985974,0.0572096457 L46.339813,0.0572096457 L46.339813,0.583538386 Z M44.2573819,0.583538386 L43.2161663,0.583538386 L43.2161663,0.0572096457 L44.2573819,0.0572096457 L44.2573819,0.583538386 Z M42.1749508,0.583538386 L41.1337352,0.583538386 L41.1337352,0.0572096457 L42.1749508,0.0572096457 L42.1749508,0.583538386 Z M40.0925197,0.583538386 L39.0513041,0.583538386 L39.0513041,0.0572096457 L40.0925197,0.0572096457 L40.0925197,0.583538386 Z M38.0215305,0.583538386 L36.980315,0.583538386 L36.980315,0.0572096457 L38.0215305,0.0572096457 L38.0215305,0.583538386 Z M35.9390994,0.583538386 L34.8978839,0.583538386 L34.8978839,0.0572096457 L35.9390994,0.0572096457 L35.9390994,0.583538386 Z M33.8566683,0.583538386 L32.8154528,0.583538386 L32.8154528,0.0572096457 L33.8566683,0.0572096457 L33.8566683,0.583538386 Z M31.7742372,0.583538386 L30.7330217,0.583538386 L30.7330217,0.0572096457 L31.7742372,0.0572096457 L31.7742372,0.583538386 Z M29.703248,0.583538386 L28.6620325,0.583538386 L28.6620325,0.0572096457 L29.703248,0.0572096457 L29.703248,0.583538386 Z M27.6208169,0.583538386 L26.5796014,0.583538386 L26.5796014,0.0572096457 L27.6208169,0.0572096457 L27.6208169,0.583538386 Z M25.5383858,0.583538386 L24.4971703,0.583538386 L24.4971703,0.0572096457 L25.5383858,0.0572096457 L25.5383858,0.583538386 Z M23.4559547,0.583538386 L22.4147392,0.583538386 L22.4147392,0.0572096457 L23.4559547,0.0572096457 L23.4559547,0.583538386 Z M21.3735236,0.583538386 L20.3323081,0.583538386 L20.3323081,0.0572096457 L21.3735236,0.0572096457 L21.3735236,0.583538386 Z M19.3025344,0.583538386 L18.2613189,0.583538386 L18.2613189,0.0572096457 L19.3025344,0.0572096457 L19.3025344,0.583538386 Z M17.2201033,0.583538386 L16.1788878,0.583538386 L16.1788878,0.0572096457 L17.2201033,0.0572096457 L17.2201033,0.583538386 Z M15.1376722,0.583538386 L14.0964567,0.583538386 L14.0964567,0.0572096457 L15.1376722,0.0572096457 L15.1376722,0.583538386 Z M13.0552411,0.583538386 L12.0140256,0.583538386 L12.0140256,0.0572096457 L13.0552411,0.0572096457 L13.0552411,0.583538386 Z M10.984252,0.583538386 L9.94303642,0.583538386 L9.94303642,0.0572096457 L10.984252,0.0572096457 L10.984252,0.583538386 Z M8.90182087,0.583538386 L7.86060531,0.583538386 L7.86060531,0.0572096457 L8.90182087,0.0572096457 L8.90182087,0.583538386 Z M6.81938976,0.583538386 L5.77817421,0.583538386 L5.77817421,0.0572096457 L6.81938976,0.0572096457 L6.81938976,0.583538386 Z M4.73695866,0.583538386 L3.69574311,0.583538386 L3.69574311,0.0572096457 L4.73695866,0.0572096457 L4.73695866,0.583538386 Z M2.66596949,0.583538386 L1.62475394,0.583538386 L1.62475394,0.0572096457 L2.66596949,0.0572096457 L2.66596949,0.583538386 Z" id="Shape"></path>
                            <rect id="Rectangle-path" x="51.5344488" y="0.0572096457" width="1" height="1"></rect>
                        </g>
                        <g id="Group" transform="translate(0.064222, 42.028199)">
                            <rect id="Rectangle-path" x="0.0572096457" y="0.0114419291" width="1" height="1"></rect>
                            <path d="M50.4932333,0.537770669 L49.4520177,0.537770669 L49.4520177,0.0114419291 L50.4932333,0.0114419291 L50.4932333,0.537770669 Z M48.4108022,0.537770669 L47.3695866,0.537770669 L47.3695866,0.0114419291 L48.4108022,0.0114419291 L48.4108022,0.537770669 Z M46.339813,0.537770669 L45.2985974,0.537770669 L45.2985974,0.0114419291 L46.339813,0.0114419291 L46.339813,0.537770669 Z M44.2573819,0.537770669 L43.2161663,0.537770669 L43.2161663,0.0114419291 L44.2573819,0.0114419291 L44.2573819,0.537770669 Z M42.1749508,0.537770669 L41.1337352,0.537770669 L41.1337352,0.0114419291 L42.1749508,0.0114419291 L42.1749508,0.537770669 Z M40.0925197,0.537770669 L39.0513041,0.537770669 L39.0513041,0.0114419291 L40.0925197,0.0114419291 L40.0925197,0.537770669 Z M38.0215305,0.537770669 L36.980315,0.537770669 L36.980315,0.0114419291 L38.0215305,0.0114419291 L38.0215305,0.537770669 Z M35.9390994,0.537770669 L34.8978839,0.537770669 L34.8978839,0.0114419291 L35.9390994,0.0114419291 L35.9390994,0.537770669 Z M33.8566683,0.537770669 L32.8154528,0.537770669 L32.8154528,0.0114419291 L33.8566683,0.0114419291 L33.8566683,0.537770669 Z M31.7742372,0.537770669 L30.7330217,0.537770669 L30.7330217,0.0114419291 L31.7742372,0.0114419291 L31.7742372,0.537770669 Z M29.703248,0.537770669 L28.6620325,0.537770669 L28.6620325,0.0114419291 L29.703248,0.0114419291 L29.703248,0.537770669 Z M27.6208169,0.537770669 L26.5796014,0.537770669 L26.5796014,0.0114419291 L27.6208169,0.0114419291 L27.6208169,0.537770669 Z M25.5383858,0.537770669 L24.4971703,0.537770669 L24.4971703,0.0114419291 L25.5383858,0.0114419291 L25.5383858,0.537770669 Z M23.4559547,0.537770669 L22.4147392,0.537770669 L22.4147392,0.0114419291 L23.4559547,0.0114419291 L23.4559547,0.537770669 Z M21.3735236,0.537770669 L20.3323081,0.537770669 L20.3323081,0.0114419291 L21.3735236,0.0114419291 L21.3735236,0.537770669 Z M19.3025344,0.537770669 L18.2613189,0.537770669 L18.2613189,0.0114419291 L19.3025344,0.0114419291 L19.3025344,0.537770669 Z M17.2201033,0.537770669 L16.1788878,0.537770669 L16.1788878,0.0114419291 L17.2201033,0.0114419291 L17.2201033,0.537770669 Z M15.1376722,0.537770669 L14.0964567,0.537770669 L14.0964567,0.0114419291 L15.1376722,0.0114419291 L15.1376722,0.537770669 Z M13.0552411,0.537770669 L12.0140256,0.537770669 L12.0140256,0.0114419291 L13.0552411,0.0114419291 L13.0552411,0.537770669 Z M10.984252,0.537770669 L9.94303642,0.537770669 L9.94303642,0.0114419291 L10.984252,0.0114419291 L10.984252,0.537770669 Z M8.90182087,0.537770669 L7.86060531,0.537770669 L7.86060531,0.0114419291 L8.90182087,0.0114419291 L8.90182087,0.537770669 Z M6.81938976,0.537770669 L5.77817421,0.537770669 L5.77817421,0.0114419291 L6.81938976,0.0114419291 L6.81938976,0.537770669 Z M4.73695866,0.537770669 L3.69574311,0.537770669 L3.69574311,0.0114419291 L4.73695866,0.0114419291 L4.73695866,0.537770669 Z M2.66596949,0.537770669 L1.62475394,0.537770669 L1.62475394,0.0114419291 L2.66596949,0.0114419291 L2.66596949,0.537770669 Z" id="Shape"></path>
                            <rect id="Rectangle-path" x="51.5344488" y="0.0114419291" width="1" height="1"></rect>
                        </g>
                    </g>
                </g>
                <polygon id="Shape" fill="#445C6C" fill-rule="nonzero" points="30.7887767 34.3412634 15 41.257751 15 39.8961614 30.3310995 32.9796739 51.331242 16.1323505 52.3495737 17.0362629"></polygon>
                <path d="M57.8684793,40.7263287 L56.8272638,40.7263287 L56.8272638,40.2 L57.8684793,40.2 L57.8684793,40.7263287 Z M55.7860482,40.7263287 L54.7448327,40.7263287 L54.7448327,40.2 L55.7860482,40.2 L55.7860482,40.7263287 Z M53.7150591,40.7263287 L52.6738435,40.7263287 L52.6738435,40.2 L53.7150591,40.2 L53.7150591,40.7263287 Z M51.632628,40.7263287 L50.5914124,40.7263287 L50.5914124,40.2 L51.632628,40.2 L51.632628,40.7263287 Z M49.5501969,40.7263287 L48.5089813,40.7263287 L48.5089813,40.2 L49.5501969,40.2 L49.5501969,40.7263287 Z M47.4677657,40.7263287 L46.4265502,40.7263287 L46.4265502,40.2 L47.4677657,40.2 L47.4677657,40.7263287 Z M45.3967766,40.7263287 L44.355561,40.7263287 L44.355561,40.2 L45.3967766,40.2 L45.3967766,40.7263287 Z M43.3143455,40.7263287 L42.2731299,40.7263287 L42.2731299,40.2 L43.3143455,40.2 L43.3143455,40.7263287 Z M41.2319144,40.7263287 L40.1906988,40.7263287 L40.1906988,40.2 L41.2319144,40.2 L41.2319144,40.7263287 Z M39.1494833,40.7263287 L38.1082677,40.7263287 L38.1082677,40.2 L39.1494833,40.2 L39.1494833,40.7263287 Z M37.0784941,40.7263287 L36.0372785,40.7263287 L36.0372785,40.2 L37.0784941,40.2 L37.0784941,40.7263287 Z M34.996063,40.7263287 L33.9548474,40.7263287 L33.9548474,40.2 L34.996063,40.2 L34.996063,40.7263287 Z M32.9136319,40.7263287 L31.8724163,40.7263287 L31.8724163,40.2 L32.9136319,40.2 L32.9136319,40.7263287 Z M30.8312008,40.7263287 L29.7899852,40.7263287 L29.7899852,40.2 L30.8312008,40.2 L30.8312008,40.7263287 Z M28.7487697,40.7263287 L27.7075541,40.7263287 L27.7075541,40.2 L28.7487697,40.2 L28.7487697,40.7263287 Z M26.6777805,40.7263287 L25.636565,40.7263287 L25.636565,40.2 L26.6777805,40.2 L26.6777805,40.7263287 Z M24.5953494,40.7263287 L23.5541339,40.7263287 L23.5541339,40.2 L24.5953494,40.2 L24.5953494,40.7263287 Z M22.5129183,40.7263287 L21.4717028,40.7263287 L21.4717028,40.2 L22.5129183,40.2 L22.5129183,40.7263287 Z M20.4304872,40.7263287 L19.3892717,40.7263287 L19.3892717,40.2 L20.4304872,40.2 L20.4304872,40.7263287 Z M18.359498,40.7263287 L17.3182825,40.7263287 L17.3182825,40.2 L18.359498,40.2 L18.359498,40.7263287 Z M16.2770669,40.7263287 L15.2358514,40.7263287 L15.2358514,40.2 L16.2770669,40.2 L16.2770669,40.7263287 Z M14.1946358,40.7263287 L13.1534203,40.7263287 L13.1534203,40.2 L14.1946358,40.2 L14.1946358,40.7263287 Z M12.1122047,40.7263287 L11.0709892,40.7263287 L11.0709892,40.2 L12.1122047,40.2 L12.1122047,40.7263287 Z M10.0412156,40.7263287 L9,40.7263287 L9,40.2 L10.0412156,40.2 L10.0412156,40.7263287 Z" id="Shape" fill="#3BAFDA" fill-rule="nonzero"></path>
                <path d="M17.9411749,40.1027152 C17.8496394,38.7182418 16.7283304,37.5969327 15.343857,37.5053973 C13.6618934,37.4024199 12.2774199,38.7868934 12.3803973,40.468857 C12.4719327,41.8533304 13.5932418,42.9746394 14.9777152,43.0661749 C16.6596788,43.1691522 18.0441522,41.7846788 17.9411749,40.1027152 Z" id="Shape" fill="#3BAFDA" fill-rule="nonzero"></path>
                <path d="M33.5661749,33.6027152 C33.4746394,32.2182418 32.3533304,31.0969327 30.968857,31.0053973 C29.2868934,30.9024199 27.9024199,32.2868934 28.0053973,33.968857 C28.0969327,35.3533304 29.2182418,36.4746394 30.6027152,36.5661749 C32.2846788,36.6691522 33.6691522,35.2846788 33.5661749,33.6027152 Z" id="Shape" fill="#445C6C" fill-rule="nonzero"></path>
                <path d="M44.5661749,24.6027152 C44.4746394,23.2182418 43.3533304,22.0969327 41.968857,22.0053973 C40.2868934,21.9024199 38.9024199,23.2868934 39.0053973,24.968857 C39.0969327,26.3533304 40.2182418,27.4746394 41.6027152,27.5661749 C43.2846788,27.6691522 44.6691522,26.2846788 44.5661749,24.6027152 Z" id="Shape" fill="#445C6C" fill-rule="nonzero"></path>
                <path d="M54.3161749,16.6652152 C54.2246394,15.2807418 53.1033304,14.1594327 51.718857,14.0678973 C50.0368934,13.9649199 48.6524199,15.3493934 48.7553973,17.031357 C48.8469327,18.4158304 49.9682418,19.5371394 51.3527152,19.6286749 C53.0346788,19.7316522 54.4191522,18.3471788 54.3161749,16.6652152 Z" id="Shape" fill="#445C6C" fill-rule="nonzero"></path>
            </g>
        </g>
    </g>
</svg>