<svg xmlns="http://www.w3.org/2000/svg" width="50" height="44" viewBox="0 0 50 44">
    <g fill="none" fill-rule="evenodd">
        <path d="M0-7h50v50H0z"/>
        <g fill-rule="nonzero">
            <path fill="#A9D2E1" d="M41.917.25C37.178 4.345 32.443 8.44 27.7 12.528 21.59 9.353 15.505 6.125 9.397 2.942L0 8.411v12.311c3.07-2.817 6.138-5.638 9.209-8.456 6.09 2.603 12.168 5.236 18.258 7.843 4.688-3.585 9.375-7.175 14.062-10.76 2.82.613 5.647 1.207 8.471 1.813V2.931L41.917.25z" opacity=".321"/>
            <path fill="#6BD1F6" d="M41.928 11.274c-4.739 3.638-9.482 7.276-14.22 10.922-6.061-2.601-12.11-5.224-18.167-7.829L0 23.16v6.039c3.145-1.578 6.29-3.153 9.434-4.735 5.99 4.009 11.995 8.003 17.989 12.007 4.673-5.612 9.345-11.229 14.022-16.842 2.853.878 5.702 1.775 8.555 2.664v-9.288l-8.072-1.73z"/>
            <path fill="#A9D2E1" d="M42.013 21.51c-4.754 5.701-9.511 11.402-14.265 17.104L9.316 26.339 0 31.005v10.88c0 .929.742 1.672 1.668 1.672h46.664c.922 0 1.668-.743 1.668-1.671V23.99l-7.987-2.481z" opacity=".321"/>
        </g>
    </g>
</svg>
