<svg xmlns="http://www.w3.org/2000/svg" width="32" height="32" viewBox="0 0 32 32">
    <g fill="none" fill-rule="evenodd">
        <path d="M0 0h32v32H0z"/>
        <g transform="translate(1.334)">
            <ellipse cx="14.982" cy="17.28" stroke="#3BAFDA" stroke-width=".819" rx="13.796" ry="14.144"/>
            <path fill="#3BAFDA" fill-rule="nonzero" d="M11.61 20.544c0-.128-.062-.192-.124-.32L6.117 22.4a.48.48 0 0 0-.312.448v6.656c.063 0 .188 0 .25-.064l5.181-2.112a.48.48 0 0 0 .312-.448l.063-6.336z"/>
            <path fill="#6BD1F6" fill-rule="nonzero" d="M11.299 20.096L6.055 17.92a.846.846 0 0 0-.562 0l-5.18 2.112c-.188.128-.313.32-.313.512v6.4a.48.48 0 0 0 .312.448l5.244 2.112c.062.064.187.064.25.064v-6.656a.48.48 0 0 1 .311-.448l5.369-2.176c-.063-.128-.125-.192-.187-.192z"/>
            <path fill="#E3F0F5" fill-rule="nonzero" d="M11.299 20.096L6.055 17.92a.846.846 0 0 0-.562 0l-5.18 2.112c-.063 0-.126.064-.188.128l5.743 2.432c.062-.064.125-.192.25-.192l5.368-2.176c-.063-.064-.125-.128-.187-.128z"/>
            <path fill="#3BAFDA" fill-rule="nonzero" d="M29.963 20.544c0-.128-.062-.192-.125-.32L24.47 22.4a.48.48 0 0 0-.312.448v6.656c.062 0 .187 0 .25-.064l5.18-2.112a.48.48 0 0 0 .313-.448l.062-6.336z"/>
            <path fill="#6BD1F6" fill-rule="nonzero" d="M29.651 20.096l-5.244-2.176a.846.846 0 0 0-.561 0l-5.181 2.112a.48.48 0 0 0-.313.448v6.4a.48.48 0 0 0 .313.448l5.243 2.112c.063.064.187.064.25.064v-6.656a.48.48 0 0 1 .312-.448l5.368-2.176c-.062-.064-.125-.128-.187-.128z"/>
            <path fill="#E3F0F5" fill-rule="nonzero" d="M29.651 20.096l-5.244-2.176a.846.846 0 0 0-.561 0l-5.181 2.112c-.063 0-.125.064-.188.128l5.743 2.432c.063-.064.125-.192.25-.192l5.368-2.176c-.062-.064-.125-.128-.187-.128z"/>
            <path fill="#3BAFDA" fill-rule="nonzero" d="M20.787 3.008c0-.128-.062-.192-.125-.32l-5.368 2.176a.48.48 0 0 0-.312.448v6.656c.062 0 .187 0 .25-.064l5.18-2.112a.48.48 0 0 0 .313-.448l.062-6.336z"/>
            <path fill="#6BD1F6" fill-rule="nonzero" d="M20.475 2.496L15.23.384a.846.846 0 0 0-.562 0L9.49 2.496a.48.48 0 0 0-.313.448v6.4a.48.48 0 0 0 .312.448l5.244 2.112c.062.064.187.064.25.064V5.312a.48.48 0 0 1 .312-.448l5.368-2.176-.187-.192z"/>
            <path fill="#E3F0F5" fill-rule="nonzero" d="M20.475 2.496L15.23.384a.846.846 0 0 0-.562 0L9.49 2.496c-.063 0-.126.064-.188.128l5.743 2.432c.062-.064.125-.192.25-.192l5.368-2.176-.187-.192z"/>
        </g>
    </g>
</svg>
