<svg xmlns="http://www.w3.org/2000/svg" width="32" height="32" viewBox="0 0 32 32">
    <g fill="none" fill-rule="nonzero">
        <path fill="#D9DCE1" d="M21.59 5.632l-5.695-2.304a1.044 1.044 0 0 0-.626 0L9.637 5.632c-.063.064-.125.064-.188.128l6.32 2.56s.126-.128.188-.128l5.82-2.368c0-.128-.063-.192-.188-.192z"/>
        <path fill="#6BD1F6" d="M21.59 2.944L15.894.64a1.044 1.044 0 0 0-.626 0L9.637 2.944c-.188.064-.313.256-.313.512v6.912c0 .256.125.448.313.512l5.695 2.304a.554.554 0 0 0 .312.064V6.016c0-.256.126-.448.313-.512l5.82-2.368c0-.128-.063-.192-.188-.192z"/>
        <path fill="#E3F0F5" d="M21.59 2.944L15.894.64a1.044 1.044 0 0 0-.626 0L9.637 2.944c-.063.064-.125.064-.188.128l6.32 2.56s.126-.128.188-.128l5.82-2.368c0-.128-.063-.192-.188-.192z"/>
        <path fill="#3BAFDA" d="M21.965 3.456a.495.495 0 0 0-.125-.32l-5.82 2.368c-.25.064-.376.256-.376.512v7.232c.126 0 .188 0 .313-.064l5.632-2.304c.188-.064.313-.256.313-.512l.063-6.912z"/>
        <path fill="#6BD1F6" d="M30.976 16.96l-5.695-2.304a1.044 1.044 0 0 0-.625 0l-5.632 2.304c-.188.064-.313.256-.313.512v6.912c0 .256.125.448.313.512l5.694 2.304a.554.554 0 0 0 .313.064v-7.232c0-.256.125-.448.313-.512l5.82-2.368c-.063-.128-.125-.192-.188-.192z"/>
        <path fill="#E3F0F5" d="M30.976 16.96l-5.695-2.304a1.044 1.044 0 0 0-.625 0l-5.632 2.304c-.063.064-.126.064-.188.128l6.32 2.56s.125-.128.188-.128l5.82-2.368c-.063-.128-.125-.192-.188-.192z"/>
        <path fill="#3BAFDA" d="M31.289 17.472a.495.495 0 0 0-.125-.32l-5.82 2.368c-.188.064-.313.256-.313.512v7.232c.125 0 .188 0 .313-.064l5.632-2.304c.188-.064.313-.256.313-.512v-6.912z"/>
        <path fill="#6BD1F6" d="M30.976 7.168l-5.695-2.304a1.044 1.044 0 0 0-.625 0l-5.632 2.304c-.188.064-.313.256-.313.512v6.912c0 .256.125.448.313.512l5.694 2.304a.554.554 0 0 0 .313.064V10.24c0-.256.125-.448.313-.512l5.82-2.368c-.063-.128-.125-.192-.188-.192z"/>
        <path fill="#E3F0F5" d="M30.976 7.168l-5.695-2.304a1.044 1.044 0 0 0-.625 0l-5.632 2.304c-.063.064-.126.064-.188.128l6.32 2.56s.125-.128.188-.128l5.82-2.368c-.063-.128-.125-.192-.188-.192z"/>
        <path fill="#3BAFDA" d="M31.289 7.68a.495.495 0 0 0-.125-.32l-5.82 2.368c-.188.064-.313.256-.313.512v7.232c.125 0 .188 0 .313-.064l5.632-2.304c.188-.064.313-.256.313-.512V7.68z"/>
        <g>
            <path fill="#6BD1F6" d="M12.265 16.96l-5.694-2.304a1.044 1.044 0 0 0-.626 0L.313 16.96c-.188.064-.313.256-.313.512v6.848c0 .256.125.448.313.512l5.694 2.304c.126.064.188.064.313.064v-7.232c0-.256.126-.448.313-.512l5.82-2.368c0-.064-.125-.128-.188-.128z"/>
            <path fill="#E3F0F5" d="M12.265 16.96l-5.694-2.304a1.044 1.044 0 0 0-.626 0L.313 16.96c-.063.064-.125.064-.188.128l6.32 2.56s.126-.128.188-.128l5.82-2.368c0-.128-.125-.192-.188-.192z"/>
            <path fill="#3BAFDA" d="M12.578 17.472a.495.495 0 0 0-.125-.32l-5.82 2.368c-.187.064-.313.256-.313.512v7.232c.126 0 .188 0 .313-.064l5.632-2.304c.188-.064.313-.256.313-.512v-6.912z"/>
            <path fill="#6BD1F6" d="M12.265 7.168L6.571 4.864a1.044 1.044 0 0 0-.626 0L.313 7.168A.48.48 0 0 0 0 7.616v6.912c0 .256.125.448.313.512l5.694 2.304c.126.064.188.064.313.064v-7.232c0-.256.126-.448.313-.512l5.82-2.368c0-.064-.125-.128-.188-.128z"/>
            <path fill="#E3F0F5" d="M12.265 7.168L6.571 4.864a1.044 1.044 0 0 0-.626 0L.313 7.168c-.063.064-.125.064-.188.128l6.32 2.56s.126-.128.188-.128l5.82-2.368c0-.128-.125-.192-.188-.192z"/>
            <path fill="#3BAFDA" d="M12.578 7.68a.495.495 0 0 0-.125-.32l-5.82 2.368c-.187.064-.313.256-.313.512v7.232c.126 0 .188 0 .313-.064l5.632-2.304c.188-.064.313-.256.313-.512V7.68z"/>
        </g>
        <g>
            <path fill="#6BD1F6" d="M21.59 21.184l-5.695-2.304a1.044 1.044 0 0 0-.626 0l-5.632 2.304c-.188.064-.313.256-.313.512v6.912c0 .256.125.448.313.512l5.695 2.304a.554.554 0 0 0 .312.064v-7.232c0-.256.126-.448.313-.512l5.82-2.368c0-.128-.063-.192-.188-.192z"/>
            <path fill="#E3F0F5" d="M21.59 21.184l-5.695-2.304a1.044 1.044 0 0 0-.626 0l-5.632 2.304c-.063.064-.125.064-.188.128l6.32 2.56s.126-.128.188-.128l5.82-2.368c0-.128-.063-.192-.188-.192z"/>
            <path fill="#3BAFDA" d="M21.965 21.696a.495.495 0 0 0-.125-.32l-5.82 2.304c-.188.064-.313.256-.313.512v7.232c.125 0 .188 0 .313-.064l5.632-2.304c.188-.064.313-.256.313-.512v-6.848z"/>
            <path fill="#6BD1F6" d="M21.59 11.328l-5.695-2.304a1.044 1.044 0 0 0-.626 0l-5.632 2.304c-.188.064-.313.256-.313.512v6.912c0 .256.125.448.313.512l5.695 2.304a.554.554 0 0 0 .312.064V14.4c0-.256.126-.448.313-.512l5.82-2.368c0-.064-.063-.128-.188-.192z"/>
            <path fill="#E3F0F5" d="M21.59 11.328l-5.695-2.304a1.044 1.044 0 0 0-.626 0l-5.632 2.304c-.063.064-.125.064-.188.128l6.32 2.56s.126-.128.188-.128l5.82-2.368c0-.064-.063-.128-.188-.192z"/>
            <path fill="#3BAFDA" d="M21.965 11.84a.495.495 0 0 0-.125-.32l-5.82 2.368c-.188.064-.313.256-.313.512v7.232c.125 0 .188 0 .313-.064l5.632-2.304c.188-.064.313-.256.313-.512V11.84z"/>
        </g>
    </g>
</svg>
