<svg xmlns="http://www.w3.org/2000/svg" width="48" height="48" viewBox="0 0 48 48">
    <g fill="none" fill-rule="evenodd">
        <path d="M-1-1h50v50H-1z"/>
        <path fill="#A9D2E1" d="M.563 7.774h7.211V.562H.562v7.212zM40.225.562v7.212h7.212V.562h-7.212zM.563 47.438h7.211v-7.212H.562v7.212zm39.663 0h7.212v-7.212h-7.212v7.212zM22.198 45.626h3.604v-3.604h-3.604v3.604zM13.187 5.978h3.604V2.374h-3.604v3.604zm0 39.648h3.604v-3.604h-3.604v3.604zM2.374 25.802h3.604v-3.604H2.374v3.604zm0 9.011h3.604v-3.604H2.374v3.604zm0-18.022h3.604v-3.604H2.374v3.604zm39.648 9.011h3.604v-3.604h-3.604v3.604zM22.198 5.978h3.604V2.374h-3.604v3.604zm19.824 28.835h3.604v-3.604h-3.604v3.604zm0-21.626v3.604h3.604v-3.604h-3.604zM31.209 45.626h3.604v-3.604h-3.604v3.604zm0-39.648h3.604V2.374h-3.604v3.604z" opacity=".598"/>
        <path fill="#6BD1F6" fill-rule="nonzero" d="M24 36.5a3.129 3.129 0 0 1-3.125-3.125v-1.83l-1.295 1.294a3.128 3.128 0 0 1-4.419 0 3.127 3.127 0 0 1 0-4.42l1.294-1.294h-1.83A3.129 3.129 0 0 1 11.5 24a3.129 3.129 0 0 1 3.125-3.125h1.83l-1.294-1.295a3.127 3.127 0 0 1 0-4.419 3.126 3.126 0 0 1 4.42 0l1.294 1.294v-1.83A3.129 3.129 0 0 1 24 11.5a3.129 3.129 0 0 1 3.125 3.125v1.83l1.295-1.294a3.126 3.126 0 0 1 4.419 0 3.127 3.127 0 0 1 0 4.42l-1.294 1.294h1.83A3.129 3.129 0 0 1 36.5 24a3.129 3.129 0 0 1-3.125 3.125h-1.83l1.294 1.295a3.127 3.127 0 0 1 0 4.419 3.128 3.128 0 0 1-4.42 0l-1.294-1.294v1.83A3.129 3.129 0 0 1 24 36.5"/>
    </g>
</svg>
