<svg xmlns="http://www.w3.org/2000/svg" width="50" height="43" viewBox="0 0 50 43">
    <g fill="none" fill-rule="evenodd">
        <path d="M0-4h50v50H0z"/>
        <g fill-rule="nonzero">
            <path fill="#A9D2E1" d="M1.19 42.875c-.657 0-1.19-.64-1.19-1.43V2.118c0-.79.533-1.43 1.19-1.43h47.62c.657 0 1.19.64 1.19 1.43v39.327c0 .79-.533 1.43-1.19 1.43H1.19zm1.191-2.86h45.238V3.548H2.381v36.467z" opacity=".321"/>
            <path fill="#6BD1F6" d="M5.357 6.19v20.318l8.594-11.288 6.752 8.278 3.683-4.515 13.505 16.555h6.752V6.19H5.357zm32.84 4.139c1.187 0 2.149 1.18 2.149 2.634s-.962 2.634-2.148 2.634c-1.187 0-2.149-1.18-2.149-2.634 0-1.455.962-2.634 2.149-2.634z"/>
        </g>
    </g>
</svg>
