<svg xmlns="http://www.w3.org/2000/svg" width="32" height="32" viewBox="0 0 32 32">
    <g fill="none" fill-rule="evenodd">
        <path fill="#6BD1F6" fill-rule="nonzero" d="M29.447 21.062L17.359 16.2a1.553 1.553 0 0 0-1.281 0L4.112 21a1.216 1.216 0 0 0-.732 1.108v4.307c0 .493.305.923.732 1.108l12.088 4.8c.183.062.427.123.61.123v-4.984c0-.493.305-.924.733-1.108l12.392-4.985a1.328 1.328 0 0 0-.488-.307z"/>
        <path fill="#E3F0F5" fill-rule="nonzero" d="M29.508 21.062L17.42 16.2a1.553 1.553 0 0 0-1.282 0L4.112 21c-.183.062-.305.185-.427.308l13.491 5.354s.245-.247.428-.308l12.392-4.985a1.328 1.328 0 0 0-.488-.307z"/>
        <path fill="#3BAFDA" fill-rule="nonzero" d="M30.24 22.17c0-.247-.122-.493-.244-.678l-12.453 4.985a1.216 1.216 0 0 0-.733 1.108v4.984c.244 0 .427-.061.61-.123l12.027-4.8c.427-.184.732-.615.732-1.108l.061-4.369z"/>
        <path fill="#6BD1F6" fill-rule="nonzero" d="M29.447 13.062L17.359 8.2a1.553 1.553 0 0 0-1.281 0L4.112 13a1.216 1.216 0 0 0-.732 1.108v4.307c0 .493.305.923.732 1.108l12.088 4.8c.183.062.427.123.61.123v-4.984c0-.493.305-.924.733-1.108l12.392-4.985a1.328 1.328 0 0 0-.488-.307z"/>
        <path fill="#E3F0F5" fill-rule="nonzero" d="M29.508 13.062L17.42 8.2a1.553 1.553 0 0 0-1.282 0L4.112 13c-.183.062-.305.185-.427.308l13.491 5.354s.245-.247.428-.308l12.392-4.985a1.328 1.328 0 0 0-.488-.307z"/>
        <path fill="#3BAFDA" fill-rule="nonzero" d="M30.24 14.17c0-.247-.122-.493-.244-.678l-12.453 4.985a1.216 1.216 0 0 0-.733 1.108v4.984c.244 0 .427-.061.61-.123l12.027-4.8c.427-.184.732-.615.732-1.108l.061-4.369z"/>
        <g stroke="#3BAFDA" stroke-width=".788" transform="translate(9.484 1)">
            <path d="M7.326 13.538V2.462"/>
            <ellipse cx="7.326" cy="1.231" rx="1.221" ry="1.231"/>
            <ellipse cx="13.43" cy="4.308" rx="1.221" ry="1.231"/>
            <path d="M2.38 4.862l1.283 1.292v5.538"/>
            <ellipse cx="1.221" cy="3.692" rx="1.221" ry="1.231"/>
            <path d="M12.82 5.23l-1.832 1.847v4.615"/>
        </g>
    </g>
</svg>
