<?xml version="1.0" encoding="UTF-8"?>
<svg width="24px" height="24px" viewBox="0 0 24 24" version="1.1" xmlns="http://www.w3.org/2000/svg" xmlns:xlink="http://www.w3.org/1999/xlink">
    <!-- Generator: Sketch 51.1 (57501) - http://www.bohemiancoding.com/sketch -->
    <title>Icons/Trender/PlotSplit1</title>
    <desc>Created with Sketch.</desc>
    <defs>
        <path d="M19.0734982,15.2536162 C19.5954488,14.7265161 20.3195934,14.4 21.12,14.4 C22.7105801,14.4 24,15.6894199 24,17.28 C24,18.8705801 22.7105801,20.16 21.12,20.16 C19.5294199,20.16 18.24,18.8705801 18.24,17.28 C18.24,16.807438 18.3538154,16.3614589 18.5555294,15.9679797 L17.8607479,15.3909317 L15.7971382,18.4832253 L15.4252601,18.2058548 L12.612322,16.1077669 L8.74795299,13.2754444 L7.15527245,15.8157947 L4.00185764,13.5674226 L2.13911935,16.4707505 L2.04065069,16.4075743 L2.04065069,21.6598504 L23.1760316,21.6598504 L23.1760316,22.6399588 L2.04065069,22.6399588 L2.04065069,23.5666917 L1.06054224,23.5666917 L1.06054224,22.6399588 L0.507438737,22.6399588 L0.507438737,21.6598504 L1.06054224,21.6598504 L1.06054224,0.898098811 L2.04065069,0.898098811 L2.04065069,11.2156105 L3.76341023,8.53045834 L4.14123601,8.80737922 L8.50485189,12.0056253 L11.0040023,8.01944149 L13.7896187,10.351117 L16.9563152,5.70716873 L19.2251004,7.43113244 C19.7315263,6.98831378 20.3944291,6.72 21.12,6.72 C22.7105801,6.72 24,8.00941992 24,9.6 C24,11.1905801 22.7105801,12.48 21.12,12.48 C19.5294199,12.48 18.24,11.1905801 18.24,9.6 C18.24,9.05284663 18.3925814,8.54133054 18.6575158,8.10568004 L17.161591,6.96898364 L13.9696151,11.6500041 L11.2134326,9.34296597 L9.21688127,12.5274965 L13.1357812,15.3997948 L15.5798006,17.2227004 L17.6711233,14.0888792 L19.0734982,15.2536162 Z M2.04065069,12.6294754 L2.04065069,14.9937093 L3.76011468,12.3136937 L6.90561948,14.5564259 L8.03592296,12.7535743 L3.99856208,9.79446038 L2.13911935,12.6926517 L2.04065069,12.6294754 Z" id="path-1"></path>
        <path d="M2.12,4.52 C1.05961328,4.52 0.2,3.66038672 0.2,2.6 C0.2,1.53961328 1.05961328,0.68 2.12,0.68 C3.18038672,0.68 4.04,1.53961328 4.04,2.6 C4.04,3.66038672 3.18038672,4.52 2.12,4.52 Z M2.12,12.2 C1.05961328,12.2 0.2,11.3403867 0.2,10.28 C0.2,9.21961328 1.05961328,8.36 2.12,8.36 C3.18038672,8.36 4.04,9.21961328 4.04,10.28 C4.04,11.3403867 3.18038672,12.2 2.12,12.2 Z" id="path-3"></path>
    </defs>
    <g id="Page-1" stroke="none" stroke-width="1" fill="none" fill-rule="evenodd">
        <g id="-Trender----Color-Palette" transform="translate(-33.000000, -411.000000)">
            <g id="Icons/Trender/PlotSplit1" transform="translate(33.000000, 411.000000)">
                <g id="Color/Trender/Primary/4">
                    <mask id="mask-2" fill="white">
                        <use xlink:href="#path-1"></use>
                    </mask>
                    <use id="Mask" fill="#272C36" xlink:href="#path-1"></use>
                    <g id="Color/Black/2" mask="url(#mask-2)" fill="#2D4862">
                        <rect id="Rectangle-Copy" x="0" y="0" width="35" height="35"></rect>
                    </g>
                </g>
                <g id="Color/Trender/Primary/4" transform="translate(19.000000, 7.000000)">
                    <mask id="mask-4" fill="white">
                        <use xlink:href="#path-3"></use>
                    </mask>
                    <use id="Mask" fill="#6BA5FF" xlink:href="#path-3"></use>
                    <g id="Colors/Trender/Primary/5" mask="url(#mask-4)" fill="#94BEFF" fill-rule="nonzero">
                        <g transform="translate(-23.000000, -12.000000)" id="Rectangle-12-Copy-12">
                            <rect x="0" y="0" width="35" height="35"></rect>
                        </g>
                    </g>
                </g>
            </g>
        </g>
    </g>
</svg>