<?xml version="1.0" encoding="UTF-8"?>
<svg width="24px" height="24px" viewBox="0 0 24 24" version="1.1" xmlns="http://www.w3.org/2000/svg" xmlns:xlink="http://www.w3.org/1999/xlink">
    <!-- Generator: Sketch 51.2 (57519) - http://www.bohemiancoding.com/sketch -->
    <title>Icons/Trender/PlotSplit39</title>
    <desc>Created with Sketch.</desc>
    <defs>
        <path d="M18.9336452,15.2475387 C19.4350782,14.7240074 20.1289723,14.4 20.8956318,14.4 C22.4250357,14.4 23.6648625,15.6894199 23.6648625,17.28 C23.6648625,18.8705801 22.4250357,20.16 20.8956318,20.16 C19.3662278,20.16 18.126401,18.8705801 18.126401,17.28 C18.126401,16.8043189 18.2372883,16.3555729 18.4336462,15.9601952 L17.7739739,15.3907276 L15.7885504,18.4830405 L15.4310986,18.2059293 L12.7247526,16.1078401 L9.00647784,13.2752568 L7.47414745,15.815612 L4.44023098,13.567242 L2.64790652,16.4708499 L2.55344084,16.4077804 L2.55344084,21.6784205 L23.3174191,21.6784205 L23.3174191,22.6213887 L2.55344084,22.6213887 L2.55344084,23.5666917 L1.61047266,23.5666917 L1.61047266,22.6213887 L0.648826211,22.6213887 L0.648826211,21.6784205 L1.61047266,21.6784205 L1.61047266,0.898098811 L2.55344084,0.898098811 L2.55344084,11.2159512 L4.21101384,8.5306438 L4.57418275,8.80730603 L8.77278588,12.0058129 L11.1772185,8.01965374 L13.8572661,10.3513201 L16.9039749,5.70735473 L19.0796361,7.42567094 C19.5658114,6.98610857 20.2008403,6.72 20.8956318,6.72 C22.4250357,6.72 23.6648625,8.00941992 23.6648625,9.6 C23.6648625,11.1905801 22.4250357,12.48 20.8956318,12.48 C19.3662278,12.48 18.126401,11.1905801 18.126401,9.6 C18.126401,9.04992488 18.2746849,8.53586866 18.5319486,8.09870754 L17.1013033,6.96879764 L14.0302955,11.6498009 L11.3785454,9.34275373 L9.45754355,12.5274631 L13.2278868,15.3997204 L15.5796267,17.2228853 L17.5916885,14.0890832 L18.9336452,15.2475387 Z M2.55344084,12.6296816 L2.55344084,14.99405 L4.20784614,12.3138744 L7.23415779,14.5566086 L8.32171954,12.7536077 L4.43706328,9.79427492 L2.64790652,12.6927511 L2.55344084,12.6296816 Z" id="path-1"></path>
        <path d="M20.8956318,11.52 C19.8760291,11.52 19.0494779,10.6603867 19.0494779,9.6 C19.0494779,8.53961328 19.8760291,7.68 20.8956318,7.68 C21.9152344,7.68 22.7417856,8.53961328 22.7417856,9.6 C22.7417856,10.6603867 21.9152344,11.52 20.8956318,11.52 Z M20.8956318,19.2 C19.8760291,19.2 19.0494779,18.3403867 19.0494779,17.28 C19.0494779,16.2196133 19.8760291,15.36 20.8956318,15.36 C21.9152344,15.36 22.7417856,16.2196133 22.7417856,17.28 C22.7417856,18.3403867 21.9152344,19.2 20.8956318,19.2 Z" id="path-3"></path>
        <path d="M20.8956318,11.52 C19.8760291,11.52 19.0494779,10.6603867 19.0494779,9.6 C19.0494779,8.53961328 19.8760291,7.68 20.8956318,7.68 C21.9152344,7.68 22.7417856,8.53961328 22.7417856,9.6 C22.7417856,10.6603867 21.9152344,11.52 20.8956318,11.52 Z M20.8956318,19.2 C19.8760291,19.2 19.0494779,18.3403867 19.0494779,17.28 C19.0494779,16.2196133 19.8760291,15.36 20.8956318,15.36 C21.9152344,15.36 22.7417856,16.2196133 22.7417856,17.28 C22.7417856,18.3403867 21.9152344,19.2 20.8956318,19.2 Z" id="path-5"></path>
    </defs>
    <g id="Symbols" stroke="none" stroke-width="1" fill="none" fill-rule="evenodd">
        <g id="Icons/Trender/Yscale1">
            <g id="Icons/Trender/PlotSplit3">
                <rect id="Rectangle" fill-rule="nonzero" x="0" y="0" width="24" height="24"></rect>
                <mask id="mask-2" fill="white">
                    <use xlink:href="#path-1"></use>
                </mask>
                <use id="Mask" fill="#272C36" xlink:href="#path-1"></use>
                <g id="Color/Black/2" mask="url(#mask-2)" fill="#2D4862">
                    <g transform="translate(-3.692308, -3.840000)" id="Rectangle-Copy">
                        <rect x="0" y="0" width="32" height="34"></rect>
                    </g>
                </g>
                <mask id="mask-4" fill="white">
                    <use xlink:href="#path-3"></use>
                </mask>
                <use id="Mask" fill="#6BA5FF" xlink:href="#path-3"></use>
                <g id="Color/Trender/Primary/4" mask="url(#mask-4)" fill="#AFEAFF" fill-rule="nonzero">
                    <g transform="translate(-3.692308, -3.840000)" id="Rectangle-12-Copy-11">
                        <rect x="0" y="0" width="32" height="34"></rect>
                    </g>
                </g>
                <mask id="mask-6" fill="white">
                    <use xlink:href="#path-5"></use>
                </mask>
                <use id="Mask" fill="#6BA5FF" xlink:href="#path-5"></use>
                <g id="Color/Trender/Primary/2" mask="url(#mask-6)" fill="#4FC1E9" fill-rule="nonzero">
                    <rect id="Rectangle-12-Copy-9" x="0" y="0" width="35" height="35"></rect>
                </g>
            </g>
        </g>
    </g>
</svg>