<?xml version="1.0" encoding="UTF-8"?>
<svg width="24px" height="24px" viewBox="0 0 24 24" version="1.1" xmlns="http://www.w3.org/2000/svg" xmlns:xlink="http://www.w3.org/1999/xlink">
    <!-- Generator: Sketch 51.2 (57519) - http://www.bohemiancoding.com/sketch -->
    <title>Group 248</title>
    <desc>Created with Sketch.</desc>
    <defs>
        <path d="M19.1831406,14.1885468 C19.6946388,13.7234722 20.3742151,13.44 21.12,13.44 C22.7105801,13.44 24,14.7294199 24,16.32 C24,17.9105801 22.7105801,19.2 21.12,19.2 C19.5294199,19.2 18.24,17.9105801 18.24,16.32 C18.24,15.795454 18.3802331,15.3036612 18.6252542,14.8800666 L17.554283,14.2317108 L15.0676722,18.966568 L12.1212681,16.3430364 L9.7968259,20.1745445 L4.96896761,20.1745445 L2.86851284,21.6600304 L23.1702717,21.6600304 L23.1702717,22.6397788 L2.03849071,22.6397788 L2.03849071,23.5666917 L1.05874226,23.5666917 L1.05874226,22.6397788 L0.501678792,22.6397788 L0.501678792,21.6600304 L1.05874226,21.6600304 L1.05874226,0.898098811 L2.03849071,0.898098811 L2.03849071,15.9380218 L3.75725921,13.2581059 L6.90160691,15.5008368 L10.9984959,8.96383395 L13.783096,11.2955151 L16.948622,6.65157755 L18.7241521,8.00123111 C19.2406876,7.22870954 20.120936,6.72 21.12,6.72 C22.7105801,6.72 24,8.00941992 24,9.6 C24,11.1905801 22.7105801,12.48 21.12,12.48 C19.5294199,12.48 18.24,11.1905801 18.24,9.6 C18.24,9.32981303 18.2772059,9.06831596 18.3467738,8.82035274 L17.1539316,7.91362423 L13.9631209,12.5946553 L11.2079576,10.2876229 L7.15129954,16.7604332 L3.99904122,14.5120599 L2.13709899,17.4152133 L2.03849071,17.3519708 L2.03849071,21.1686163 L4.68908088,19.2940631 L9.30114266,19.2940631 L11.9169946,14.9822081 L14.8119032,17.5598872 L17.2098195,12.9939169 L19.1831406,14.1885468 Z" id="path-1"></path>
        <path d="M1.92,3.84 C0.85961328,3.84 0,2.98038672 0,1.92 C0,0.85961328 0.85961328,0 1.92,0 C2.98038672,0 3.84,0.85961328 3.84,1.92 C3.84,2.98038672 2.98038672,3.84 1.92,3.84 Z M1.92,10.56 C0.85961328,10.56 0,9.70038672 0,8.64 C0,7.57961328 0.85961328,6.72 1.92,6.72 C2.98038672,6.72 3.84,7.57961328 3.84,8.64 C3.84,9.70038672 2.98038672,10.56 1.92,10.56 Z" id="path-3"></path>
    </defs>
    <g id="Symbols" stroke="none" stroke-width="1" fill="none" fill-rule="evenodd">
        <g id="Icons/Trender/Renderer1">
            <g id="Group-24">
                <rect id="Rectangle" fill-rule="nonzero" x="0" y="0" width="24" height="24"></rect>
                <g id="Colors/Trender/Primary/5">
                    <mask id="mask-2" fill="white">
                        <use xlink:href="#path-1"></use>
                    </mask>
                    <use id="Mask" fill="#272C36" xlink:href="#path-1"></use>
                    <g id="Color/Black/2" mask="url(#mask-2)" fill="#2D4862">
                        <g transform="translate(-2.880000, -3.840000)" id="Rectangle-Copy">
                            <rect x="0" y="0" width="34.0289362" height="34.1581395"></rect>
                        </g>
                    </g>
                </g>
                <g id="Colors/Trender/Primary/5" transform="translate(19.200000, 7.680000)">
                    <mask id="mask-4" fill="white">
                        <use xlink:href="#path-3"></use>
                    </mask>
                    <use id="Mask" fill="#6BA5FF" xlink:href="#path-3"></use>
                    <g id="Color/Trender/Primary/2" mask="url(#mask-4)" fill="#4FC1E9" fill-rule="nonzero">
                        <g transform="translate(-19.200000, -7.680000)" id="Rectangle-12-Copy-9">
                            <rect x="0" y="0" width="35" height="35"></rect>
                        </g>
                    </g>
                </g>
            </g>
        </g>
    </g>
</svg>