<?xml version="1.0" encoding="UTF-8"?>
<svg width="24px" height="24px" viewBox="0 0 24 24" version="1.1" xmlns="http://www.w3.org/2000/svg" xmlns:xlink="http://www.w3.org/1999/xlink">
    <!-- Generator: Sketch 51.2 (57519) - http://www.bohemiancoding.com/sketch -->
    <title>Group 245</title>
    <desc>Created with Sketch.</desc>
    <defs>
        <path d="M2,14.75 L5,17 L8,7 L11.6988102,10 L16,3 L21,7 L23,7 L23,22 L24,22 L24,23 L2,23 L2,24 L1,24 L1,23 L0,23 L0,22 L1,22 L1,0 L2,0 L2,14.75 Z" id="path-1"></path>
        <polygon id="path-3" points="0.157894737 12.1479266 3.64306004 14.8505411 6.54129256 5.02229064 9.85730616 7.5083521 14.2715626 0.548634037 18.4686785 3.98674796 20 3.98674796 20 18 0.157894737 18"></polygon>
    </defs>
    <g id="Symbols" stroke="none" stroke-width="1" fill="none" fill-rule="evenodd">
        <g id="Icons/Trender/Renderer3">
            <g id="Group-24">
                <rect id="Rectangle-6" x="0" y="0" width="24" height="24"></rect>
                <g id="Group">
                    <g id="Colors/Trender/Primary/5">
                        <mask id="mask-2" fill="white">
                            <use xlink:href="#path-1"></use>
                        </mask>
                        <use id="Mask" fill="#CECECE" xlink:href="#path-1"></use>
                        <g id="Color/Black/2" mask="url(#mask-2)" fill="#2D4862">
                            <g transform="translate(-8.000000, -7.000000)" id="Rectangle-Copy">
                                <rect x="0" y="0" width="35" height="35"></rect>
                            </g>
                        </g>
                    </g>
                    <g id="Colors/Trender/Primary/5" transform="translate(2.000000, 4.000000)">
                        <mask id="mask-4" fill="white">
                            <use xlink:href="#path-3"></use>
                        </mask>
                        <use id="Mask" fill="#969696" xlink:href="#path-3"></use>
                        <g id="Color/Trender/Primary/2" mask="url(#mask-4)" fill="#4FC1E9" fill-rule="nonzero">
                            <g transform="translate(-2.000000, -4.000000)" id="Rectangle-12-Copy-9">
                                <rect x="0" y="0" width="35" height="35"></rect>
                            </g>
                        </g>
                    </g>
                </g>
            </g>
        </g>
    </g>
</svg>