<?xml version="1.0" encoding="UTF-8"?>
<svg width="42px" height="42px" viewBox="0 0 42 42" version="1.1" xmlns="http://www.w3.org/2000/svg" xmlns:xlink="http://www.w3.org/1999/xlink">
    <!-- Generator: Sketch 51.1 (57501) - http://www.bohemiancoding.com/sketch -->
    <title>UI/Button/Circular/Medium/Active Copy</title>
    <desc>Created with Sketch.</desc>
    <defs>
        <circle id="path-1" cx="17" cy="17" r="17"></circle>
        <filter x="-20.6%" y="-14.7%" width="141.2%" height="141.2%" filterUnits="objectBoundingBox" id="filter-3">
            <feOffset dx="0" dy="2" in="SourceAlpha" result="shadowOffsetOuter1"></feOffset>
            <feGaussianBlur stdDeviation="2" in="shadowOffsetOuter1" result="shadowBlurOuter1"></feGaussianBlur>
            <feComposite in="shadowBlurOuter1" in2="SourceAlpha" operator="out" result="shadowBlurOuter1"></feComposite>
            <feColorMatrix values="0 0 0 0 0.0705882353   0 0 0 0 0.490196078   0 0 0 0 0.643137255  0 0 0 0.05 0" type="matrix" in="shadowBlurOuter1"></feColorMatrix>
        </filter>
        <path d="M5.07692308,12.6306818 L5.07692308,10.6875 C5.07692308,10.5930398 5.04717548,10.5154474 4.98768029,10.454723 C4.9281851,10.3939986 4.85216346,10.3636364 4.75961538,10.3636364 L1.58653846,10.3636364 C1.49399038,10.3636364 1.41796875,10.3939986 1.35847356,10.454723 C1.29897837,10.5154474 1.26923077,10.5930398 1.26923077,10.6875 L1.26923077,12.6306818 C1.26923077,12.725142 1.29897837,12.8027344 1.35847356,12.8634588 C1.41796875,12.9241832 1.49399038,12.9545455 1.58653846,12.9545455 L4.75961538,12.9545455 C4.85216346,12.9545455 4.9281851,12.9241832 4.98768029,12.8634588 C5.04717548,12.8027344 5.07692308,12.725142 5.07692308,12.6306818 Z M5.07692308,8.74431818 L5.07692308,6.80113636 C5.07692308,6.70667614 5.04717548,6.62908381 4.98768029,6.56835937 C4.9281851,6.50763494 4.85216346,6.47727273 4.75961538,6.47727273 L1.58653846,6.47727273 C1.49399038,6.47727273 1.41796875,6.50763494 1.35847356,6.56835937 C1.29897837,6.62908381 1.26923077,6.70667614 1.26923077,6.80113636 L1.26923077,8.74431818 C1.26923077,8.83877841 1.29897837,8.91637074 1.35847356,8.97709517 C1.41796875,9.0378196 1.49399038,9.06818182 1.58653846,9.06818182 L4.75961538,9.06818182 C4.85216346,9.06818182 4.9281851,9.0378196 4.98768029,8.97709517 C5.04717548,8.91637074 5.07692308,8.83877841 5.07692308,8.74431818 Z M10.1538462,12.6306818 L10.1538462,10.6875 C10.1538462,10.5930398 10.1240986,10.5154474 10.0646034,10.454723 C10.0051082,10.3939986 9.92908654,10.3636364 9.83653846,10.3636364 L6.66346154,10.3636364 C6.57091346,10.3636364 6.49489183,10.3939986 6.43539663,10.454723 C6.37590144,10.5154474 6.34615385,10.5930398 6.34615385,10.6875 L6.34615385,12.6306818 C6.34615385,12.725142 6.37590144,12.8027344 6.43539663,12.8634588 C6.49489183,12.9241832 6.57091346,12.9545455 6.66346154,12.9545455 L9.83653846,12.9545455 C9.92908654,12.9545455 10.0051082,12.9241832 10.0646034,12.8634588 C10.1240986,12.8027344 10.1538462,12.725142 10.1538462,12.6306818 Z M5.07692308,4.85795455 L5.07692308,2.91477273 C5.07692308,2.8203125 5.04717548,2.74272017 4.98768029,2.68199574 C4.9281851,2.62127131 4.85216346,2.59090909 4.75961538,2.59090909 L1.58653846,2.59090909 C1.49399038,2.59090909 1.41796875,2.62127131 1.35847356,2.68199574 C1.29897837,2.74272017 1.26923077,2.8203125 1.26923077,2.91477273 L1.26923077,4.85795455 C1.26923077,4.95241477 1.29897837,5.0300071 1.35847356,5.09073153 C1.41796875,5.15145597 1.49399038,5.18181818 1.58653846,5.18181818 L4.75961538,5.18181818 C4.85216346,5.18181818 4.9281851,5.15145597 4.98768029,5.09073153 C5.04717548,5.0300071 5.07692308,4.95241477 5.07692308,4.85795455 Z M10.1538462,8.74431818 L10.1538462,6.80113636 C10.1538462,6.70667614 10.1240986,6.62908381 10.0646034,6.56835937 C10.0051082,6.50763494 9.92908654,6.47727273 9.83653846,6.47727273 L6.66346154,6.47727273 C6.57091346,6.47727273 6.49489183,6.50763494 6.43539663,6.56835937 C6.37590144,6.62908381 6.34615385,6.70667614 6.34615385,6.80113636 L6.34615385,8.74431818 C6.34615385,8.83877841 6.37590144,8.91637074 6.43539663,8.97709517 C6.49489183,9.0378196 6.57091346,9.06818182 6.66346154,9.06818182 L9.83653846,9.06818182 C9.92908654,9.06818182 10.0051082,9.0378196 10.0646034,8.97709517 C10.1240986,8.91637074 10.1538462,8.83877841 10.1538462,8.74431818 Z M15.2307692,12.6306818 L15.2307692,10.6875 C15.2307692,10.5930398 15.2010216,10.5154474 15.1415264,10.454723 C15.0820312,10.3939986 15.0060096,10.3636364 14.9134615,10.3636364 L11.7403846,10.3636364 C11.6478365,10.3636364 11.5718149,10.3939986 11.5123197,10.454723 C11.4528245,10.5154474 11.4230769,10.5930398 11.4230769,10.6875 L11.4230769,12.6306818 C11.4230769,12.725142 11.4528245,12.8027344 11.5123197,12.8634588 C11.5718149,12.9241832 11.6478365,12.9545455 11.7403846,12.9545455 L14.9134615,12.9545455 C15.0060096,12.9545455 15.0820312,12.9241832 15.1415264,12.8634588 C15.2010216,12.8027344 15.2307692,12.725142 15.2307692,12.6306818 Z M10.1538462,4.85795455 L10.1538462,2.91477273 C10.1538462,2.8203125 10.1240986,2.74272017 10.0646034,2.68199574 C10.0051082,2.62127131 9.92908654,2.59090909 9.83653846,2.59090909 L6.66346154,2.59090909 C6.57091346,2.59090909 6.49489183,2.62127131 6.43539663,2.68199574 C6.37590144,2.74272017 6.34615385,2.8203125 6.34615385,2.91477273 L6.34615385,4.85795455 C6.34615385,4.95241477 6.37590144,5.0300071 6.43539663,5.09073153 C6.49489183,5.15145597 6.57091346,5.18181818 6.66346154,5.18181818 L9.83653846,5.18181818 C9.92908654,5.18181818 10.0051082,5.15145597 10.0646034,5.09073153 C10.1240986,5.0300071 10.1538462,4.95241477 10.1538462,4.85795455 Z M15.2307692,8.74431818 L15.2307692,6.80113636 C15.2307692,6.70667614 15.2010216,6.62908381 15.1415264,6.56835937 C15.0820312,6.50763494 15.0060096,6.47727273 14.9134615,6.47727273 L11.7403846,6.47727273 C11.6478365,6.47727273 11.5718149,6.50763494 11.5123197,6.56835937 C11.4528245,6.62908381 11.4230769,6.70667614 11.4230769,6.80113636 L11.4230769,8.74431818 C11.4230769,8.83877841 11.4528245,8.91637074 11.5123197,8.97709517 C11.5718149,9.0378196 11.6478365,9.06818182 11.7403846,9.06818182 L14.9134615,9.06818182 C15.0060096,9.06818182 15.0820312,9.0378196 15.1415264,8.97709517 C15.2010216,8.91637074 15.2307692,8.83877841 15.2307692,8.74431818 Z M15.2307692,4.85795455 L15.2307692,2.91477273 C15.2307692,2.8203125 15.2010216,2.74272017 15.1415264,2.68199574 C15.0820312,2.62127131 15.0060096,2.59090909 14.9134615,2.59090909 L11.7403846,2.59090909 C11.6478365,2.59090909 11.5718149,2.62127131 11.5123197,2.68199574 C11.4528245,2.74272017 11.4230769,2.8203125 11.4230769,2.91477273 L11.4230769,4.85795455 C11.4230769,4.95241477 11.4528245,5.0300071 11.5123197,5.09073153 C11.5718149,5.15145597 11.6478365,5.18181818 11.7403846,5.18181818 L14.9134615,5.18181818 C15.0060096,5.18181818 15.0820312,5.15145597 15.1415264,5.09073153 C15.2010216,5.0300071 15.2307692,4.95241477 15.2307692,4.85795455 Z M16.5,1.61931818 L16.5,12.6306818 C16.5,13.0759943 16.3446514,13.4572088 16.0339543,13.7743253 C15.7232572,14.0914418 15.3497596,14.25 14.9134615,14.25 L1.58653846,14.25 C1.15024038,14.25 0.776742788,14.0914418 0.466045673,13.7743253 C0.155348558,13.4572088 0,13.0759943 0,12.6306818 L0,1.61931818 C0,1.17400568 0.155348558,0.792791193 0.466045673,0.475674716 C0.776742788,0.158558239 1.15024038,0 1.58653846,0 L14.9134615,0 C15.3497596,0 15.7232572,0.158558239 16.0339543,0.475674716 C16.3446514,0.792791193 16.5,1.17400568 16.5,1.61931818 Z" id="path-4"></path>
    </defs>
    <g id="Page-1" stroke="none" stroke-width="1" fill="none" fill-rule="evenodd">
        <g id="Unleash-Trender---Trend---Tags" transform="translate(-1772.000000, -67.000000)">
            <g id="New-Trend" transform="translate(520.000000, 69.000000)">
                <g id="Top-Buttons" transform="translate(1256.000000, 0.000000)">
                    <g id="UI/Button/Circular/Medium/Active">
                        <g id="UI/Button/Circular/Medium/Normal">
                            <g id="Color/Aqua/3">
                                <mask id="mask-2" fill="white">
                                    <use xlink:href="#path-1"></use>
                                </mask>
                                <g id="Mask">
                                    <use fill="black" fill-opacity="1" filter="url(#filter-3)" xlink:href="#path-1"></use>
                                    <circle stroke="#6BD1F6" stroke-width="1" stroke-linejoin="square" fill="#FFFFFF" fill-rule="evenodd" cx="17" cy="17" r="16.5"></circle>
                                </g>
                            </g>
                            <g id="Icons/Trender/Export" transform="translate(8.000000, 8.000000)">
                                <g transform="translate(0.750000, 1.500000)" id="Color/Trender/Primary/4">
                                    <g transform="translate(0.264706, 0.044118)">
                                        <mask id="mask-5" fill="white">
                                            <use xlink:href="#path-4"></use>
                                        </mask>
                                        <use id="Mask" fill="#689FF5" fill-rule="nonzero" xlink:href="#path-4"></use>
                                        <g id="Color/Trender/Primary/2" mask="url(#mask-5)" fill="#4FC1E9" fill-rule="nonzero">
                                            <g transform="translate(-1.014706, -1.014706)" id="Rectangle-12-Copy-9">
                                                <rect x="0" y="0" width="18.8652482" height="18.8652482"></rect>
                                            </g>
                                        </g>
                                    </g>
                                </g>
                            </g>
                        </g>
                    </g>
                </g>
            </g>
        </g>
    </g>
</svg>