<svg xmlns="http://www.w3.org/2000/svg" width="48" height="44" viewBox="0 0 48 44">
    <g fill="none" fill-rule="evenodd">
        <path d="M-1-4h50v50H-1z"/>
        <g fill-rule="nonzero">
            <path fill="#6BD1F6" d="M45.821 43.656H2.18c-.891 0-1.616-.77-1.616-1.718V7.562h46.874v34.376c0 .947-.725 1.718-1.616 1.718zM2.18 9.281v32.657h43.643V9.28H2.178z"/>
            <path fill="#6BD1F6" d="M36.153 41.938h-1.62v-8.685H24.81v8.684h-1.62v-8.684h-9.722v8.684h-1.62v-8.684H2.124v-2.17h9.722v-8.685H2.125v-2.171h9.722v-8.684H2.125V9.372h9.722V.688h1.62v8.684h9.723V.688h1.62v8.684h9.722V.688h1.62v8.684h9.723v2.17h-9.722v8.685h9.722v2.171h-9.722v8.684h9.722v2.171h-9.722v8.684zM24.81 31.081h9.722v-8.684H24.81v8.684zm-11.342 0h9.722v-8.684h-9.722v8.684zM24.81 20.227h9.722v-8.684H24.81v8.684zm-11.342 0h9.722v-8.684h-9.722v8.684z"/>
            <path fill="#DDEBF1" d="M47.438 9.281H.562V3.094c0-1.33 1.014-2.406 2.263-2.406h42.35c1.25 0 2.263 1.077 2.263 2.406V9.28z"/>
        </g>
    </g>
</svg>
