<svg xmlns="http://www.w3.org/2000/svg" width="50" height="42" viewBox="0 0 50 42">
    <g fill="none" fill-rule="evenodd">
        <path d="M0-4h50v50H0z"/>
        <g fill-rule="nonzero">
            <path fill="#A9D2E1" d="M39.938 22.835L26.222 9.698l-6.933-6.64a1.522 1.522 0 0 0-1.065-.423l-1.098.004-15.622.072a1.56 1.56 0 0 0-.401.056c-.041.01-.076.032-.117.047-.04.015-.076.03-.113.047-.16.073-.309.16-.435.284-.281.273-.439.646-.438 1.034l.082 16.17c.001.385.164.755.446 1.03l20.648 19.777c.132.124.286.214.446.283.04.017.082.031.122.047.154.053.314.086.476.088.01 0 .017.003.03.003.133-.002.266-.018.394-.053.038-.01.07-.032.108-.046a1.49 1.49 0 0 0 .557-.333l3.868-3.775L32.675 32l7.27-7.1a1.425 1.425 0 0 0-.007-2.065zm-28.441-9.1a3.957 3.957 0 0 1-.712.538c-.078.045-.157.082-.238.123a3.697 3.697 0 0 1-.573.232c-.089.029-.175.058-.263.077-.257.062-.517.1-.78.11-.033 0-.066.01-.098.009a3.982 3.982 0 0 1-.87-.098c-.081-.018-.157-.043-.24-.068a3.842 3.842 0 0 1-.621-.237c-.08-.038-.16-.075-.24-.12a3.943 3.943 0 0 1-.74-.539 3.588 3.588 0 0 1-.025-5.195c.217-.213.462-.384.715-.537.074-.045.153-.079.231-.12.188-.093.38-.174.577-.235.088-.03.174-.056.263-.078.255-.06.517-.098.778-.107.032 0 .066-.01.096-.01.294-.002.586.035.873.098.081.019.16.045.238.068.215.062.422.14.625.238.079.038.158.073.235.119a3.586 3.586 0 0 1 .769 5.733z" opacity=".321"/>
            <path fill="#6BD1F6" d="M49.553 20.888L35.837 7.75l-6.932-6.64a1.522 1.522 0 0 0-1.066-.423l-1.097.004-15.623.072a1.56 1.56 0 0 0-.4.056c-.042.01-.077.032-.117.047-.04.015-.077.03-.113.047-.16.072-.31.16-.436.284-.28.273-.438.645-.438 1.034l.082 16.17c.002.385.164.755.447 1.03L30.79 39.209c.132.124.287.213.447.283l.121.047c.154.052.314.086.477.088.01 0 .017.003.029.003.133-.002.266-.018.395-.053.037-.01.07-.032.107-.046a1.49 1.49 0 0 0 .557-.333l3.868-3.775 5.498-5.37 7.271-7.1a1.425 1.425 0 0 0-.008-2.065zm-28.441-9.1a3.957 3.957 0 0 1-.711.538c-.079.045-.158.082-.238.122a3.697 3.697 0 0 1-.573.233c-.09.029-.176.058-.264.077-.256.062-.517.1-.78.11-.032 0-.066.01-.098.008a3.982 3.982 0 0 1-.87-.097c-.08-.018-.157-.043-.24-.068a3.842 3.842 0 0 1-.62-.238c-.081-.037-.16-.074-.24-.12a3.943 3.943 0 0 1-.74-.538 3.588 3.588 0 0 1-.025-5.195c.217-.213.461-.384.714-.537.074-.045.153-.079.232-.12.188-.093.38-.174.577-.235.087-.03.174-.056.262-.078.255-.06.517-.098.778-.107.033 0 .066-.01.097-.01.294-.002.586.035.872.098.082.019.16.045.238.068.215.062.422.14.626.238.078.038.157.073.234.119a3.586 3.586 0 0 1 .769 5.733z"/>
        </g>
    </g>
</svg>
