<?xml version="1.0" encoding="UTF-8"?>
<svg width="80px" height="80px" viewBox="0 0 80 80" version="1.1" xmlns="http://www.w3.org/2000/svg" xmlns:xlink="http://www.w3.org/1999/xlink">
    <!-- Generator: Sketch 51.2 (57519) - http://www.bohemiancoding.com/sketch -->
    <title>Mask</title>
    <desc>Created with Sketch.</desc>
    <defs></defs>
    <g id="Page-1" stroke="none" stroke-width="1" fill="none" fill-rule="evenodd">
        <g id="Unleash-Trender---Signal-Browser" transform="translate(-310.000000, -491.000000)" fill="#3E4D5C" fill-rule="nonzero">
            <g id="Tag-Browser" transform="translate(198.000000, 50.000000)">
                <g id="Group-8" transform="translate(72.000000, 441.000000)">
                    <path d="M78.29,79.9966667 C76.22,79.9966667 74.27,79.19 72.8066667,77.7233333 L42.27,47.1866667 C40.8066667,45.7233333 40,43.7766667 40,41.7033333 C40,39.6333333 40.8066667,37.6833333 42.2733333,36.22 L76.1566667,2.33666667 C77.6533333,0.836666667 79.65,0.01 81.7733333,0.00666666667 L110.82,0 C113.27,0 115.58,0.956666667 117.31,2.69 C119.046667,4.42333333 120,6.73 119.996667,9.18333333 L119.976667,38.24 C119.973333,40.3633333 119.143333,42.3566667 117.646667,43.8533333 L83.7766667,77.7233333 C82.31,79.19 80.3633333,79.9966667 78.29,79.9966667 Z M110.82,3.33333333 L81.7766667,3.34 C80.5433333,3.34 79.3866667,3.82333333 78.5166667,4.69333333 L44.6266667,38.5766667 C43.7933333,39.4133333 43.3333333,40.5233333 43.3333333,41.7033333 C43.3333333,42.8833333 43.7933333,43.9933333 44.63,44.83 L75.1666667,75.3666667 C76.8366667,77.04 79.7533333,77.04 81.42,75.3666667 L115.29,41.4966667 C116.163333,40.6266667 116.64,39.47 116.643333,38.2366667 L116.663333,9.18 C116.663333,7.62 116.056667,6.15 114.953333,5.04666667 C113.85,3.94333333 112.383333,3.33333333 110.82,3.33333333 Z M75.69,51.3759293 L91.380549,35.6853803 L93.737549,38.0423803 L78.047,53.7329293 L75.69,51.3759293 Z M66.263808,41.948596 L81.954357,26.258047 L84.311357,28.615047 L68.620808,44.305596 L66.263808,41.948596 Z M100,26.6633333 C96.3233333,26.6633333 93.3333333,23.6733333 93.3333333,19.9966667 C93.3333333,16.32 96.3233333,13.33 100,13.33 C103.676667,13.33 106.666667,16.32 106.666667,19.9966667 C106.666667,23.6733333 103.676667,26.6633333 100,26.6633333 Z M100,16.6633333 C98.16,16.6633333 96.6666667,18.16 96.6666667,19.9966667 C96.6666667,21.8333333 98.16,23.33 100,23.33 C101.84,23.33 103.333333,21.8333333 103.333333,19.9966667 C103.333333,18.16 101.84,16.6633333 100,16.6633333 Z" id="Mask"></path>
                </g>
            </g>
        </g>
    </g>
</svg>