<svg xmlns="http://www.w3.org/2000/svg" width="50" height="50" viewBox="0 0 50 50">
    <g fill="none" fill-rule="evenodd">
        <path d="M0 0h50v50H0z"/>
        <g fill="#A9D2E1" opacity=".5">
            <path d="M0 7.692h7.692V0H0v7.692zM42.308 0v7.692H50V0h-7.692zM0 50h7.692v-7.692H0V50zm42.308 0H50v-7.692h-7.692V50zM23.078 48.068h3.844v-3.845h-3.844v3.845zM13.466 5.777h3.845V1.932h-3.845v3.845zm0 42.29h3.845v-3.844h-3.845v3.845zM1.932 26.923h3.845v-3.844H1.932v3.844zm0 9.612h3.845v-3.845H1.932v3.845zm0-19.223h3.845v-3.845H1.932v3.845zm42.291 9.611h3.845v-3.844h-3.845v3.844zM23.078 5.777h3.844V1.932h-3.844v3.845zm21.145 30.757h3.845v-3.845h-3.845v3.845zm0-23.068v3.845h3.845v-3.845h-3.845zM32.689 48.068h3.845v-3.845h-3.845v3.845zm0-42.291h3.845V1.932h-3.845v3.845z"/>
        </g>
        <g fill="#6BD1F6">
            <path d="M23.189 11.594h3.865v26.812h-3.865z"/>
            <path d="M32.85 38.406H17.391V36.49l5.797-1.915h3.865l5.797 1.915zM13.527 11.594h23.188v3.83H13.527z"/>
            <path d="M15.459 19.255h-1.932v-7.66h3.864zM34.783 19.255h1.932v-7.66H32.85z"/>
        </g>
    </g>
</svg>
