<svg xmlns="http://www.w3.org/2000/svg" width="50" height="43" viewBox="0 0 50 43">
    <g fill="none" fill-rule="evenodd">
        <path d="M0-3h50v50H0z"/>
        <g fill-rule="nonzero">
            <path fill="#A9D2E1" d="M3.943.207V42.23h42.114V.207z" opacity=".323"/>
            <path fill="#DDEBF1" d="M28.734 28.4l-.423.428.423-.427-10.858-9.772L3.943 32.28v9.951h42.114V10.896z"/>
            <path fill="#6BD1F6" d="M32.224 27.265a4.21 4.21 0 0 1-3.913 5.768 4.21 4.21 0 0 1-3.88-5.85l-4.412-4.402c-.628.37-1.36.583-2.143.583a4.204 4.204 0 0 1-1.921-.461l-7.556 7.539a4.21 4.21 0 0 1-4.026 5.452A4.21 4.21 0 0 1 .16 31.687a4.21 4.21 0 0 1 4.215-4.205c.623 0 1.215.135 1.747.378l7.672-7.656a4.21 4.21 0 0 1 4.083-5.251 4.21 4.21 0 0 1 4.145 4.97l4.932 4.922a4.217 4.217 0 0 1 1.358-.223c.507 0 .992.089 1.442.253L41.914 12.74a4.18 4.18 0 0 1-.502-1.992 4.21 4.21 0 0 1 4.214-4.205 4.21 4.21 0 0 1 4.215 4.205 4.21 4.21 0 0 1-5.17 4.096l-12.447 12.42z"/>
        </g>
    </g>
</svg>
