<svg xmlns="http://www.w3.org/2000/svg" width="32" height="32" viewBox="0 0 32 32">
    <g fill="none" fill-rule="evenodd">
        <path fill="#6BD1F6" fill-rule="nonzero" d="M23.826 11.835l-6.99-2.837a.776.776 0 0 0-.742 0l-6.929 2.837c-.247.126-.433.378-.433.63v8.448c0 .252.186.504.433.63l6.99 2.837c.124.063.248.063.372.063v-8.826c0-.252.185-.504.433-.63l7.114-2.9c-.062-.126-.186-.19-.248-.252z"/>
        <path fill="#E3F0F5" fill-rule="nonzero" d="M23.826 11.835l-6.99-2.837a.776.776 0 0 0-.742 0l-6.929 2.837c-.123.063-.185.126-.247.189l7.794 3.152s.186-.126.248-.189l7.114-2.9c-.062-.126-.186-.19-.248-.252z"/>
        <path stroke="#3BAFDA" stroke-width="1.229" d="M2.546 16.5c0-7.817 6.248-14.185 13.919-14.185 6.433 0 11.877 4.476 13.423 10.465"/>
        <path fill="#3BAFDA" fill-rule="nonzero" d="M24.197 12.465c0-.126-.062-.315-.123-.378l-7.176 2.9c-.248.126-.433.378-.433.63v8.826c.124 0 .247 0 .371-.063l6.928-2.837c.248-.126.433-.378.433-.63v-8.448z"/>
        <path stroke="#3BAFDA" stroke-width="1.229" d="M30.383 16.5c0 7.817-6.248 14.185-13.918 14.185-6.557 0-12.063-4.602-13.547-10.844"/>
        <path stroke="#3BAFDA" stroke-linecap="round" stroke-width="1.229" d="M31.373 10.07l-1.36 2.837-2.785-1.324M1.557 23.12l1.36-2.837 2.784 1.387"/>
    </g>
</svg>
