<svg xmlns="http://www.w3.org/2000/svg" width="50" height="39" viewBox="0 0 50 39">
    <g fill="none" fill-rule="evenodd">
        <path d="M0-6h50v50H0z"/>
        <path fill="#A9D2E1" d="M9.692 5.963C7.75 10.103 4.201 12.218 0 13.577v6.475c3.041-.93 5.709-2.19 8.246-4.127v18.93h3.412c1.015-2.43 2.627-4.492 4.525-6.341v-8.261l-5.103-.416.112-.802c.58-4.165 2.299-6.784 4.99-8.242v-4.83h-6.49zm32.41 14.594c0 2.206-1.307 4.266-3.681 4.266-2.049 0-3.058-1.308-3.598-2.98a9.924 9.924 0 0 1-.559 1.185c-.937 1.693-2.327 3.101-3.826 4.35 2.133 1.576 4.926 2.247 8.173 2.247C44.35 29.625 50 26.796 50 20.133c0-3.516-2.091-5.809-5.471-6.647 2.273-1.26 4.024-3.218 4.024-5.953 0-5.786-5.766-7.283-10.46-7.283-5.23 0-9.593 1.947-11.002 7.362l7.417 1.337c.304-2.037 1.133-3.796 3.433-3.796 1.718 0 2.886 1.103 2.886 2.85 0 2.574-2.496 3.553-4.622 3.234l-.401 5.636c3.263-.92 6.298-.181 6.298 3.684z" opacity=".321"/>
        <path fill="#6BD1F6" d="M21.518 25.067c1.882-1.4 5.379-3.683 5.379-6.449 0-1.858-1.58-3.142-3.354-3.142-2.558 0-3.43 2.071-3.741 4.307l-7.858-.642c.933-6.703 4.905-9.069 11.39-9.069 5.264 0 11.381 1.682 11.381 8.275 0 7.065-7.793 9.97-12.06 14.181h12.251v6.436h-23.54c.724-6.293 5.377-10.336 10.152-13.897z"/>
    </g>
</svg>
