<svg xmlns="http://www.w3.org/2000/svg" width="32" height="32" viewBox="0 0 32 32">
    <g fill="none" fill-rule="nonzero">
        <path fill="#6BD1F6" d="M31.123 6.191L17.137.417a1.826 1.826 0 0 0-1.479 0L1.807 6.122C1.269 6.33 1 6.817 1 7.374v17.183c0 .556.336 1.043.807 1.252l13.985 5.774c.27.07.471.139.74.139V13.774c0-.557.336-1.044.807-1.252l14.322-5.913a1.05 1.05 0 0 0-.538-.418z"/>
        <path fill="#E3F0F5" d="M31.123 6.191L17.137.417a1.826 1.826 0 0 0-1.479 0L1.807 6.122c-.202.07-.336.208-.47.417l15.464 6.4s.336-.278.538-.417l14.322-5.913a1.05 1.05 0 0 0-.538-.418z"/>
        <path fill="#3BAFDA" d="M31.93 7.443c0-.278-.135-.626-.27-.834L17.34 12.522c-.538.208-.807.695-.807 1.252v17.948c.269 0 .47-.07.74-.14l13.85-5.704c.539-.208.808-.695.808-1.252V7.443z"/>
        <path fill="#E3F0F5" d="M23.458 9.67L16.8 6.957a1.11 1.11 0 0 0-.672 0L9.539 9.67c-.269.07-.403.347-.403.626v8.139c0 .278.134.487.403.626l6.657 2.713c.134.07.202.07.336.07v-8.557c0-.278.135-.487.404-.626l6.79-2.783c-.134-.07-.201-.139-.268-.208z"/>
        <path fill="#FFF" d="M23.458 9.67L16.8 6.957a1.11 1.11 0 0 0-.672 0L9.539 9.67c-.067.07-.201.139-.269.208l7.397 3.061s.134-.139.269-.209l6.79-2.782-.268-.278z"/>
        <path fill="#6BD1F6" d="M23.794 10.296c0-.14-.067-.279-.135-.418l-6.79 2.783c-.27.07-.404.348-.404.626v8.556c.134 0 .269 0 .336-.07l6.59-2.712c.268-.07.403-.348.403-.626v-8.14z"/>
    </g>
</svg>
