<?xml version="1.0" encoding="UTF-8"?>
<svg width="24px" height="23px" viewBox="0 0 24 23" version="1.1" xmlns="http://www.w3.org/2000/svg" xmlns:xlink="http://www.w3.org/1999/xlink">
    <!-- Generator: Sketch 51.2 (57519) - http://www.bohemiancoding.com/sketch -->
    <title>Group</title>
    <desc>Created with Sketch.</desc>
    <defs>
        <path d="M18.3369179,13.6326775 L17.4276431,12.8503923 L15.4082229,15.9850206 L12.6145935,13.8266078 L10.0792477,17.0808122 L5.76,13.8341817 L5.76,21.0825 L23.02,21.0825 L23.02,22.0425 L5.76,22.0425 L5.76,23 L4.8,23 L4.8,22.0425 L1.92,22.0425 L1.92,23 L0.96,23 L0.96,22.0425 L0.02,22.0425 L0.02,21.0825 L0.96,21.0825 L0.96,0 L1.92,0 L1.92,21.0825 L4.8,21.0825 L4.8,0 L5.76,0 L5.76,12.7564185 L9.72615249,6.20341331 L12.4563971,8.57072001 L15.5564358,3.86144317 L17.9896894,5.77670557 C18.5176363,5.17304984 19.2942023,4.79166667 20.16,4.79166667 C21.7505801,4.79166667 23.04,6.07884801 23.04,7.66666667 C23.04,9.25448532 21.7505801,10.5416667 20.16,10.5416667 C18.5694199,10.5416667 17.28,9.25448532 17.28,7.66666667 C17.28,7.28967208 17.352688,6.92962521 17.4848367,6.59973047 L15.7839214,5.26090616 L12.6557458,10.0129259 L9.95789008,7.67370257 L6.58159836,13.2521208 L9.90168977,15.7477197 L12.4447815,12.4835729 L15.1674021,14.5871229 L17.2176694,11.4046125 L18.7579,12.729734 C19.2785151,11.9862685 20.1423718,11.5 21.12,11.5 C22.7105801,11.5 24,12.7871813 24,14.375 C24,15.9628187 22.7105801,17.25 21.12,17.25 C19.5294199,17.25 18.24,15.9628187 18.24,14.375 C18.24,14.118313 18.2736977,13.8694828 18.3369179,13.6326775 Z" id="path-1"></path>
        <path d="M1.92,3.83333333 C0.85961328,3.83333333 0,2.97521244 0,1.91666667 C0,0.858120896 0.85961328,0 1.92,0 C2.98038672,0 3.84,0.858120896 3.84,1.91666667 C3.84,2.97521244 2.98038672,3.83333333 1.92,3.83333333 Z M2.88,10.5416667 C1.81961328,10.5416667 0.96,9.68354577 0.96,8.625 C0.96,7.56645423 1.81961328,6.70833333 2.88,6.70833333 C3.94038672,6.70833333 4.8,7.56645423 4.8,8.625 C4.8,9.68354577 3.94038672,10.5416667 2.88,10.5416667 Z" id="path-3"></path>
    </defs>
    <g id="Symbols" stroke="none" stroke-width="1" fill="none" fill-rule="evenodd">
        <g id="Icons/Trender/YScale2" transform="translate(0.000000, -1.000000)">
            <g id="Group">
                <rect id="Rectangle-6" x="0" y="0" width="24" height="24"></rect>
                <g id="Colors/Trender/Primary/5" transform="translate(0.000000, 1.000000)">
                    <mask id="mask-2" fill="white">
                        <use xlink:href="#path-1"></use>
                    </mask>
                    <use id="Mask" fill="#CECECE" xlink:href="#path-1"></use>
                    <g id="Color/Black/2" mask="url(#mask-2)" fill="#2D4862">
                        <g transform="translate(-3.840000, -6.708333)" id="Rectangle-Copy">
                            <rect x="0" y="0" width="34.0289362" height="34.1581395"></rect>
                        </g>
                    </g>
                </g>
                <g id="Colors/Trender/Primary/5" transform="translate(18.240000, 6.750000)">
                    <mask id="mask-4" fill="white">
                        <use xlink:href="#path-3"></use>
                    </mask>
                    <use id="Mask" fill="#CECECE" xlink:href="#path-3"></use>
                    <g id="Color/Trender/Primary/2" mask="url(#mask-4)" fill="#4FC1E9" fill-rule="nonzero">
                        <g transform="translate(-18.240000, -6.750000)" id="Rectangle-12-Copy-9">
                            <rect x="0" y="0" width="35" height="35"></rect>
                        </g>
                    </g>
                </g>
            </g>
        </g>
    </g>
</svg>