<?xml version="1.0" standalone="no"?>
<!DOCTYPE svg PUBLIC "-//W3C//DTD SVG 1.1//EN" "http://www.w3.org/Graphics/SVG/1.1/DTD/svg11.dtd">
<svg xmlns="http://www.w3.org/2000/svg">
<metadata>Generated by Fontastic.me</metadata>
<defs>
<font id="ddriven" horiz-adv-x="512">
<font-face font-family="ddriven" units-per-em="512" ascent="480" descent="-32"/>
<missing-glyph horiz-adv-x="512" />

<glyph glyph-name="details" unicode="&#97;" d="M34 512l167 0c18 0 34-15 34-34l0-167c0-18-16-34-34-34l-167 0c-19 0-34 16-34 34l0 167c0 19 15 34 34 34z m277 0l167 0c19 0 34-15 34-34l0-167c0-18-15-34-34-34l-167 0c-18 0-34 16-34 34l0 167c0 19 16 34 34 34z m-277-277l167 0c18 0 34-16 34-34l0-167c0-19-16-34-34-34l-167 0c-19 0-34 15-34 34l0 167c0 18 15 34 34 34z m277 0l167 0c19 0 34-16 34-34l0-167c0-19-15-34-34-34l-167 0c-18 0-34 15-34 34l0 167c0 18 16 34 34 34z"/>
<glyph glyph-name="info" unicode="&#98;" d="M398 512c32 0 57-25 57-57 0-31-25-57-57-57-31 0-57 26-57 57 0 32 26 57 57 57z m86-335c0-4-3-6-7-6l-158 0c-3 0-6 2-6 6l0 28c0 3 3 5 6 5l37 0 0 120-37 0c-3 0-6 3-6 6l0 28c0 3 3 6 6 6l116 0c3 0 6-3 6-6l0-154 36 0c4 0 7-2 7-5z m14-64l0-52c0-13-9-23-22-25l-249-36c-4 0-9 0-13 0l-192 36c-13 2-22 12-22 25l0 341c0 11 7 21 17 24l188 83c10 4 21 4 31 0l52-17c-4-14-6-29-6-44 0-2 1-4 1-6l-31 10c-3 1-5 0-7-1-2-2-3-4-3-6l0-383c0-2 1-4 2-5 2-2 4-3 6-2l198 24c4 0 7 4 7 8l0 26c7-1 14-1 21-1 8 0 15 0 22 1z"/>
<glyph glyph-name="triangle-down" unicode="&#99;" d="M256 64l-256 384 512 0z"/>
<glyph glyph-name="trender" unicode="&#100;" d="M31 131l0-106 119 0 0 197-9 9z m153 56l0-162 119 0 0 175-68-64z m298 298l-68-19c-19-5-26-16-17-25l17-17-178-169-94 96-139-127 28-31 109 99 95-96 208 198c0 0 9-8 18-18 10-10 22-4 27 15l18 70c5 18-6 29-24 24z m-143-251l0-209 118 0 0 306-7 8z"/>
<glyph glyph-name="up" unicode="&#101;" d="M512 256c0-141-115-256-256-256-141 0-256 115-256 256 0 141 115 256 256 256 141 0 256-115 256-256z m-295 112l-90-94c-11-11-10-29 1-40 12-10 30-10 41 1l59 62 0-166c0-16 12-29 28-29 16 0 28 13 28 29l0 166 59-62c11-11 29-11 41-1 11 11 12 29 1 40l-90 94-39 42z"/>
<glyph glyph-name="workbench" unicode="&#102;" d="M436 217c-3-13-8-26-13-38l-41 40c3 12 5 24 5 37 0 75-61 136-135 136-75 0-136-61-136-136 0-75 61-135 136-135 13 0 26 2 38 5l42-40c-13-6-27-11-41-14l-6-51c-1-4-4-7-8-7l-51 0c-3 0-7 3-7 7l-6 51c-23 5-45 14-64 26l-40-31c-3-3-7-2-10 0l-36 36c-3 3-3 7 0 10l31 40c-12 19-21 41-26 64l-51 6c-4 1-7 4-7 8l0 51c0 3 3 6 7 7l51 6c5 23 14 45 26 64l-31 40c-3 3-3 7 0 10l36 36c3 2 7 3 10 0l40-31c19 12 41 21 64 26l6 51c0 4 4 7 7 7l51 0c4 0 7-3 8-7l6-51c23-5 44-14 63-26l41 31c2 3 7 2 9 0l36-36c3-3 3-7 1-10l-32-40c13-19 22-41 27-64l50-6c4-1 7-4 7-7l0-51c0-4-3-7-7-8z m50-130c17-16 17-43 1-60-16-16-42-17-59-1l-1-1-140 136c-34-12-74-4-102 23-28 27-37 67-27 101l33-32c8-8 20-7 28 0l32 34c7 8 7 20 0 27l-34 32c34 12 74 5 102-23 28-27 37-66 27-100l140-136z"/>
<glyph glyph-name="plus" unicode="&#103;" d="M291 291l0 210-70 0 0-210-210 0 0-70 210 0 0-210 70 0 0 210 210 0 0 70z"/>
<glyph glyph-name="arrow-right" unicode="&#104;" d="M103 60l194 196-194 196 60 60 253-256-253-256z"/>
<glyph glyph-name="browse" unicode="&#105;" d="M367 177l138-137c9-10 9-24 0-33-4-5-9-7-15-7-6 0-12 2-17 7l-138 137c-37-30-83-45-129-45-52 0-106 20-146 60-80 81-80 212 0 292 39 40 91 61 146 61 55 0 108-21 146-61 40-38 61-90 61-145 0-47-16-93-46-129z m-161 288c-42 0-83-16-113-46-63-63-63-164 0-226 63-63 165-63 226 0 31 30 47 70 47 113 0 43-16 83-47 113-30 30-70 46-113 46z m-64-164l-21-62c-3-9-13-14-22-11-9 3-14 13-11 22l35 105c5 15 26 16 33 1l40-87 44 132c5 17 29 16 33-1l23-84 3 6c4 9 15 12 24 8 8-5 12-15 7-24l-23-46c-7-15-28-12-32 3l-20 72-40-119c-5-15-26-17-33-2z"/>
<glyph glyph-name="calendar" unicode="&#106;" d="M464 0l-416 0c-27 0-48 21-48 48l0 288 512 0 0-288c0-27-21-48-48-48z m-288 240c0 10-6 16-16 16l-32 0c-10 0-16-6-16-16l0-32c0-10 6-16 16-16l32 0c10 0 16 6 16 16z m0-112c0 10-6 16-16 16l-32 0c-10 0-16-6-16-16l0-32c0-10 6-16 16-16l32 0c10 0 16 6 16 16z m112 112c0 10-6 16-16 16l-32 0c-10 0-16-6-16-16l0-32c0-10 6-16 16-16l32 0c10 0 16 6 16 16z m0-112c0 10-6 16-16 16l-32 0c-10 0-16-6-16-16l0-32c0-10 6-16 16-16l32 0c10 0 16 6 16 16z m112 112c0 10-6 16-16 16l-32 0c-10 0-16-6-16-16l0-32c0-10 6-16 16-16l32 0c10 0 16 6 16 16z m0-112c0 10-6 16-16 16l-32 0c-10 0-16-6-16-16l0-32c0-10 6-16 16-16l32 0c10 0 16 6 16 16z m-400 272c0 27 21 48 48 48l64 0 0 32c0 18 14 32 32 32 18 0 32-14 32-32l0-32 160 0 0 32c0 18 14 32 32 32 18 0 32-14 32-32l0-32 64 0c27 0 48-21 48-48l0-32-512 0z"/>
<glyph glyph-name="close" unicode="&#107;" d="M316 256l183 183c17 17 17 44 0 60-16 17-43 17-60 0l-183-183-183 183c-17 17-44 17-60 0-17-16-17-43 0-60l183-183-183-183c-17-17-17-44 0-61 8-8 19-12 30-12 11 0 22 4 30 12l183 184 183-184c8-8 19-12 30-12 11 0 22 4 30 12 17 17 17 44 0 61z"/>
<glyph glyph-name="copy" unicode="&#108;" d="M416 395c-6 0-11 4-11 10l0 96 107-106z m-224-96l0 96 107-107-96 0c-6 0-11 5-11 11z m-30-22c0-8 7-19 19-19l118 0 0-237c0-6-5-10-11-10l-277 0c-6 0-11 4-11 10l0 363c0 6 5 11 11 11l151 0z m213 107c0-8 7-19 20-19l117 0 0-237c0-6-5-11-11-11l-172 0 0 194-116 115 0 65c0 6 5 10 11 10l151 0z"/>
<glyph glyph-name="edit" unicode="&#109;" d="M507 452c-15 14-41 40-55 55-15 14-36-7-36-7l-35-35 84-83 35 35c0 0 21 20 7 35z m-63-91l-84 84-146-147 84-84z m-267-183l99 19-79 79z m276 118c-29 0-29-29-29-29l0-208-365 0 0 375 207 0c0 0 30 0 30 30 0 30-30 30-30 30 0 0-187 0-227 0-39 0-39-40-39-40l0-415c0 0 0-39 39-39 40 0 405 0 405 0 0 0 39 0 39 39 0 40 0 228 0 228 0 0 0 29-30 29z"/>
<glyph glyph-name="excel" unicode="&#110;" d="M0 458l0-404 293-53 0 510z m169-287l-25 65-24-62-34 0 40 87-37 85 35 0 22-59 26 64 33 2-41-91 43-94z m332 288c5 0 10-5 10-11l0-373c0-6-5-11-10-11l-198 0 0 34 74 0 0 54-74 0 0 16 74 0 0 53-74 0 0 16 74 0 0 54-74 0 0 16 74 0 0 53-74 0 0 16 74 0 0 53-74 0 0 30z m-24-361l0 54-84 0 0-54z m0 70l0 53-84 0 0-53z m0 69l0 54-84 0 0-54z m0 70l0 53-84 0 0-53z m0 69l0 53-84 0 0-53z"/>
<glyph glyph-name="expand" unicode="&#111;" d="M95 456l92-92c11-11 11-28 0-39-11-11-29-11-40 0l-91 92 0-45c0-15-13-28-28-28-15 0-28 13-28 28l0 112c0 15 13 28 28 28l111 0c16 0 28-13 28-28 0-15-12-28-28-28z m388 56c15 0 28-13 28-28l0-112c0-15-12-28-28-28-15 0-28 13-28 28l0 45-91-92c-11-11-29-11-40 0-11 11-11 28 0 39l92 92-44 0c-16 0-28 13-28 28 0 15 12 28 28 28z m-336-325c11 11 29 11 40 0 11-11 11-28 0-39l-92-92 44 0c16 0 28-13 28-28 0-15-12-28-28-28l-111 0c-15 0-28 13-28 28l0 112c0 15 12 28 28 28 15 0 28-13 28-28l0-45z m336-19c15 0 28-13 28-28l0-112c0-15-13-28-28-28l-111 0c-16 0-28 13-28 28 0 15 12 28 28 28l44 0-92 92c-11 11-11 28 0 39 11 11 29 11 40 0l91-92 0 45c0 15 13 28 28 28z"/>
<glyph glyph-name="previous1" unicode="&#117;" d="M471 505l-191-190 0 173c0 9-5 18-14 22-9 4-20 2-27-5l-232-231c-4-5-7-11-7-18 0-7 3-13 7-18l232-231c7-7 18-9 27-5 9 4 14 13 14 22l0 173 191-190c7-7 17-9 26-5 9 4 15 13 15 22l0 464c0 9-6 18-15 22-9 4-19 2-26-5z"/>
<glyph glyph-name="pump" unicode="&#118;" d="M402 480l-61-59 52-51 0-24c0-33 25-68 68-68l17 0 0-168c0-18-15-33-34-33-19 0-34 15-34 33l0 68c0 37-31 67-69 67l-34 0 0 168c0 37-31 67-68 67l-171 0c-37 0-68-30-68-67l0-370 307 0 0 168 34 0c19 0 34-15 34-33l0-68c0-37 31-67 69-67 37 0 68 30 68 67l0 262z m-163-202l-171 0 0 135 171 0z"/>
<glyph glyph-name="save" unicode="&#119;" d="M387 507l-327 0c-30 0-55-25-55-55l0-382c0-30 25-55 55-55l382 0c30 0 55 25 55 55l0 328z m-136-437c-45 0-82 37-82 82 0 45 37 82 82 82 45 0 82-37 82-82 0-45-37-82-82-82z m82 273l-273 0 0 109 273 0z"/>
<glyph glyph-name="search" unicode="&#120;" d="M512 46l-133 133c26 35 41 77 41 123 0 116-94 210-210 210-116 0-210-94-210-210 0-116 94-210 210-210 46 0 88 15 123 41l133-133z m-302 112c-80 0-144 65-144 144 0 80 64 144 144 144 79 0 144-64 144-144 0-79-65-144-144-144z"/>
<glyph glyph-name="line1" unicode="&#121;" d="M0 267l512 0 0-22-512 0z"/>
<glyph glyph-name="line3" unicode="&#122;" d="M0 299l512 0 0-86-512 0z"/>
<glyph glyph-name="line4" unicode="&#65;" d="M0 320l512 0 0-128-512 0z"/>
<glyph glyph-name="line5" unicode="&#66;" d="M0 341l512 0 0-170-512 0z"/>
<glyph glyph-name="line2" unicode="&#67;" d="M0 277l512 0 0-42-512 0z"/>
<glyph glyph-name="circle" unicode="&#68;" d="M512 256c0-141-115-256-256-256-141 0-256 115-256 256 0 141 115 256 256 256 141 0 256-115 256-256z"/>
<glyph glyph-name="circle-o" unicode="&#69;" d="M256 512c141 0 256-115 256-256 0-141-115-256-256-256-141 0-256 115-256 256 0 141 115 256 256 256z m0-128c-71 0-128-57-128-128 0-71 57-128 128-128 71 0 128 57 128 128 0 71-57 128-128 128z"/>
<glyph glyph-name="rhombus" unicode="&#71;" d="M256 512l256-256-256-256-256 256z"/>
<glyph glyph-name="share" unicode="&#72;" d="M409 317c-24 0-46 10-63 26l-152-76c0-4 1-7 1-11 0-4-1-7-1-11l152-76c17 16 39 26 63 26 51 0 92-42 92-92 0-51-41-92-92-92-50 0-92 41-92 92 0 4 1 8 2 11l-152 76c-17-16-39-26-64-26-51 0-92 41-92 92 0 51 41 92 92 92 25 0 47-10 64-26l152 76c-1 4-2 7-2 11 0 51 42 92 92 92 51 0 92-41 92-92 0-50-41-92-92-92z"/>
<glyph glyph-name="eye" unicode="&#73;" d="M256 424c-123 0-256-160-256-160 0 0 122-160 256-160 134 0 256 160 256 160 0 0-133 160-256 160z m0-270c-59 0-108 49-108 110 0 60 49 109 108 109 59 0 108-49 108-109 0-61-49-110-108-110z"/>
<glyph glyph-name="slider" unicode="&#74;" d="M0 458l0 33 68 0 0-470-68 0z m222 0l0 33 68 0 0-470-68 0z m222 0l0 33 68 0 0-470-68 0z"/>
<glyph glyph-name="calender" unicode="&#75;" d="M152 89l0 59c0 2-1 5-3 7-2 1-4 2-7 2l-94 0c-3 0-5-1-7-2-2-2-3-5-3-7l0-59c0-3 1-5 3-7 2-2 4-3 7-3l94 0c3 0 5 1 7 3 2 2 3 4 3 7z m0 117l0 59c0 3-1 5-3 7-2 2-4 3-7 3l-94 0c-3 0-5-1-7-3-2-2-3-4-3-7l0-59c0-3 1-5 3-7 2-2 4-3 7-3l94 0c3 0 5 1 7 3 2 2 3 4 3 7z m151-117l0 59c0 2-1 5-3 7-2 1-4 2-7 2l-94 0c-3 0-5-1-7-2-2-2-3-5-3-7l0-59c0-3 1-5 3-7 2-2 4-3 7-3l94 0c3 0 5 1 7 3 2 2 3 4 3 7z m-151 235l0 58c0 3-1 5-3 7-2 2-4 3-7 3l-94 0c-3 0-5-1-7-3-2-2-3-4-3-7l0-58c0-3 1-6 3-8 2-1 4-2 7-2l94 0c3 0 5 1 7 2 2 2 3 5 3 8z m151-118l0 59c0 3-1 5-3 7-2 2-4 3-7 3l-94 0c-3 0-5-1-7-3-2-2-3-4-3-7l0-59c0-3 1-5 3-7 2-2 4-3 7-3l94 0c3 0 5 1 7 3 2 2 3 4 3 7z m151-117l0 59c0 2-1 5-3 7-1 1-4 2-6 2l-95 0c-3 0-5-1-7-2-2-2-2-5-2-7l0-59c0-3 0-5 2-7 2-2 4-3 7-3l95 0c2 0 5 1 6 3 2 2 3 4 3 7z m-151 235l0 58c0 3-1 5-3 7-2 2-4 3-7 3l-94 0c-3 0-5-1-7-3-2-2-3-4-3-7l0-58c0-3 1-6 3-8 2-1 4-2 7-2l94 0c3 0 5 1 7 2 2 2 3 5 3 8z m151-118l0 59c0 3-1 5-3 7-1 2-4 3-6 3l-95 0c-3 0-5-1-7-3-2-2-2-4-2-7l0-59c0-3 0-5 2-7 2-2 4-3 7-3l95 0c2 0 5 1 6 3 2 2 3 4 3 7z m0 118l0 58c0 3-1 5-3 7-1 2-4 3-6 3l-95 0c-3 0-5-1-7-3-2-2-2-4-2-7l0-58c0-3 0-6 2-8 2-1 4-2 7-2l95 0c2 0 5 1 6 2 2 2 3 5 3 8z m38 97l0-332c0-14-5-25-14-35-9-9-20-14-33-14l-397 0c-13 0-25 5-34 14-9 10-14 21-14 35l0 332c0 14 5 25 14 35 9 9 21 14 34 14l397 0c13 0 24-5 33-14 9-10 14-21 14-35z"/>
<glyph glyph-name="tick" unicode="&#76;" d="M181 65l-180 176 60 59 120-117 269 264 60-59z"/>
<glyph glyph-name="trash" unicode="&#77;" d="M485 416l-115 0 0 32c0 64-32 64-65 64l-98 0c-65 0-65-32-65-64l0-32-115 0c-9 0-16-7-16-16l0-32c0-9 7-16 16-16l458 0c9 0 16 7 16 16l0 32c0 9-7 16-16 16z m-180 0l-98 0 0 32 98 0z m65-99l0 3 66 0 0-304c0-9-7-16-16-16l-328 0c-9 0-16 7-16 16l0 304 66 0 0-3 0-237c0-9 7-16 16-16 9 0 16 7 16 16l0 237 0 3 66 0 0-3 0-237c0-9 7-16 16-16 9 0 16 7 16 16l0 237 0 3 66 0 0-3 0-237c0-9 7-16 16-16 9 0 16 7 16 16z"/>
<glyph glyph-name="trend" unicode="&#78;" d="M45 116c-4-12-17-19-29-15-12 5-19 18-15 30l79 232c7 20 36 21 44 1l95-237 115 346c8 22 39 21 45-1l65-237 23 63c5 12 18 18 30 13 12-4 18-18 13-30l-48-130c-8-21-38-20-44 2l-64 232-111-332c-7-21-35-22-43-2l-96 237z"/>
<glyph glyph-name="3dots" unicode="&#79;" d="M303 441c0-33-26-59-59-59-33 0-59 26-59 59 0 33 26 59 59 59 33 0 59-26 59-59z m0-174c0-33-26-59-59-59-33 0-59 26-59 59 0 33 26 59 59 59 33 0 59-26 59-59z m0-186c0-33-26-59-59-59-33 0-59 26-59 59 0 33 26 60 59 60 33 0 59-27 59-60z"/>
<glyph glyph-name="6dots" unicode="&#80;" d="M407 441c0-33-27-59-59-59-33 0-60 26-60 59 0 33 27 59 60 59 32 0 59-26 59-59z m-188 0c0-33-26-59-59-59-33 0-60 26-60 59 0 33 27 59 60 59 33 0 59-26 59-59z m188-174c0-33-27-59-59-59-33 0-60 26-60 59 0 33 27 59 60 59 32 0 59-26 59-59z m-188 0c0-33-26-59-59-59-33 0-60 26-60 59 0 33 27 59 60 59 33 0 59-26 59-59z m188-186c0-33-27-59-59-59-33 0-60 26-60 59 0 33 27 60 60 60 32 0 59-27 59-60z m-188 0c0-33-26-59-59-59-33 0-60 26-60 59 0 33 27 60 60 60 33 0 59-27 59-60z"/>
<glyph glyph-name="9dots" unicode="&#81;" d="M315 441c0-33-27-59-60-59-32 0-59 26-59 59 0 33 27 59 59 59 33 0 60-26 60-59z m-188 0c0-33-27-59-60-59-32 0-59 26-59 59 0 33 27 59 59 59 33 0 60-26 60-59z m376 0c0-33-27-59-60-59-32 0-59 26-59 59 0 33 27 59 59 59 33 0 60-26 60-59z m-188-174c0-33-27-59-60-59-32 0-59 26-59 59 0 33 27 59 59 59 33 0 60-26 60-59z m-188 0c0-33-27-59-60-59-32 0-59 26-59 59 0 33 27 59 59 59 33 0 60-26 60-59z m376 0c0-33-27-59-60-59-32 0-59 26-59 59 0 33 27 59 59 59 33 0 60-26 60-59z m-188-186c0-33-27-59-60-59-32 0-59 26-59 59 0 33 27 60 59 60 33 0 60-27 60-60z m-188 0c0-33-27-59-60-59-32 0-59 26-59 59 0 33 27 60 59 60 33 0 60-27 60-60z m376 0c0-33-27-59-60-59-32 0-59 26-59 59 0 33 27 60 59 60 33 0 60-27 60-60z"/>
<glyph glyph-name="abt-meter" unicode="&#82;" d="M55 435l0-339 406 0 0 339z m-19 25l445 0c5 0 9-4 9-8l0-372c0-4-4-8-9-8l-445 0c-5 0-9 4-9 8l0 372c0 4 4 8 9 8z m245-231l-52-63 26 0-26-57 63 70-32 0z m-233 35c0 13-9 23-19 23-11 0-20-10-20-23 0-13 9-23 20-23 10 0 19 10 19 23z m458 0c0 13-8 23-19 23-11 0-19-10-19-23 0-13 8-23 19-23 11 0 19 10 19 23z m-301-6c0-10-9-18-19-18-10 0-18 8-18 18 0 11 8 19 18 19 10 0 19-8 19-19z m73 0c0-10-8-18-19-18-10 0-18 8-18 18 0 11 8 19 18 19 11 0 19-8 19-19z m73 0c0-10-8-18-18-18-10 0-19 8-19 18 0 11 9 19 19 19 10 0 18-8 18-19z m-224 114l0-29 264 0 0 29z m-20 29l304 0c5 0 9-4 9-9l0-69c0-5-4-9-9-9l-304 0c-5 0-9 4-9 9l0 69c0 5 4 9 9 9z"/>
<glyph glyph-name="acg" unicode="&#83;" d="M256 115c-82 0-149 67-149 149 0 83 67 149 149 149 82 0 149-66 149-149 0-82-67-149-149-149z m0 29c67 0 121 54 121 120 0 67-54 121-121 121-67 0-121-54-121-121 0-66 54-120 121-120z m122 102l0 28 143 0 0-28z m-403 0l0 28 143 0 0-28z m302 70c-2 7-5 12-12 15-3 1-7 2-11 2-8 0-15-3-20-9-5-6-7-15-7-27 0-13 2-21 8-27 5-5 12-7 19-7 7 0 13 2 17 6 5 4 7 9 8 16l-23 0 0 16 42 0 0-53-14 0-2 12c-4-4-8-8-11-10-5-3-12-5-20-5-13 0-24 5-33 14-8 9-13 22-13 38 0 16 5 29 14 38 8 10 20 15 35 15 12 0 23-3 30-10 8-6 12-14 13-24z m-77-135l-13 26c25 13 42 20 52 21 5 0 8-2 12-4 1-1 3-2 5-4 0-1 4-4 5-5 2-1 4-3 6-4 6-5 12-8 19-9 1 0 3 1 4 2 5 3 11 7 17 14l20-21c-18-17-32-26-44-24-13 2-24 7-34 15-2 2-4 3-7 6-1 1-4 3-5 4-7-2-20-8-37-17z"/>
<glyph glyph-name="arrow-1" unicode="&#84;" d="M507 93l-74 19 55 54z m-89-85l-74 20 55 54z m-307 503l367-368-20-21-368 368z m-87-88l368-368-21-20-367 368z"/>
<glyph glyph-name="arrowline" unicode="&#85;" d="M395 49l-283 283 16 16 283-283 14 13 15-58-58 15z m57 56l-285 285 16 17 285-286 13 13 16-58-59 15z m-409 184l177 177 19-19-177-177z"/>
<glyph glyph-name="artboard-1" unicode="&#86;" d="M432 73l-359 0 0 359 359 0z m-330 29l301 0 0 301-301 0z m20 271l94 0 0-29-94 0z m0-48l94 0 0-29-94 0z m-45-227l330 330 21-21-330-330z m271 31c-9 0-15 5-20 10-4 4-8 7-12 10-6 4-13 10-16 10-1-58-4-3-8-13l-27 9c7 19 16 30 29 33 14 3 25-5 39-15 5-4 9-8 14-12 2 4 3 8 4 13l28-7c-2-10-8-36-29-38 0 0-1 0-2 0z m-110 378l29 0 0-89-29 0z m0-416l29 0 0-89-29 0z"/>
<glyph glyph-name="artboard-1arraybox" unicode="&#87;" d="M393 40l-283 0c-20 0-35 15-35 35l0 348c0 19 15 35 35 35l283 0c19 0 35-16 35-35l0-348c0-20-16-35-35-35z m-283 389c-4 0-6-3-6-6l0-348c0-4 2-6 6-6l283 0c3 0 6 2 6 6l0 348c0 3-3 6-6 6z m71-64c-14 0-25 11-25 25 0 14 11 25 25 25 14 0 25-11 25-25 0-14-11-25-25-25z m0 29c-2 0-4-2-4-4 0-2 2-4 4-4 2 0 4 2 4 4 0 1 0 2-1 3-1 0-2 1-3 1z m0-118c-14 0-25 11-25 25 0 14 11 25 25 25 14 0 25-11 25-25 0-14-11-25-25-25z m0 29c-2 0-4-2-4-4 0-2 2-4 4-4 2 0 4 2 4 4 0 1 0 2-1 3-1 0-2 1-3 1z m0-122c-14 0-25 11-25 25 0 14 11 25 25 25 14 0 25-11 25-25 0-6-2-13-7-18-5-4-11-7-18-7z m0 29c-1 0-3-1-3-2-1-2-1-3 0-5 2-1 3-1 5 0 1 0 2 2 2 3 0 1 0 2-1 3-1 1-2 1-3 1z m0-118c-14 0-25 11-25 25 0 14 11 25 25 25 14 0 25-11 25-25 0-14-11-25-25-25z m0 29c-1 0-3-1-3-2-1-2-1-4 0-5 2-1 3-1 5 0 1 0 2 2 2 3 0 1 0 2-1 3-1 0-2 1-3 1z m150 242c-14 0-25 11-25 25 0 14 11 25 25 25 14 0 25-11 25-25 0-14-11-25-25-25z m0 29c-2 0-4-2-4-4 0-2 2-4 4-4 2 0 4 2 4 4 0 2-2 4-4 4z m0-118c-14 0-25 11-25 25 0 14 11 25 25 25 14 0 25-11 25-25 0-14-11-25-25-25z m0 29c-2 0-4-2-4-4 0-2 2-4 4-4 2 0 4 2 4 4 0 2-2 4-4 4z m0-122c-14 0-25 11-25 25 0 14 11 25 25 25 14 0 25-11 25-25 0-14-11-25-25-25z m0 29c-2 0-3-1-4-2 0-2 0-4 1-5 1-1 3-1 4 0 2 0 3 2 3 3 0 2-2 4-4 4z m0-118c-14 0-25 11-25 25 0 14 11 25 25 25 14 0 25-11 25-25 0-14-11-25-25-25z m0 29c-2 0-3-1-4-2 0-2 0-4 1-5 1-1 3-1 4 0 2 0 3 2 3 3 0 2-2 4-4 4z m-316 280l157 0 0-29-157 0z m0-89l157 0 0-29-157 0z m0-93l157 0 0-29-157 0z m0-89l157 0 0-29-157 0z m325 271l157 0 0-29-157 0z m0-89l157 0 0-29-157 0z m0-93l157 0 0-29-157 0z m0-89l157 0 0-29-157 0z"/>
<glyph glyph-name="artboard-1fusebox" unicode="&#88;" d="M473 37l-432 0c-19 0-35 15-35 35l0 292c0 20 16 35 35 35l432 0c19 0 35-15 35-35l0-292c0-20-16-35-35-35z m-432 333c-3 0-6-2-6-6l0-292c0-4 3-6 6-6l432 0c3 0 6 2 6 6l0 292c0 4-3 6-6 6z m397-288l-362 0c-19 0-35 15-35 35l0 202c0 20 16 35 35 35l362 0c19 0 35-15 35-35l0-202c0-20-16-35-35-35z m-362 243c-3 0-6-2-6-6l0-202c0-4 3-6 6-6l362 0c3 0 6 2 6 6l0 202c0 4-3 6-6 6z m85-91l-80 0 0 71 80 0z m-51 29l22 0 0 13-22 0z m139-29l-79 0 0 71 79 0z m-50 29l21 0 0 13-21 0z m144-29l-80 0 0 71 80 0z m-51 29l22 0 0 13-22 0z m139-29l-79 0 0 71 79 0z m-50 29l21 0 0 13-21 0z m-28-48l79 0 0-56-79 0z m15-27l47 0 0-59-47 0z m-106 27l80 0 0-56-80 0z m15-27l48 0 0-59-48 0z m-109 27l80 0 0-56-80 0z m15-27l48 0 0-59-48 0z m-101 27l80 0 0-56-80 0z m15-27l48 0 0-59-48 0z m9 272l29 0 0-74-29 0z m90 0l29 0 0-74-29 0z m94 0l29 0 0-74-29 0z m87 0l29 0 0-74-29 0z"/>
<glyph glyph-name="artboard-14" unicode="&#89;" d="M251 202c-63 0-114 51-114 114 0 63 51 114 114 114 63 0 114-51 114-114 0-63-51-114-114-114z m0 199c-47 0-85-38-85-85 0-47 38-85 85-85 47 0 85 38 85 85 0 47-38 84-85 85z m1-311c-63 0-114 51-114 114 0 63 51 114 114 114 63 0 114-51 114-114 0-63-51-114-114-114z m0 199c-47 0-85-38-85-85 0-47 38-85 85-85 47 0 85 38 85 85 0 47-38 84-85 85z m-50 179l82 30 5-15-81-29z m2-23l82 30 5-15-82-29z m0-386l82 30 5-15-82-29z m3-22l85 30 5-14-85-31z m-138 69l360 282 18-23-360-282z m402 297c-11-18-23-43-26-63l-11 33-30 19c20-1 47 4 67 11z m-237 98l29 0 0-84-29 0z m0-399l29 0 0-83-29 0z"/>
<glyph glyph-name="artboard-15" unicode="&#90;" d="M258 198c-62 0-112 50-112 112 0 62 50 112 112 112 62 0 112-50 111-112 0-62-50-112-111-112z m0 195c-46 0-83-37-83-83 0-46 37-83 83-83 45 0 82 37 82 83 0 46-37 82-82 83z m62-298c-62 0-112 50-112 112 0 61 50 111 112 111 61 0 111-50 111-111 0-62-50-112-111-112z m0 194c-46 0-83-37-83-82 0-46 37-83 83-83 45 0 82 37 82 83 0 45-37 82-82 82z m-120-194c-62 0-112 50-112 112 0 61 50 111 112 111 62 0 112-50 112-111 0-62-50-112-112-112z m0 194c-46 0-83-37-83-82 0-46 37-83 83-83 46 0 83 37 83 83 0 45-37 82-83 82z m41 208l29 0 0-92-29 0z m63-390l29 0 0-92-29 0z m-135 0l29 0 0-92-29 0z"/>
<glyph glyph-name="artboard-17" unicode="&#48;" d="M27 326l465 0 0-29-465 0z m0-113l465 0 0-29-465 0z"/>
<glyph glyph-name="artboard-18" unicode="&#49;" d="M390 150c-23 0-39 15-63 37-22 20-45 39-69 57-60 43-96 69-129 61-32-7-61-44-83-108l-28 10c27 74 61 117 104 127 46 10 89-20 153-66 25-19 49-38 71-59 25-23 35-31 47-29 27 2 52 48 71 128l28-7c-23-97-54-146-96-150-2 0-4-1-6-1z"/>
<glyph glyph-name="artboard-19" unicode="&#50;" d="M299 259l194 0 0-29-194 0z m-280 0l194 0 0-29-194 0z m259 98l29 0 0-218-29 0z m-70-39l29 0 0-140-29 0z"/>
<glyph glyph-name="artboard-110" unicode="&#51;" d="M294 256l199 0 0-29-199 0z m-274 0l200 0 0-29-200 0z m191 104l29 0 0-240-29 0z m131-248c-53 47-79 104-72 155 7 45 37 82 86 104l12-26c-39-19-64-47-69-82-6-42 17-89 62-129z"/>
<glyph glyph-name="artboard-116" unicode="&#52;" d="M133 490l24 17 80-115-24-16z m89-102c3 17 19 35 33 45-9-26-12-55-6-83-24 16-53 21-81 23 16 9 36 18 54 15z m-207 47l23 17 80-114-23-17z m89-102c3 17 19 36 33 46-9-27-13-56-7-83-23 15-52 20-80 22 15 9 36 18 54 15z m164-329c-88 0-158 71-158 159 0 87 70 158 158 158 87 0 158-71 158-158 0-88-71-159-158-159z m0 288c-72 0-129-58-129-129 0-72 57-130 129-130 71 0 129 58 129 130 0 71-58 129-129 129z m1-60l29 0 0-139-29 0z m-45-24l29 0 0-90-29 0z m-170-33l181 0 0-29-181 0z m230 0l182 0 0-29-182 0z"/>
<glyph glyph-name="artboard-117" unicode="&#53;" d="M258 105c-79 0-144 65-144 144 0 79 65 144 144 144 79 0 143-65 143-144 0-79-64-143-143-144z m0 259c-63 0-115-52-115-115 0-63 52-115 115-115 63 0 114 52 114 115 0 63-51 115-114 115z m23-93c-1 7-6 13-13 15-4 2-8 3-12 3-9 0-17-4-22-10-6-7-9-17-9-30 0-14 3-23 9-29 6-6 14-9 21-9 7 0 14 2 20 7 5 5 8 11 9 18l-26 0 0 18 46 0 0-59-15 0-3 14c-3-5-7-8-12-12-6-3-14-5-22-5-15 0-27 5-36 15-10 10-14 24-14 42 0 18 4 32 14 43 10 11 23 16 39 16 14 0 26-4 34-11 8-6 14-16 15-26z m110-6l112 0 0-29-112 0z m-376 0l113 0 0-29-113 0z"/>
<glyph glyph-name="artboard-121" unicode="&#54;" d="M256 112c-80 0-145 65-145 145 0 80 65 145 145 145 80 0 145-65 145-145 0-80-65-145-145-145z m0 261c-64 0-116-52-116-116 0-64 52-116 116-116 64 0 116 52 116 116 0 64-52 116-116 116z m22-69l24 0-38-112-22 0-38 112 25 0 24-85z m108-31l114 0 0-29-114 0z m-375 0l114 0 0-29-114 0z"/>
<glyph glyph-name="artboard-122" unicode="&#55;" d="M255 118c-81 0-146 65-146 146 0 81 65 146 146 146 81 0 146-65 146-146 0-81-65-146-146-146z m0 263c-65 0-117-52-117-117 0-65 52-117 117-117 65 0 117 52 117 117 0 65-52 117-117 117z m-13-57l26 0 40-112-25 0-8 23-41 0-8-23-25 0z m-2-70l29 0-14 45z m146 26l116 0 0-29-116 0z m-379 0l116 0 0-29-116 0z"/>
<glyph glyph-name="artboard-123" unicode="&#56;" d="M258 137c-77 0-139 62-139 139 0 77 62 140 139 140 77 0 139-63 139-140 0-77-62-139-139-139z m0 250c-61 0-110-50-110-111 0-61 49-110 110-110 61 0 110 49 110 110 0 61-49 111-110 111z m-54-141l23 0 0 1c-6 3-11 8-14 14-3 7-5 15-5 26-1 12 3 23 11 33 4 5 9 9 15 11 7 3 15 5 23 5 8 0 16-2 23-5 6-2 12-6 16-11 7-10 11-21 11-33 0-11-2-19-6-26-3-6-8-11-14-14l0-1 23 0 0-18-43 0 0 20c11 8 18 21 17 35 0 10-2 18-6 24-5 6-11 10-21 10-9-14-16-17-20-10-5 7-7 0-7-24-1-14 6-27 18-35l0-20-44 0z m178 30l110 0 0-29-110 0z m-359 0l110 0 0-29-110 0z"/>
<glyph glyph-name="artboard-124" unicode="&#57;" d="M417 148l-339 0 0 210 339 0z m-310 29l281 0 0 152-281 0z m35 316l29 0 0-195-29 0z m91 0l29 0 0-195-29 0z m90 0l29 0 0-195-29 0z m-44-483l-29 0 0 149-74 120 24 16 79-128z m-74 0l-29 0 0 149-74 120 25 16 78-128z m147 0l-29 0 0 148-77 121 25 16 81-128z m-194 248c-15 0-27 13-27 28 0 15 12 27 27 27 15 0 28-12 28-27 0-15-13-28-28-28z m0 29c0 0-1 0-1-1-1 0 0-1 0-2 1 0 1 0 2 0 1 0 1 1 1 2 0 1-1 1-2 1z m88-29c-15 0-27 13-27 28 0 15 12 27 27 27 15 0 27-12 27-27 0-15-12-28-27-28z m0 29c-1 0-1 0-2-1 0 0 0-1 1-2 0 0 1 0 2 0 0 0 1 1 1 2 0 0 0 1-1 1 0 0-1 0-1 0z m90-29c-15 0-27 13-27 28 0 15 12 27 27 27 15 0 28-12 28-27 0-15-13-28-28-28z m0 29c0 0-1 0-1-1-1 0 0-1 0-2 1 0 1 0 2 0 1 0 1 1 1 2 0 0 0 1 0 1-1 0-1 0-2 0z"/>
<glyph glyph-name="artboard-125" unicode="&#33;" d="M165 288l332 0 0-29-332 0z m-151 1l230 0 0-29-230 0z m225-15c-16 15-23 45-23 66 20-28 47-52 80-66-33-13-58-39-80-66 1 22 7 49 23 66z"/>
<glyph glyph-name="artboard-126" unicode="&#34;" d="M22 280l427 0 0-29-427 0z m422-15c-12 12-18 36-19 52 17-22 39-41 65-52-26-11-47-31-65-53 2 18 6 39 19 53z"/>
<glyph glyph-name="artboard-128" unicode="&#35;" d="M433 335l30 0 0-154-30 0z m16-150c12 12 36 18 52 18-22-16-41-38-52-64-11 26-31 47-53 64 18-1 39-6 53-18z m-208-78c-78 0-141 63-141 141 0 78 63 141 141 141 78 0 141-63 141-141 0-78-63-141-141-141z m0 253c-62 0-112-50-112-112 0-62 50-112 112-112 62 0 112 50 112 112 0 62-50 112-112 112z m-36-72l0 19 27 0 0 28 19 0 0-28 27 0 0-19-27 0 0-27-19 0 0 27z m17-99l39 0 0-18-39 0z m7 304l29 0 0-116-29 0z m0-370l29 0 0-116-29 0z"/>
<glyph glyph-name="artboard-130" unicode="&#36;" d="M433 335l30 0 0-154-30 0z m16-150c12 12 36 18 52 18-22-16-41-38-52-64-11 26-31 47-53 64 18-1 39-6 53-18z m-208-78c-78 0-141 63-141 141 0 78 63 141 141 141 78 0 141-63 141-141 0-78-63-141-141-141z m0 253c-62 0-112-50-112-112 0-62 50-112 112-112 62 0 112 50 112 112 0 62-50 112-112 112z m-12 133l29 0 0-116-29 0z m0-370l29 0 0-116-29 0z m60 85c-11 0-19 7-27 15-7 6-14 12-22 18-16 12-28 20-35 19-2-57-11-5-20-30l-27 10c9 28 23 44 41 48 19 4 35-7 58-23 8-7 17-13 24-21 3-2 6-4 8-6 2 1 9 7 15 34l28-6c-5-24-15-55-40-57-1-1-2-1-3-1z"/>
<glyph glyph-name="artboard-131" unicode="&#37;" d="M241 107c-78 0-141 63-141 141 0 78 63 141 141 141 78 0 141-63 141-141 0-78-63-141-141-141z m0 253c-62 0-112-50-112-112 0-62 50-112 112-112 62 0 112 50 112 112 0 62-50 112-112 112z m-12 133l29 0 0-116-29 0z m0-370l29 0 0-116-29 0z m60 85c-11 0-19 7-27 15-7 6-14 12-22 18-16 12-28 20-35 19-2-57-11-5-20-30l-27 10c9 28 23 44 41 48 19 4 35-7 58-23 8-7 17-13 24-21 3-2 6-4 8-6 2 1 9 7 15 34l28-6c-5-24-15-55-40-57-1-1-2-1-3-1z"/>
<glyph glyph-name="artboard-132" unicode="&#38;" d="M442 156l-365 0 0 210 365 0z m-336 29l307 0 0 152-307 0z m-87 90l482 0 0-29-482 0z"/>
<glyph glyph-name="artboard-139" unicode="&#39;" d="M407 155l-392 0 92 309 397 0z m-358 26l339 0 82 258-344 0z m355-57l-388 0 0 32 24 0 0-8 347 0 78 258 0 33 26 0 0-36z m0-1l-388 0 0 34 25 0 0-9 346 0 78 258 0 34 26 0 0-37z m-387 1l387 0 86 280 0 35-25 0 0-33-78-259-347 0 0 9-23 0z m65 248l367 0 0-26-367 0z m-31-99l371 0 0-26-371 0z m27-109l84 280 25-7-85-280z m74 0l85 280 24-7-84-280z m78 0l84 280 24-7-84-280z m75 0l84 280 25-7-84-280z m-218-104l283 0 0-26-283 0z m99 68l26 0 0-82-26 0z m44 0l26 0 0-82-26 0z"/>
<glyph glyph-name="circuit-breaker" unicode="&#40;" d="M35 432l17 23 441-332-17-23z m450 0l-17 23-441-332 17-23z"/>
<glyph glyph-name="connect-earthing" unicode="&#41;" d="M55 325l0-133 408 0 0 133z m-29 29l466 0 0-191-466 0z m277-96l-88-44 0 87z"/>
<glyph glyph-name="dashedarrow" unicode="&#42;" d="M347 57l-63 63 20 21 63-63 17 17 19-74-74 19z m76 82l-63 63 20 21 63-63 17 17 19-74-73 19z m-295 333l65-66-20-20-66 65z m84-83l65-66-20-20-66 65z m84-82l66-66-21-20-65 65z m-244 83l65-66-20-20-66 65z m84-83l65-66-20-20-66 65z m84-82l65-66-20-20-66 65z"/>
<glyph glyph-name="dashedarrowline" unicode="&#43;" d="M375 47l-55 55 18 18 55-55 15 15 17-65-65 17z m67 71l-55 55 17 18 55-55 15 15 17-64-64 16z m-258 290l57-57-18-18-57 58z m73-72l57-57-17-18-58 57z m74-72l57-57-18-18-57 58z m-214 73l57-57-17-18-58 57z m74-73l57-57-18-18-57 58z m73-71l58-57-18-18-58 57z m-221 96l177 177 19-19-177-177z"/>
<glyph glyph-name="dccurrent" unicode="&#44;" d="M187 108c-82 0-149 67-149 150 0 82 67 149 149 149 83 0 150-67 150-149 0-83-67-150-150-150z m0 29c67 0 121 54 121 121 0 66-54 120-121 120-66 0-120-54-120-120 0-67 54-121 120-121z m-36 168l0 17 28 0 0 28 18 0 0-28 28 0 0-17-28 0 0-28-18 0 0 28z m-1-113l78 0 0-20-78 0z m23 352l29 0 0-143-29 0z m0-418l29 0 0-143-29 0z m246 356l28 0 0-408-28 0z m16-468l-51 101 101 0z"/>
<glyph glyph-name="dcvoltage" unicode="&#45;" d="M187 108c-82 0-149 67-149 150 0 82 67 149 149 149 83 0 150-67 150-149 0-83-67-150-150-150z m0 29c67 0 121 54 121 121 0 66-54 120-121 120-66 0-120-54-120-120 0-67 54-121 120-121z m-36 168l0 17 28 0 0 28 18 0 0-28 28 0 0-17-28 0 0-28-18 0 0 28z m-1-113l78 0 0-20-78 0z m23 352l29 0 0-143-29 0z m0-418l29 0 0-143-29 0z"/>
<glyph glyph-name="earthing" unicode="&#46;" d="M258 25c-133 0-241 108-241 241 0 134 108 242 241 242 134 0 242-108 242-242 0-133-108-241-242-241z m0 29c118 0 213 95 213 212 0 118-95 213-213 213-117 0-212-95-212-213 0-117 95-212 212-212z m-154 247l0 29 310 0 0-29z m36-62l0 29 239 0 0-29z m35-62l0 30 169 0 0-30z"/>
<glyph glyph-name="gdc" unicode="&#47;" d="M256 115c-82 0-149 67-149 149 0 83 67 149 149 149 82 0 149-66 149-149 0-82-67-149-149-149z m0 29c67 0 121 54 121 120 0 67-54 121-121 121-67 0-121-54-121-121 0-66 54-120 121-120z m122 102l0 28 143 0 0-28z m-403 0l0 28 143 0 0-28z m302 76c-2 7-5 12-12 14-3 2-7 3-11 3-8 0-15-3-20-9-5-6-7-16-7-28 0-12 2-21 8-26 5-5 12-7 19-7 7 0 13 2 17 6 5 4 7 9 8 16l-23 0 0 16 42 0 0-53-14 0-2 12c-4-5-8-8-11-10-5-3-12-5-20-5-13 0-24 5-33 14-8 9-13 22-13 37 0 17 5 30 14 39 8 10 20 15 35 15 12 0 23-3 30-10 8-6 12-14 13-24z m-71-117l0 29 101 0 0-29z m0-41l0 29 101 0 0-29z"/>
<glyph glyph-name="ht-panel" unicode="&#58;" d="M52 460l0-406 411 0 0 406z m-19 29l450 0c5 0 9-4 9-10l0-445c0-5-4-10-9-10l-450 0c-6 0-10 5-10 10l0 445c0 6 4 10 10 10z m65-69l0-328 322 0 0 328z m-20 29l362 0c5 0 9-4 9-9l0-368c0-5-4-9-9-9l-362 0c-5 0-9 4-9 9l0 368c0 5 4 9 9 9z m88-48l183 0 0-102-183 0z m18-277l151 0-76 110z m184-18l-217 0 108 158z m-97 101l-32-40 16 0-16-36 39 44-20 0z m115 22c-12 0-22 10-22 22 0 12 10 22 22 22 12 0 22-10 22-22 0-12-10-22-22-22z m0 29c-4 0-7-3-7-7 0-4 3-7 7-7 4 0 7 3 7 7 0 4-3 7-7 7z"/>
<glyph glyph-name="inverter-1" unicode="&#59;" d="M386 134c15 0 28-5 39-14l41 0 0 323-419 0 0-323 15 0c12 24 36 40 64 40 28 0 53-16 64-40l158 0c11 9 24 14 38 14z m-218-43c-1 23-19 40-42 40-22 0-41-17-42-40l-56 0c-5 0-10 4-10 9l0 362c0 6 5 10 10 10l457 0c6 0 10-4 10-10l0-362c0-5-4-9-10-9l-73 0c-5 8-15 14-26 14-10 0-20-6-26-14z m-42-36c-19 0-34 15-34 34 0 19 15 35 34 35 19 0 35-16 35-35 0-19-16-34-35-34z m0 29c3 0 6 2 6 5 0 4-3 6-6 6-3 0-5-2-5-6 0-3 2-5 5-5z m260-27c-12 0-22 10-22 22 0 12 10 22 22 22 12 0 22-10 22-22 0-12-10-22-22-22z m0 29c-4 0-7-3-7-7 0-4 3-7 7-7 4 0 7 3 7 7 0 4-3 7-7 7z m-79 242c-12 0-22 10-22 22 0 12 10 22 22 22 12 0 22-10 22-22 0-12-10-22-22-22z m0 29c-4 0-7-3-7-7 0-4 3-7 7-7 4 0 7 3 7 7 0 4-3 7-7 7z m-36 28l0-200 145 0 0 200z m-20 29l185 0c5 0 9-4 9-9l0-240c0-5-4-9-9-9l-185 0c-5 0-9 4-9 9l0 240c0 5 4 9 9 9z m-188-10l160 0 0-29-160 0z m0-64l160 0 0-29-160 0z m0-66l160 0 0-28-160 0z m0-63l160 0 0-29-160 0z m279 150l24 0 0-23-24 0z m40 0l23 0 0-23-23 0z m-91-50l106 0c5 0 9-4 9-9 0-5-4-9-9-9l-106 0c-5 0-10 4-10 9 0 5 5 9 10 9z m0-37l106 0c5 0 9-4 9-9 0-5-4-9-9-9l-106 0c-5 0-10 4-10 9 0 5 5 9 10 9z m0-36l106 0c5 0 9-5 9-10 0-5-4-9-9-9l-106 0c-5 0-10 4-10 9 0 5 5 10 10 10z"/>
<glyph glyph-name="location" unicode="&#60;" d="M278 184l68 77 1 1c26 21 41 52 41 85 0 60-49 109-109 109-60 0-109-49-109-109 0-31 14-61 37-81l0-1z m-91 61c-29 26-46 63-46 102 0 76 62 138 138 138 76 0 138-62 138-138 0-42-19-80-51-106l-88-100z m-47-172l-40 117 91 31 62-15-7-28-53 13-56-19 21-63 55 16 60-4 64 4 57-16 21 64-43 18-68-19-8 27 77 23 78-33-38-116-79 23-61-4-57 4z m139 217c-34 0-62 28-62 62 0 34 28 61 62 61 34 0 62-27 62-61 0-34-28-62-62-62z m0 29c18 0 33 15 33 33 0 18-15 33-33 33-18 0-33-15-33-33 0-18 15-33 33-33z"/>
<glyph glyph-name="m" unicode="&#61;" d="M272 37c-119 0-214 96-214 214 0 118 95 214 214 214 118 0 214-96 214-214 0-118-96-214-214-214z m0 29c102 0 185 83 185 185 0 102-83 185-185 185-102 0-185-83-185-185 0-102 83-185 185-185z m27 253l43 0 0-142-28 0 0 96c0 3 0 7 0 12 0 5 0 9 0 11l-27-119-28 0-27 119c0-2 0-6 0-11 0-5 0-9 0-12l0-96-28 0 0 142 44 0 25-112z"/>
<glyph glyph-name="resistance" unicode="&#62;" d="M139 275l-29-26-19 22 52 45 45-55 56 56 40-55 58 55 40-54 19 20 21-19-43-47-41 56-58-55-39 55-56-54z m261-20l0 29 122 0 0-29z m-413-6l0 29 123 0 0-29z"/>
<glyph glyph-name="rmu-breaker" unicode="&#63;" d="M208 462l29 0 0-403-29 0z m45 2c0-16-14-30-31-30-16 0-30 14-30 30 0 17 14 31 30 31 17 0 31-14 31-31z m0-421c0-17-14-30-31-30-16 0-30 13-30 30 0 17 14 30 30 30 17 0 31-13 31-30z"/>
<glyph glyph-name="switch" unicode="&#64;" d="M378 246l0 28 143 0 0-28z m-403 0l0 28 143 0 0-28z m384-32c-25 0-46 21-46 46 0 26 21 46 46 46 26 0 46-20 46-46 0-25-20-46-46-46z m0 29c10 0 18 7 18 17 0 10-8 17-18 17-9 0-17-7-17-17 0-10 8-17 17-17z m-222-29c-26 0-46 21-46 46 0 26 20 46 46 46 25 0 46-20 46-46 0-25-21-46-46-46z m0 29c9 0 17 7 17 17 0 10-8 17-17 17-10 0-18-7-18-17 0-10 8-17 18-17z m-10 31l-19 22 220 192 19-22z"/>
<glyph glyph-name="transformer" unicode="&#91;" d="M55 304l0-230 406 0 0 230z m-20 29l446 0c5 0 9-4 9-10l0-268c0-5-4-10-9-10l-446 0c-5 0-9 5-9 10l0 268c0 6 4 10 9 10z m91-288l-11 0z m3 0l-17 0 0-28 17 0z m-14 0l-15 0 0-28 0 28z m11 0l15 0 0-28 0 28z m-26 0l41 0 0-28-41 0z m307 0l-12 0z m3 0l-18 0 0-28 18 0z m-15 0l-14 0 0-28 0 28z m12 0l14 0 0-28 0 28z m-26 0l40 0 0-28-40 0z m-309 246l14 0 0-205-14 0z m103 0l14 0 0-205-14 0z m204 0l14 0 0-205-14 0z m-256 0l14 0 0-205-14 0z m205 0l14 0 0-205-14 0z m103 0l14 0 0-205-14 0z m-333 0l14 0 0-205-14 0z m205 0l14 0 0-205-14 0z m-103 0l14 0 0-205-14 0z m205 0l14 0 0-205-14 0z m-256 0l14 0 0-205-14 0z m205 0l14 0 0-205-14 0z m-263 73l20 9 1 0 0 4 19 0 0-4 2 0 19-9 2 0c2 0 4-2 4-4 0-3-2-5-4-5l-64 0c-3 0-5 2-5 5 0 2 2 4 5 4z m134 0l21 9 0 0 0 4 20 0 0-4 2 0 18-9 2 0c3 0 5-2 5-4 0-3-2-5-5-5l-64 0c-3 0-5 2-5 5 0 2 2 4 5 4z m136 0l20 9 1 0 0 4 19 0 0-4 2 0 19-9 2 0c2 0 4-2 4-4 0-3-2-5-4-5l-65 0c-2 0-5 2-5 5 0 2 3 4 5 4z m-270 27l20 9 1 0 0 4 19 0 0-4 2 0 19-9 2 0c2 0 4-2 4-5 0-2-2-4-4-4l-64 0c-3 0-5 2-5 4 0 3 2 5 5 5z m134 0l20 9 1 0 0 4 19 0 0-4 2 0 19-9 1 0c3 0 5-2 5-5 0-2-2-4-5-4l-63 0c-3 0-5 2-5 4 0 3 2 5 5 5z m136 0l20 9 1 0 0 4 19 0 0-4 2 0 19-9 1 0c3 0 5-2 5-5 0-2-2-4-5-4l-63 0c-3 0-5 2-5 4 0 3 2 5 5 5z m-270 27l20 9 1 0 0 4 19 0 0-4 2 0 19-9 2 0c2 0 4-2 4-5 0-2-2-5-4-5l-64 0c-3 0-5 3-5 5 0 3 2 5 5 5z m134 0l20 9 1 0 0 4 19 0 0-4 2 0 19-9 1 0c3 0 5-2 5-5 0-2-2-5-5-5l-63 0c-3 0-5 3-5 5 0 3 2 5 5 5z m136 0l20 9 1 0 0 4 19 0 0-4 2 0 19-9 1 0c3 0 5-2 5-5 0-2-2-5-5-5l-63 0c-3 0-5 3-5 5 0 3 2 5 5 5z m-270 28l20 9 1 0 0 3 19 0 0-3 2 0 19-9 2 0c2 0 4-2 4-5 0-3-2-5-4-5l-64 0c-3 0-5 2-5 5 0 3 2 5 5 5z m134 0l20 9 1 0 0 3 19 0 0-3 2 0 19-9 1 0c3 0 5-2 5-5 0-3-2-5-5-5l-63 0c-3 0-5 2-5 5 0 3 2 5 5 5z m136 0l20 9 1 0 0 3 19 0 0-3 2 0 19-9 1 0c3 0 5-2 5-5 0-3-2-5-5-5l-63 0c-3 0-5 2-5 5 0 3 2 5 5 5z m-239 32l7-15-15 0z m133 0l8-15-15 0z m137 0l7-15-15 0z m-280-130l19 0 0-22-19 0z m135 0l19 0 0-22-19 0z m135 0l19 0 0-22-19 0z m-105-117l-41-50 20 0-20-44 49 54-24 0z"/>
<glyph glyph-name="transformer2" unicode="&#93;" d="M55 304l0-230 406 0 0 230z m-20 29l446 0c5 0 9-4 9-10l0-268c0-5-4-10-9-10l-446 0c-5 0-9 5-9 10l0 268c0 6 4 10 9 10z m91-288l-11 0z m3 0l-17 0 0-28 17 0z m-14 0l-15 0 0-28 0 28z m11 0l15 0 0-28 0 28z m-26 0l41 0 0-28-41 0z m307 0l-12 0z m3 0l-18 0 0-28 18 0z m-15 0l-14 0 0-28 0 28z m12 0l14 0 0-28 0 28z m-26 0l40 0 0-28-40 0z m-309 246l14 0 0-205-14 0z m103 0l14 0 0-205-14 0z m204 0l14 0 0-205-14 0z m-256 0l14 0 0-205-14 0z m205 0l14 0 0-205-14 0z m103 0l14 0 0-205-14 0z m-333 0l14 0 0-205-14 0z m205 0l14 0 0-205-14 0z m-103 0l14 0 0-205-14 0z m205 0l14 0 0-205-14 0z m-256 0l14 0 0-205-14 0z m205 0l14 0 0-205-14 0z m-263 73l20 9 1 0 0 4 19 0 0-4 2 0 19-9 2 0c2 0 4-2 4-4 0-3-2-5-4-5l-64 0c-3 0-5 2-5 5 0 2 2 4 5 4z m270 0l20 9 1 0 0 4 19 0 0-4 2 0 19-9 2 0c2 0 4-2 4-4 0-3-2-5-4-5l-65 0c-2 0-5 2-5 5 0 2 3 4 5 4z m-270 27l20 9 1 0 0 4 19 0 0-4 2 0 19-9 2 0c2 0 4-2 4-5 0-2-2-4-4-4l-64 0c-3 0-5 2-5 4 0 3 2 5 5 5z m270 0l20 9 1 0 0 4 19 0 0-4 2 0 19-9 1 0c3 0 5-2 5-5 0-2-2-4-5-4l-63 0c-3 0-5 2-5 4 0 3 2 5 5 5z m-270 27l20 9 1 0 0 4 19 0 0-4 2 0 19-9 2 0c2 0 4-2 4-5 0-2-2-5-4-5l-64 0c-3 0-5 3-5 5 0 3 2 5 5 5z m270 0l20 9 1 0 0 4 19 0 0-4 2 0 19-9 1 0c3 0 5-2 5-5 0-2-2-5-5-5l-63 0c-3 0-5 3-5 5 0 3 2 5 5 5z m-270 28l20 9 1 0 0 3 19 0 0-3 2 0 19-9 2 0c2 0 4-2 4-5 0-3-2-5-4-5l-64 0c-3 0-5 2-5 5 0 3 2 5 5 5z m270 0l20 9 1 0 0 3 19 0 0-3 2 0 19-9 1 0c3 0 5-2 5-5 0-3-2-5-5-5l-63 0c-3 0-5 2-5 5 0 3 2 5 5 5z m-239 32l7-15-15 0z m270 0l7-15-15 0z m-280-130l19 0 0-22-19 0z m270 0l19 0 0-22-19 0z m-105-117l-41-50 20 0-20-44 49 54-24 0z"/>
<glyph glyph-name="variableresistance" unicode="&#94;" d="M139 275l-29-26-19 22 52 45 45-55 56 56 40-55 58 55 40-54 19 20 21-19-43-47-41 56-58-55-39 55-56-54z m261-20l0 29 122 0 0-29z m-413-6l0 29 123 0 0-29z m175-179l-24 14 220 372 24-14z m237 428l-7-88-68 41z"/>
<glyph glyph-name="wind" unicode="&#95;" d="M72 235l306 0c45 0 81 36 81 81 0 44-36 80-81 80-4 0-32 0-53-21-15-14-22-33-22-56 0-11 9-19 19-19 11 0 19 8 19 19 0 13 3 23 10 29 10 10 26 10 27 10 0 0 0 0 0 0 24 0 43-19 43-42 0-24-19-43-43-43l-306 0c-10 0-19-8-19-19 0-10 9-19 19-19z m0 74l146 0c44 0 81 36 81 81 0 44-36 80-81 80-4 0-32 0-54-21-14-14-21-33-21-56 0-11 9-19 19-19 10 0 19 8 19 19 0 13 3 23 10 29 10 10 25 10 27 10 0 0 0 0 0 0 24 0 43-19 43-42 0-24-19-43-43-43l-146 0c-10 0-19-8-19-19 0-10 9-19 19-19z m306-106l-306 0c-10 0-19-9-19-19 0-11 9-19 19-19l306 0c24 0 43-19 43-43 0-23-19-42-43-42 0 0 0 0 0 0-1 0-17 0-27 10-7 6-10 16-10 29 0 11-8 19-19 19-10 0-19-8-19-19 0-23 7-42 22-56 20-20 47-21 53-21 0 0 0 0 0 0 45 0 81 36 81 80 0 45-36 81-81 81z"/>
<glyph glyph-name="wind-1" unicode="&#96;" d="M7 241c30-26 65-56 131-56 66 0 101 30 131 56 29 24 53 46 105 46 52 0 76-22 105-46 8-7 21-6 28 2 7 8 6 21-2 28-30 26-65 56-131 56-66 0-101-30-131-56-29-24-53-46-105-46-52 0-76 22-105 46-8 7-21 6-28-2-7-8-6-21 2-28z m0 109c30-26 65-55 131-55 66 0 101 29 131 55 29 25 53 46 105 46 52 0 76-21 105-46 8-7 21-6 28 2 7 9 6 21-2 29-30 26-65 55-131 55-66 0-101-29-131-55-29-25-53-46-105-46-52 0-76 21-105 46-8 7-21 6-28-3-7-8-6-21 2-28z m498-188c-30 26-65 55-131 55-66 0-101-29-131-55-29-25-53-46-105-46-52 0-76 21-105 46l0 0c-8 7-21 6-28-2-7-9-6-21 2-29 30-26 65-55 131-55 66 0 101 29 131 55 29 25 53 46 105 46 52 0 76-21 105-46 8-7 21-6 28 3 7 8 6 21-2 28z"/>
<glyph glyph-name="triangle-up" unicode="&#70;" d="M256 512l256-512-512 0z"/>
<glyph glyph-name="square" unicode="&#123;" d="M497 497l0-482-482 0 0 482z"/>
<glyph glyph-name="signal-browser" unicode="&#124;" d="M497 257l-166 169c-8 8-18 15-29 19l-106 42c-20 8-43 3-59-13l-69-71c-16-16-21-40-13-60l12-32c-21-25-39-56-51-86-23-58-21-105 5-125 7-6 16-9 25-9 3 0 6 0 9 1 33 6 69 51 90 83l136-139c21-20 56-20 78 2l136 139c22 23 23 58 2 80z m-288 73c-9-10-21-14-33-13 0 0-1 0-1 0 0 0-5 0-6 0-25 0-56-26-80-63l7-19c4-11 11-21 19-29l12-13c-23-33-54-71-77-76-5-1-10 0-14 3-15 12-14 50 3 95 26 66 82 132 135 128 7 0 13 5 14 12 0 7-5 13-12 14-13 1-26-1-39-6 1 10 4 20 12 28 17 17 44 17 60 0 17-17 17-44 0-61z"/>
<glyph glyph-name="signal-expression" unicode="&#125;" d="M256 512c141 0 256-115 256-256 0-141-115-256-256-256-141 0-256 115-256 256 0 141 115 256 256 256z m-49-366l48 0 53 218-47 0z m152 220l-32-32 76-80-76-79 32-31 102 112z m-203 0l-102-110 102-112 31 31-75 79 75 80z"/>
<glyph glyph-name="exclamation" unicode="&#126;" d="M193 213l-12 241c-1 32 32 58 75 58 43 0 76-26 75-58l-13-241c-2-32-30-58-63-58-32 0-60 26-62 58z m62-213c-31 0-57 25-57 57 0 31 26 56 57 56 32 0 58-25 58-56 0-32-26-57-58-57z"/>
<glyph glyph-name="pencil-only" unicode="&#92;" d="M142 47l-95 95 351 350c26 27 68 27 94 0 27-26 27-68 0-94z m-142-47l28 123 95-95z"/>
<glyph glyph-name="arrow-left" unicode="&#57344;" d="M132 274l-19-18 0 0 0 0 19-18 228-224 39 37-209 205 209 205-39 37z"/>
<glyph glyph-name="home" unicode="&#57346;" d="M502 295l-228 189c-10 9-26 9-36 0l-228-189c-12-10-13-27-3-39 10-11 27-13 39-3l4 3 0-218c0-9 8-17 17-17l129 0 0 188 120 0 0-188 129 0c9 0 17 8 17 17l0 218 4-3c5-4 12-6 18-6 8 0 16 3 21 9 10 12 9 29-3 39z"/>
<glyph glyph-name="alert" unicode="&#57347;" d="M505 105c10-18 9-39-1-56-9-17-28-28-47-28l-402 0c-19 0-38 11-47 28-10 17-11 38-1 56l201 357c10 18 28 29 48 29 20 0 38-11 48-29z m-224-3c6 6 9 14 9 23 0 8-3 16-9 22-6 6-14 9-22 9-8 0-16-3-22-9-5-6-9-14-9-22 0-9 4-17 10-23 6-5 14-8 21-8 8 0 16 3 22 8z m8 207c1 9 1 17 1 25 1 11-1 22-5 33-4 9-13 15-23 14-9 1-18-3-24-9-6-8-9-17-8-26 0-8 0-20 1-38l6-89c1-9 3-18 6-27 3-6 9-10 16-10 8 0 14 4 17 11 3 8 5 16 5 25z"/>
<glyph glyph-name="signal-properties" unicode="&#57348;" d="M64 344c-4 9 1 20 10 24l9 4c-1 9-2 18 0 28l-9 4c-9 4-13 17-10 27l3 6c4 10 15 12 24 8l9-4c6 8 13 16 21 21l-4 11c-4 9 1 20 10 24l7 3c9 4 19-1 23-10l4-11c9 2 18 2 27 0l5 10c4 10 14 12 23 8l6-3c10-4 14-13 10-22l-4-11c8-6 14-13 19-20l11 4c9 4 20-1 24-10l2-7c3-8 1-17-5-22l-62-25c3 19-8 40-26 48-23 10-49-1-59-24-8-20-2-42 13-54l-59-25c-8-1-16 3-19 11z m448-25c1-10-2-18-2-18l0 0-29-111c-5-16-18-34-31-39l-333-139c-13-5-29 4-35 20l-79 203c-7 16-1 34 12 40l333 139c13 5 35 2 48-6l99-61c9-5 16-18 17-28z"/>
<glyph glyph-name="info-circle" unicode="&#114;" d="M256 512c-141 0-256-115-256-256 0-141 115-256 256-256 141 0 256 115 256 256 0 141-115 256-256 256z m58-411c-5-4-10-8-16-11-6-3-12-5-19-7-7-1-23-2-32-2-17 0-30 4-39 12-10 8-19 20-19 34 0 6 1 14 2 22 0 0 18 106 18 106 1 1 1 3 2 6 0 2 0 4 1 5 0 2 0 4 0 5 0 2 0 3 0 3 0 4 0 8-1 10-1 3-2 5-4 6-2 1-4 2-7 3-3 0-7 0-11 0 0 0-16 3-16 13 0 14 21 12 20 12 18 0 67 0 91 0 26 0 12-46 16-28-10-43-21-113-21-113-2-8-4-12-5-19-1-7-1-14-1-20 0-7 1-12 4-16 2-3 6-5 11-5 5 0 9 1 13 3 7 3 21 15 26 7 8-10-7-21-13-26z m-123 50c0-2 0-3 0-4-1 0 0 1 0 4z m72 187c-25 0-46 21-46 47 0 26 21 46 46 46 25 0 46-20 46-46 0-26-21-47-46-47z"/>
<glyph glyph-name="info-text" unicode="&#115;" d="M350 29c-7-5-15-10-24-15-8-4-18-7-28-10-10-3-36-4-48-4-26 0-46 6-60 18-14 12-28 29-28 50 0 9 1 19 3 31 0 0 28 155 28 155 0 3 1 6 2 9 0 3 1 5 1 8 1 3 1 5 1 7 0 2 0 4 0 4 0 6 0 11-2 15-1 4-3 7-6 9-3 1-6 3-11 3-4 1-10 1-16 1 0 0-23 4-23 19 0 20 31 17 29 17 28 0 101 0 137 0 39 0 18-67 23-41-13-63-31-164-31-164-3-12-5-18-7-28-1-11-2-20-2-30 0-10 2-17 6-22 4-5 10-8 17-8 7 0 14 1 20 4 10 4 31 22 39 11 11-15-10-31-20-39z m-77 347c-38 0-69 31-69 68 0 38 31 68 69 68 39 0 70-30 70-68 0-37-31-68-70-68z"/>
<glyph glyph-name="inverter" unicode="&#116;" d="M507 303l0 83-410 0-82-111 0-249 492 0 0 83-55 0 0 194z m-260-194l-136 0 0 55 136 0z m0 111l-136 0 0 55 136 0z m62 277c34 0 61-28 61-63l0-104-218 0 0 104c0 35 27 63 61 63z"/>
<glyph glyph-name="next" unicode="&#57345;" d="M102 506l222-192 0 171c0 15 12 27 26 27l72 0c14 0 26-12 26-27l0-457c0-14-12-26-26-26l-72 0c-7 0-13 2-18 7-5 5-8 12-8 19l0 170-222-192c-7-6-16-8-24-4-9 4-14 12-14 22l0 464c0 10 5 18 14 22 8 4 17 2 24-4z"/>
<glyph glyph-name="previous" unicode="&#57350;" d="M427 506l-246-192 0 171c0 15-13 27-29 27l-80 0c-16 0-29-12-29-27l0-457c0-14 13-26 29-26l79 0c8 0 15 2 21 7 5 5 8 12 9 19l0 170 246-192c7-6 18-8 27-4 9 4 15 12 15 22l0 464c0 10-6 18-15 22-9 4-20 2-27-4z"/>
<glyph glyph-name="if-icon-play-211876" unicode="&#113;" d="M405 279l-278 166c-4 2-7 3-11 3-11 0-20-9-20-20l0 0 0-344 0 0c0-11 9-20 20-20 4 0 7 1 11 3l278 166c7 5 11 14 11 23 0 9-4 17-11 23z"/>
<glyph glyph-name="play" unicode="&#57349;" d="M455 287l-371 221c-5 2-9 4-15 4-14 0-26-12-26-27l0 0 0-458 0 0c0-15 12-27 26-27 6 0 10 2 15 5l371 220c9 8 14 19 14 31 0 12-5 23-14 31z"/>
<glyph glyph-name="next1" unicode="&#57351;" d="M41 505l191-190 0 173c0 9 5 18 14 22 9 4 20 2 27-5l232-231c4-5 7-11 7-18 0-7-3-13-7-18l-232-231c-7-7-18-9-27-5-9 4-14 13-14 22l0 173-191-190c-7-7-17-9-26-5-9 4-15 13-15 22l0 464c0 9 6 18 15 22 9 4 19 2 26-5z"/>
<glyph glyph-name="analytics" unicode="&#57353;" d="M73 154c-41 0-73-34-73-77 0-43 32-77 73-77 40 0 72 34 72 77 0 26-11 47-28 61l51 114c3 0 4 0 7 0 14 0 29 5 40 13l79-95c-9-13-14-29-14-46 0-43 32-77 72-77 40 0 73 34 73 77 0 26-12 50-31 64l44 170 1 0c41 0 73 34 73 77 0 43-32 77-73 77-40 0-69-34-69-77 0-33 18-60 45-71l-43-164c-5 1-11 3-17 3-15 0-28-5-39-13l-79 95c8 13 13 29 13 44 0 43-32 77-73 77-40 0-72-34-72-77 0-30 16-55 40-68l-51-110c-7 2-13 3-21 3z"/>
<glyph glyph-name="app-store" unicode="&#57354;" d="M467 448c-5 13-16 21-30 21l-362 0c-13 0-25-8-29-21l-46-133c0-28 18-54 45-63 1 0 2 0 3-1l0-164c0-25 19-44 44-44l328 0c24 0 44 19 44 44l0 164c1 1 2 1 3 1 27 9 45 35 45 63z m-372-296l0 103c11 5 20 13 27 23 3 6 12 6 15 0 12-18 33-29 56-29 23 0 43 11 55 29 4 6 12 6 16 0 12-18 32-29 55-29 24 0 44 11 56 29 4 6 12 6 15 0 7-10 16-18 27-23l0-103-322 0z"/>
<glyph glyph-name="connection" unicode="&#57358;" d="M145 191c2-2 0-7-3-13l-77-77c-6-5-13-5-16 0-26 33-41 75-49 116 0 8 5 13 10 13l112 0c5 0 7-2 10-8 2-10 8-20 13-31z m72 321c8 0 13-5 13-10l0-112c0-5-2-7-8-10-10-2-20-8-31-13-5 0-10 0-13 3l-77 77c-5 6-5 13 0 16 33 26 75 41 116 49z m73-132c-6 3-8 5-8 10l0 112c0 5 8 10 13 10 44-8 83-23 116-49 5-3 5-10 0-16l-77-77c-3-5-8-5-13-3-11 5-21 11-31 13z m-280-98c-5 0-10 5-10 13 8 41 23 83 49 116 3 5 10 5 16 0l77-77c3-6 5-11 3-13-5-11-11-21-13-31-3-6-5-8-10-8z m357 39c-2 2 0 7 3 13l77 77c6 5 13 5 16 0 26-33 41-75 49-116 0-8-5-13-10-13l-112 0c-5 0-7 2-10 8-2 10-8 20-13 31z m135-91c5 0 10-5 10-13-8-44-23-83-49-116-3-5-10-5-16 0l-77 77c-5 3-5 8-3 13 5 11 11 21 13 31 3 6 5 8 10 8z m-280-98c6-3 8-5 8-10l0-112c0-5-8-10-13-10-44 8-83 23-116 49-5 3-5 10 0 16l77 77c3 5 8 5 13 3 11-5 21-11 31-13z m112 10l77-77c5-6 5-13 0-16-33-26-72-44-116-49-8 0-13 5-13 10l0 112c0 5 2 10 8 10 10 2 20 8 31 13 5 0 10 0 13-3z"/>
<glyph glyph-name="data-models" unicode="&#57360;" d="M0 381l239-102 0-273-229 98c-6 2-10 9-10 15z m273-375l0 273 239 102 0-262c0-6-4-13-10-15z m222 405l-239-102-239 102 232 100c5 1 9 1 14 0z"/>
<glyph glyph-name="database" unicode="&#57361;" d="M507 261l0 52c0 5-7 8-11 5-52-42-146-63-240-63-93 0-187 21-240 63-4 3-11 0-11-5l0-52c0-1 0-2 0-4 0-60 112-109 251-109 139 0 251 49 251 110 0 1 0 2 0 3z m0-143l0 52c0 5-7 8-11 5-52-42-146-63-240-63-93 0-187 21-240 63-4 3-11 0-11-5l0-52c0-1 0-2 0-4 0-60 112-109 251-109 139 0 251 49 251 110 0 1 0 2 0 3z m0 279c0 60-113 110-251 110-138 0-251-50-251-110 0-61 113-110 251-110 138 0 251 49 251 110z"/>
<glyph glyph-name="delete" unicode="&#57362;" d="M482 416l-113 0 0 32c0 64-32 64-65 64l-96 0c-65 0-65-32-65-64l0-32-113 0c-8 0-16-7-16-16l0-32c0-9 8-16 16-16l452 0c9 0 16 7 16 16l0 32c0 9-7 16-16 16z m-178 0l-96 0 0 32 96 0z m65-99l-1 3 65 0 0-304c0-9-7-16-16-16l-322 0c-9 0-16 7-16 16l0 304 65 0-1-3 0-237c0-9 7-16 16-16 9 0 16 7 16 16l0 237 0 3 65 0 0-3 0-237c0-9 7-16 16-16 9 0 16 7 16 16l0 237 0 3 65 0 0-3 0-237c0-9 7-16 16-16 9 0 16 7 16 16z"/>
<glyph glyph-name="disk" unicode="&#57363;" d="M476 478c-148 21-298 21-446 0-17-3-29-17-30-34l0-58c1-18 15-32 32-34l445 0c17 0 26 18 26 34l0 58c0 16-11 31-27 34z m-320-73l-68 0c-5-1-10 2-13 6-2 4-2 10 0 14 3 4 8 7 13 6l68 0c5 1 10-2 12-6 3-4 3-10 0-14-2-4-7-7-12-6z m319-254l-444 0c-17-1-31-15-31-32l0-58c1-17 13-32 30-34 147-21 297-21 444 0 17 2 29 17 29 34l0 58c1 16-11 30-28 32z m-326-79l-68 0c-5-1-10 2-13 6-2 4-2 10 0 14 3 4 8 7 13 6l68 0c5 1 10-2 12-6 3-4 3-10 0-14-2-4-7-7-12-6z m325 237l-445 0c-16 0-29-14-29-30l0-55c0-8 3-15 9-21 5-5 13-8 20-8l445 0c8 0 15 3 21 8 5 6 8 13 8 21l0 55c0 8-3 15-8 21-6 5-13 9-21 9z m-309-58c0-7-6-13-13-13l-70 0c-7 0-13 6-13 13l0 1c0 7 6 13 13 13l70 0c7 0 13-6 13-13l0-1z"/>
<glyph glyph-name="document" unicode="&#57364;" d="M449 410l-86 82c-12 12-19 20-36 20l0-137 142 0c0 14-7 22-20 35z m-157-35l0 137-214 0c-19 0-35-15-35-34l0-444c0-19 16-34 35-34l356 0c19 0 35 15 35 34l0 307-142 0c-21 0-35 17-35 34z"/>
<glyph glyph-name="fill-colour" unicode="&#57366;" d="M459 273l-166 166c-9 9-23 9-32 0l-44-44-89 88c-8 10-23 10-32 1-9-8-10-23-1-32l89-89-155-155c-9-8-9-22 0-31l166-166c8-9 22-9 31 0l233 232c7 9 7 21 0 30z m-103-71l-269 0 129 129 12-12c9-7 22-7 30 1 8 9 9 22 1 30l-12 12 30 30 135-135z m107 17c8-11 47-68 47-95 0-30-25-55-56-55-30 0-55 25-55 55 0 27 38 84 46 95 2 3 6 5 9 5 4 0 7-2 9-5z"/>
<glyph glyph-name="function" unicode="&#57367;" d="M464 303l-45-92 45-92-60 0-30 61-30-61-60 0 45 92-45 92 60 0 30-61 30 61z m-380-296l0 277-50 0 0 68 50 0 0 29c0 39 11 69 33 90 21 21 52 32 91 32 12 0 28-2 46-6l-1-72c-8 2-17 3-28 3-34 0-50-16-50-49l0-27 67 0 0-68-67 0 0-277z"/>
<glyph glyph-name="help" unicode="&#57368;" d="M253 508c-135 0-245-110-245-245 0-136 110-246 245-246 136 0 246 110 246 246 0 135-110 245-246 245z m30-381c0-7-3-13-9-18-5-6-13-9-23-9-10 0-18 3-24 8-7 6-10 12-10 19l0 12c0 7 3 14 10 19 6 6 14 8 24 8 10 0 18-2 23-8 6-5 9-12 9-19z m67 181c-4-7-9-14-15-20-6-5-12-10-19-14-6-4-12-9-18-13-5-5-10-10-13-16-3-5-5-11-5-19l0-8c0-5-3-10-7-15-5-6-12-9-20-9l-2 0c-8 0-15 2-20 7-5 5-8 10-8 17 0 14 2 26 6 35 4 10 9 18 14 25 6 7 12 12 19 17 6 5 12 10 18 14 5 4 9 9 13 14 3 4 5 9 5 16 0 10-3 18-9 23-6 5-15 8-25 8-7 0-13-1-18-2-4 0-9-2-13-4-4-2-7-4-10-8-4-3-8-7-11-13-4-4-9-8-15-10-7-3-14-2-22 2-7 3-11 8-12 13-2 5-2 10 0 16 1 4 3 10 8 17 5 6 11 13 19 19 8 6 19 11 31 16 12 4 27 7 43 7 17 0 31-3 43-8 12-5 21-11 28-20 8-8 13-17 16-27 3-10 5-21 5-32 0-10-2-20-6-28z"/>
<glyph glyph-name="inactive" unicode="&#57369;" d="M337 428c91-27 154-114 154-209 0-121-97-219-216-219-81 0-154 45-191 119-2 3-1 8 1 11 3 3 7 5 11 3 18-5 37-8 56-8 108 0 195 89 195 198 0 32-7 62-22 90-1 4-1 9 2 12 2 3 7 4 10 3z m-223-115c-6 0-11 4-11 10 0 6 5 10 11 10l102 0c4 0 8-2 9-6 2-3 2-8-1-11l-88-108 80 0c6 0 10-4 10-10 0-6-4-10-10-10l-102 0c-4 0-8 2-10 6-1 3-1 7 2 11l88 108z m-11 64c0-6-4-11-10-11l-61 0c-4 0-8 2-10 6-1 3-1 8 1 11l50 66-41 0c-6 0-11 5-11 11 0 6 5 10 11 10l61 0c4 0 8-2 9-5 2-4 2-8-1-11l-49-67 41 0c6 0 10-5 10-10z m52 114c-6 0-11 5-11 11 0 5 5 10 11 10l41 0c3 0 7-2 9-6 1-3 1-7-1-10l-30-47 22 0c5 0 10-4 10-10 0-6-5-10-10-10l-41 0c-4 0-8 2-9 5-2 4-2 8 0 11l30 46z"/>
<glyph glyph-name="information-model" unicode="&#57370;" d="M202 256c0-51-41-91-90-91-50 0-91 40-91 91 0 50 41 91 91 91 49 0 90-41 90-91z m216 256c-39 0-72-33-72-73 0-41 33-73 72-73 40 0 73 32 73 73 0 40-33 73-73 73z m0-366c-39 0-72-32-72-73 0-40 33-73 72-73 40 0 73 33 73 73 0 41-33 73-73 73z m0 183c-39 0-72-33-72-73 0-40 33-73 72-73 40 0 73 33 73 73 0 40-33 73-73 73z m-138 128l38 0c5 0 10-5 10-11l0-15c0-6-5-10-10-10l-26 0 0-147 26 0c5 0 10-5 10-10l0-16c0-6-5-10-10-10l-26 0 0-147 26 0c5 0 10-4 10-10l0-15c0-6-5-11-10-11l-38 0c-13 0-24 11-24 24l0 159-26 0c-5 0-10 4-10 10l0 16c0 5 5 10 10 10l26 0 0 159c0 13 11 24 24 24z"/>
<glyph glyph-name="line-colour" unicode="&#57371;" d="M62 9l0 62 393 0 0-62z m149 470l219-148-148-220-220 149 131 194-38 26 18 25z m185-286c0 16 29 52 29 52 0 0 30-36 30-52 0-17-13-30-30-30-16 0-29 13-29 30z"/>
<glyph glyph-name="link" unicode="&#57372;" d="M461 457c46-46 46-121 0-168l-82-81c-22-23-52-35-84-35 0 0 0 0 0 0-32 0-61 12-84 35-11 11-11 28 0 39 6 6 13 8 20 8 7 0 14-2 20-8 12-12 27-18 44-18 0 0 0 0 0 0 17 0 32 7 44 18l82 82c24 24 24 64 0 88l-4 4c-24 24-64 24-88 0l-67-67c-14 5-29 8-45 8l0 0c-9 0-17-1-25-3 4 7 10 14 16 20l81 82c47 46 122 46 168 0z m-211-299c14-5 29-8 45-8 9 0 17 1 25 3-4-7-10-14-16-20l-81-82c-47-46-122-46-168 0l-4 4c-46 46-46 121 0 168l82 81c22 23 52 35 84 35 0 0 0 0 0 0 32 0 61-12 84-35 11-11 11-28 0-39-6-6-13-9-20-9-7 0-14 3-20 9-12 12-27 18-44 18 0 0 0 0 0 0-17 0-32-7-44-18l-82-82c-24-24-24-64 0-88l4-4c24-24 64-24 88 0z"/>
<glyph glyph-name="logout" unicode="&#57373;" d="M391 64l-101 0 0-45c0-7-4-12-10-16-6-4-13-4-20-1l-163 66 0 0c-25 9-44 33-44 60l0 320c0 35 31 64 68 64l12 0c1 0 1 0 1 0l237 0c0 0 0 0 1 0l19 0c37 0 68-29 68-64l0-320c0-35-31-64-68-64z m-152 143l17-8 0 50-17 8z m152 209c0 18-15 32-34 32l-117 0 39-18c7-4 11-10 11-18l0-284 67 0c19 0 34 14 34 32z"/>
<glyph glyph-name="menu" unicode="&#57374;" d="M0 85l512 0 0 57-512 0z m0 143l512 0 0 56-512 0z m0 199l0-57 512 0 0 57z"/>
<glyph glyph-name="play-2" unicode="&#57375;" d="M430 296l-237 211c-4 3-9 5-14 5l-94 0c-12 0-21-10-21-21l0-470c0-11 9-21 21-21l94 0c5 0 10 2 14 5l237 211c24 21 24 59 0 80z"/>
<glyph glyph-name="profile" unicode="&#57376;" d="M148 401c0 61 48 111 108 111 60 0 108-50 108-111 0-62-48-112-108-112-29 0-56 12-76 33-21 21-32 49-32 79z m108-156c-124 0-224-95-224-212 0-8 1-16 2-24 1-5 5-9 10-9l424 0c5 0 9 4 10 9 1 8 2 16 2 24 0 117-100 212-224 212z"/>
<glyph glyph-name="refresh" unicode="&#57377;" d="M405 93l-24 25c-9 9-22 9-32 2-68-54-167-47-227 20-60 68-57 175 7 239 64 65 168 66 233 2l-29-30c-14-14-6-38 13-41l139-23c15-3 29 12 27 28l-23 142c-3 19-26 27-40 13l-29-30c-101 100-265 96-360-14-80-92-80-250 0-341 91-103 243-112 344-28 11 9 11 26 1 36z"/>
<glyph glyph-name="square-filled" unicode="&#57381;" d="M70 512l372 0c38 0 70-32 70-70l0-372c0-38-32-70-70-70l-372 0c-38 0-70 32-70 70l0 372c0 38 32 70 70 70z"/>
<glyph glyph-name="text-color" unicode="&#57382;" d="M313 413l0-92-100 0 0-226-92 0c0 7 0 13 1 20l0 188c-1 5-1 11-1 18l-99 0 0 92c97 0 194 0 291 0z m88-320c52 0 94 43 94 97 0 34-63 167-88 223l-12 0c-25-56-88-189-88-223 0-54 42-97 94-97z"/>
<glyph glyph-name="circle-filled" unicode="&#57383;" d="M512 256c0-141-115-256-256-256-141 0-256 115-256 256 0 141 115 256 256 256 141 0 256-115 256-256z m-313-147l-118 116 39 39 79-77 176 173 40-39z"/>
<glyph glyph-name="twin-models" unicode="&#57386;" d="M230 465l235 0 0-279-46 0 0-46 46 0c26 0 47 21 47 46l0 279c0 26-21 47-47 47l-279 0c-26 0-46-21-46-47l0-46 46 0 0 46z m-230-139c0 26 21 46 47 46l279 0c26 0 46-20 46-46l0-279c0-26-20-47-46-47l-279 0c-26 0-47 21-47 47z"/>
<glyph glyph-name="updated" unicode="&#57387;" d="M171 62c5-2 8-9 5-14-1-5-5-7-10-7-1 0-3 0-4 1-86 37-141 121-141 214 0 120 92 220 209 232l-4 5c-5 4-5 11 0 16 4 4 11 4 16 0l22-23c1-1 2-2 2-3 1-3 1-6 0-9 0-1-1-2-2-3l-22-23c-3-2-5-3-8-3-3 0-6 1-8 3-5 5-5 12 0 16l1 1c-103-14-183-102-183-209 0-84 50-160 127-194z m320 194c0-120-92-220-209-232l4-5c5-4 5-11 0-16-2-2-5-3-8-3-3 0-5 1-8 3l-22 23c-1 1-2 2-2 3-1 3-1 6 0 9 0 1 1 2 2 3l22 23c5 4 12 4 16 0 5-5 5-12 0-16l-1-1c103 14 183 102 183 209 0 83-49 159-126 193-5 3-8 9-5 15 2 6 9 8 15 6 84-38 139-122 139-214z m-380 0c0 80 65 145 145 145 80 0 145-65 145-145 0-80-65-145-145-145-80 0-145 65-145 145z m185 43c-5 3-12 2-16-3l-37-56-13 13c-4 4-11 4-15 0-5-5-5-12 0-16l22-22c2-2 5-4 8-4 0 0 1 0 1 1 3 0 6 2 8 4l45 67c3 5 2 12-3 16z"/>
<glyph glyph-name="user" unicode="&#57388;" d="M507 98c3-6 5-14 5-22 0-27-20-50-47-55l-313 0c-27 5-47 28-47 55 0 8 2 16 5 22 16 39 80 73 134 88 5 3 9 8 9 15 0 4-1 7-3 10-20 21-40 53-40 94 0 55 32 108 99 108 66 0 98-53 98-108 0-41-20-73-40-94-2-3-3-6-3-10 0-7 4-12 10-15 53-15 117-49 133-88z m-298 100c-41-16-80-39-104-65l-62 0c-24 4-43 25-43 50 0 7 2 14 4 20 15 36 74 67 123 81 5 2 9 7 9 13 0 4-2 7-4 9-18 19-36 49-36 87 0 49 29 98 90 98 43 0 70-24 82-56-58-14-87-68-87-124 0-38 15-70 33-94l0 0c1-2 2-4 2-7 0-5-3-10-7-12z"/>
<glyph glyph-name="value-editor" unicode="&#57389;" d="M88 512l336 0c48 0 88-40 88-88l0-336c0-48-40-88-88-88l-336 0c-48 0-88 40-88 88l0 336c0 48 40 88 88 88z m-11-286l0 30 112 47 0-36-75-27 0-1 75-26 0-35-112 47z m126-72l70 204 37 0-70-204z m124 24l0 35 75 27 0 2-75 27 0 35 112-47 0-29-112-47z"/>
<glyph glyph-name="variable" unicode="&#57390;" d="M498 232c-7 1-3 10-9 12l-44 10c6 2 37-4 44-3z m-42 12c-24-6-32-21-32-43 0-5 0-15 0-35l0-1c0-24-1-31-1-36 0-32-16-49-49-49l0-7-7 0c40 0 0-28 0 7 0 6 38 0 48 19 0 25 0 80 0 86 0 16 5 57 21 65z m-17 57c0 6-1 15-1 39 0 25 0 34 0 39 0 39-22 56-63 56l-1 0 1 10c32 0 70-20 70-52 0-5 0-2 0-24l0-28c1-20 11-48 11-54 0-21-17-18 6-24l6-19c-19 8-29 41-29 57z m-34 5c0 6 0 15 0 34 0 24 0 31 0 36 0 22-10 33-32 33l-18 0 0 46 20 0c51 0 81-25 81-76 0-5 0-14 1-38 0-25 0-34 0-40 0-13 15-25 41-25l10 0 0-44-10 0c-27 0-41-12-41-26 0-6 0-15 0-40-1-25-1-34-1-40 0-47-31-72-81-72l-20 0 0 45 18 0c23 0 32 9 32 30 0 5 0 12 0 36l0 1c0 20 0 30 0 35 0 24 12 42 31 52-19 11-31 30-31 53z m-303-104c0-5 1-14 1-34 0-23 0-30 0-35 0-23 10-34 31-34l19 0 0-45-20 0c-51 0-82 25-82 75 0 5 0 15 0 39-1 24-1 34-1 39 0 13-15 26-41 26l-9 0 0 44 9 0c27 0 41 11 41 25 0 6 0 15 1 41 0 24 0 34 0 39 0 48 32 73 82 73l20 0 0-46-19 0c-23 0-31-8-31-30 0-5 0-12 0-35l0-1c0-21-1-31-1-36 1-23-11-41-30-52 19-11 31-29 30-53z m129 102l22-26 24 26c-4 0-8 2-10 5-2 3-3 9-3 16 0 7 2 12 5 16 4 4 9 6 16 6l45 0c9 0 16-2 20-6 4-3 6-9 6-18 0-8-2-13-6-17-4-4-10-6-19-6l-8 0-44-48 53-54 4 0c9 0 15-2 19-6 4-4 6-10 6-18 0-8-2-14-6-18-5-3-12-5-21-5l-51 0c-7 0-12 2-15 6-4 3-6 9-6 16 0 7 1 12 4 16 2 3 5 5 10 5l2 0-27 29-26-29 1 0c5 0 9-2 11-5 2-3 3-8 3-15 0-8-1-14-5-17-3-4-8-6-16-6l-44 0c-10 0-16 2-20 5-4 4-6 10-6 18 0 8 2 14 5 18 4 4 10 6 18 6l4 0 49 51-48 51-6 0c-8 0-15 2-19 6-4 4-6 10-6 17 0 9 2 15 6 18 4 4 11 6 20 6l51 0c7 0 13-2 16-6 3-4 5-10 5-17 0-7-1-12-3-15-2-3-6-5-10-5z"/>
<glyph glyph-name="show" unicode="&#57355;" d="M255 405c-28 0-52-23-52-52 0-29 24-52 52-52 29 0 53 23 53 52 0 29-24 52-53 52z m0 15c-122 0-255-156-255-156 0 0 121-157 255-157 134 0 256 157 256 157 0 0-133 156-256 156z m0-263c-59 0-107 48-107 107 0 59 48 107 107 107 60 0 108-48 108-107 0-59-48-107-108-107z"/>
<glyph glyph-name="fx-series" unicode="&#112;" d="M440 73c-20 0-26 18-26 18l-37 78 36 47c10-9 22-15 36-15 29 0 52 25 52 55 0 30-23 55-52 55-17 0-31-8-41-20l-55-74-44 94-161 0 11 49c1 2 7 41 38 64 10-13 25-22 41-22 30 0 53 25 53 55 0 30-23 55-53 55-105 0-140-90-148-139l-13-62-66 0 0-55 54 0-54-256 70 0 56 256 119 0 49-103-46-62c-10 12-24 19-39 19-29 0-53-25-53-55 0-30 24-55 53-55 15 0 28 7 38 17l70 89 16-33c17-36 35-73 87-73 35 0 70 27 70 110l-35 0c0-28-11-37-26-37"/>
<glyph glyph-name="group-7" unicode="&#57352;" d="M451 232c1 8 2 16 2 24 0 8-1 16-2 24l56 41c5 3 7 10 3 15l-52 85c-4 6-11 8-16 6l-66-25c-14 10-28 18-44 24l-10 65c-1 6-7 10-13 10l-106 0c-6 0-12-4-13-10l-10-65c-16-6-30-14-44-24l-66 25c-5 2-12 0-16-6l-52-85c-4-5-2-12 3-15l55-41c-1-8-1-16-1-24 0-8 0-16 1-24l-55-41c-5-3-7-10-3-15l52-85c4-6 11-8 16-6l66 25c14-10 28-18 44-24l10-65c1-6 7-10 13-10l106 0c6 0 12 4 13 10l9 65c16 6 31 14 45 24l65-25c6-2 13 0 16 6l53 85c3 5 2 12-3 15z m-195-62c-51 0-92 39-92 86 0 47 41 86 92 86 51 0 92-39 92-86 0-47-41-86-92-86z"/>
</font>
</defs>
</svg>
